<?xml version="1.0" standalone="no"?>
<!DOCTYPE svg PUBLIC "-//W3C//DTD SVG 20010904//EN"
 "http://www.w3.org/TR/2001/REC-SVG-20010904/DTD/svg10.dtd">
<svg version="1.0" xmlns="http://www.w3.org/2000/svg"
 width="1023.000000pt" height="576.000000pt" viewBox="0 0 1023.000000 576.000000"
 preserveAspectRatio="xMidYMid meet">

<g transform="translate(0.000000,576.000000) scale(0.100000,-0.100000)"
fill="#000000" stroke="none">
<path d="M4745 5495 c-445 -118 -822 -397 -1039 -767 l-28 -48 59 -36 c145
-89 625 -364 636 -364 7 0 25 21 41 46 115 182 315 328 521 380 39 9 74 20 78
24 6 5 -85 526 -131 745 -10 50 -20 52 -137 20z"/>
<path d="M5127 5320 c-38 -5 -71 -11 -74 -14 -5 -5 48 -383 95 -686 l17 -105
150 -1 c122 -1 165 -5 230 -23 107 -30 212 -80 295 -141 39 -27 76 -50 83 -50
12 0 107 107 408 458 65 75 115 140 112 146 -6 15 -94 84 -183 144 -168 113
-409 211 -618 253 -120 23 -398 34 -515 19z"/>
<path d="M3385 4647 c-24 -38 -91 -197 -119 -285 -51 -163 -67 -266 -73 -467
-5 -165 -2 -207 16 -318 25 -141 85 -345 105 -353 12 -4 728 265 743 279 3 3
-7 50 -23 104 -26 88 -29 112 -28 243 0 162 11 218 71 358 19 46 34 85 32 87
-10 9 -695 375 -702 375 -4 0 -13 -10 -22 -23z"/>
<path d="M4875 4205 c-182 -39 -348 -171 -430 -340 -177 -365 23 -798 416
-900 83 -22 225 -22 309 0 256 65 447 281 478 540 16 128 -5 251 -63 365 -132
261 -422 398 -710 335z m-52 -84 c-13 -11 -23 -21 -23 -24 0 -3 26 -6 58 -6
31 0 75 -6 97 -13 l40 -13 11 -85 10 -85 8 60 c14 111 14 111 55 124 21 6 64
11 95 11 59 0 71 11 34 31 -13 7 -18 14 -11 16 15 5 97 -32 150 -69 79 -54
192 -182 118 -134 -29 19 -29 22 -10 -51 8 -31 15 -74 15 -94 0 -36 -1 -37
-75 -70 -41 -18 -73 -34 -71 -36 1 -2 38 4 80 13 74 15 78 15 92 -3 15 -17 53
-96 69 -138 7 -19 7 -19 18 3 18 39 24 24 15 -45 -10 -84 -22 -121 -67 -208
-33 -63 -36 -67 -41 -43 l-5 27 -44 -29 c-24 -17 -62 -36 -84 -42 l-40 -12
-59 64 -60 65 42 -77 c32 -59 39 -81 31 -95 -11 -21 -76 -83 -111 -106 l-24
-17 34 -7 35 -7 -50 -13 c-62 -16 -227 -16 -280 1 -40 12 -40 12 -12 19 l28 8
-42 32 c-23 18 -55 49 -72 69 l-29 37 41 71 c22 40 41 74 41 77 0 3 -26 -23
-58 -58 l-59 -63 -41 12 c-23 7 -62 29 -88 48 l-47 36 5 -31 c2 -17 2 -31 -1
-31 -10 0 -61 98 -81 156 -23 66 -38 204 -19 167 17 -32 24 -29 38 18 17 56
63 129 81 129 8 0 42 -7 75 -15 88 -21 88 -18 5 23 l-75 37 2 56 c2 31 10 75
18 98 l14 41 -29 -15 c-17 -9 -30 -11 -30 -6 0 20 145 143 208 175 75 39 111
47 75 17z"/>
<path d="M4890 3764 c-63 -46 -118 -88 -122 -92 -9 -9 78 -293 92 -302 4 -3
78 -4 163 -2 l156 3 45 143 c25 79 46 147 45 152 0 10 -244 184 -256 183 -4 0
-60 -38 -123 -85z"/>
<path d="M3750 3259 c-63 -28 -177 -78 -252 -111 -76 -33 -136 -64 -133 -68 3
-5 0 -12 -6 -16 -8 -5 -9 -3 -4 6 12 19 -29 7 -126 -38 l-81 -38 59 -114 c66
-129 170 -283 184 -274 5 3 8 1 7 -4 -5 -15 42 -73 53 -67 5 4 8 1 7 -7 -2 -7
2 -12 9 -11 7 2 10 -3 7 -11 -6 -16 171 -180 186 -171 6 4 9 1 8 -7 -2 -8 5
-12 19 -11 11 1 27 -5 35 -15 12 -15 11 -16 -5 -3 -9 8 -20 11 -23 9 -3 -3 8
-15 23 -27 15 -11 33 -25 39 -30 68 -56 363 -197 391 -187 8 3 12 2 9 -2 -7
-12 64 -36 74 -26 9 9 33 83 136 414 58 190 60 195 42 184 -7 -4 -8 -3 -4 5 4
6 11 9 15 6 6 -3 51 126 51 148 0 2 -19 10 -42 17 -65 19 -177 77 -236 121
-30 23 -58 37 -65 33 -6 -4 -9 -4 -5 1 4 4 3 14 -3 22 -10 11 -15 11 -28 1
-14 -11 -14 -11 -4 3 11 13 8 20 -12 39 -14 13 -25 20 -25 16 0 -5 -7 -3 -15
4 -8 7 -12 16 -9 21 7 12 -31 60 -41 51 -5 -4 -6 -2 -2 3 3 6 -7 29 -22 52
-23 34 -31 39 -42 30 -11 -10 -11 -9 0 5 10 14 9 24 -9 57 -11 23 -26 41 -33
41 -6 -1 -64 -23 -127 -51z m-173 -115 c-3 -3 -12 -4 -19 -1 -8 3 -5 6 6 6 11
1 17 -2 13 -5z m-377 -148 c0 -2 -7 -7 -16 -10 -8 -3 -12 -2 -9 4 6 10 25 14
25 6z m144 -272 c3 -8 2 -12 -4 -9 -6 3 -10 10 -10 16 0 14 7 11 14 -7z m-4
-34 c6 -11 8 -20 6 -20 -3 0 -10 9 -16 20 -6 11 -8 20 -6 20 3 0 10 -9 16 -20z
m292 -305 c10 7 11 5 0 -6 -10 -11 -16 -9 -35 11 -22 24 -22 24 0 6 12 -10 27
-15 35 -11z"/>
<path d="M5245 2644 c-11 -9 -51 -31 -90 -49 -167 -79 -335 -106 -500 -81 -55
9 -110 18 -122 22 -19 5 -24 -2 -48 -83 -15 -48 -28 -100 -29 -115 0 -14 -3
-24 -5 -22 -4 4 -59 -188 -126 -445 -14 -53 -21 -99 -17 -103 14 -14 185 -46
307 -59 248 -26 551 18 783 113 43 18 69 34 65 40 -3 7 -1 8 6 4 15 -9 53 3
46 15 -3 5 2 6 11 2 13 -5 15 -3 9 7 -5 9 -4 11 4 6 7 -5 42 10 82 34 60 37
68 45 57 59 -12 14 -11 15 5 2 16 -12 20 -12 33 1 14 14 13 20 -11 57 -15 22
-31 39 -35 36 -3 -2 -7 2 -7 10 0 19 -145 235 -154 229 -4 -2 -6 2 -5 9 0 7
-7 24 -16 38 -10 13 -57 82 -106 154 -48 71 -94 131 -102 132 -8 2 -24 -4 -35
-13z m-710 -124 c3 -5 1 -10 -4 -10 -6 0 -11 5 -11 10 0 6 2 10 4 10 3 0 8 -4
11 -10z m510 0 c-3 -5 -1 -10 6 -10 7 0 10 -3 6 -6 -9 -9 -28 6 -22 17 4 5 8
9 11 9 3 0 2 -4 -1 -10z m-438 -16 c-3 -3 -12 -4 -19 -1 -8 3 -5 6 6 6 11 1
17 -2 13 -5z m774 -41 c-12 -20 -14 -14 -5 12 4 9 9 14 11 11 3 -2 0 -13 -6
-23z m32 -46 c3 -8 -1 -14 -8 -14 -7 0 -11 6 -8 14 3 7 6 13 8 13 2 0 5 -6 8
-13z m68 -90 c-10 -9 -11 -8 -5 6 3 10 9 15 12 12 3 -3 0 -11 -7 -18z m76 -92
c0 -6 -8 -11 -18 -11 -13 0 -15 3 -7 13 7 9 7 13 -1 13 -7 0 -9 4 -6 10 7 11
32 -8 32 -25z"/>
<path d="M5180 1382 c-37 -20 -70 -72 -70 -110 0 -37 28 -86 59 -105 34 -20
96 -22 129 -3 86 47 78 184 -13 222 -45 18 -63 18 -105 -4z"/>
<path d="M3160 840 l0 -430 245 0 245 0 0 100 0 100 -135 0 -135 0 0 330 0
330 -110 0 -110 0 0 -430z"/>
<path d="M4550 840 l0 -430 245 0 245 0 0 100 0 100 -135 0 -135 0 0 330 0
330 -110 0 -110 0 0 -430z"/>
<path d="M3945 1101 c-89 -22 -177 -101 -223 -199 -23 -49 -27 -71 -27 -152 0
-165 52 -263 170 -321 56 -27 77 -32 138 -32 74 -1 161 27 188 59 18 22 29 16
29 -16 l0 -30 100 0 100 0 0 345 0 345 -100 0 -100 0 0 -36 0 -35 -35 27 c-64
49 -155 66 -240 45z m190 -201 c42 -20 76 -67 89 -123 17 -73 -52 -178 -127
-192 -84 -16 -153 22 -183 100 -57 149 81 283 221 215z"/>
<path d="M5637 1096 c-89 -32 -159 -109 -192 -215 -25 -77 -17 -197 17 -272
27 -60 80 -119 128 -144 86 -44 200 -38 284 15 l46 30 0 -46 c0 -34 -6 -51
-24 -69 -50 -50 -157 -55 -203 -9 -22 22 -32 24 -138 24 -63 0 -115 -2 -115
-4 0 -18 34 -93 55 -121 58 -75 187 -121 316 -112 138 9 241 74 291 182 22 49
23 59 26 398 l3 347 -101 0 -100 0 0 -36 0 -36 -35 26 c-70 54 -176 71 -258
42z m224 -189 c50 -33 71 -80 67 -148 -7 -96 -64 -149 -162 -149 -124 0 -184
180 -93 279 29 31 52 40 108 40 32 1 56 -6 80 -22z"/>
<path d="M6475 1101 c-91 -23 -172 -93 -219 -191 -29 -60 -31 -73 -30 -170 0
-91 3 -112 26 -162 79 -172 284 -236 441 -138 27 17 50 30 52 30 2 0 3 -12 2
-27 l-2 -28 103 -3 102 -3 0 346 0 345 -100 0 -100 0 0 -35 0 -34 -42 28 c-74
49 -149 62 -233 42z m205 -209 c47 -35 70 -80 70 -139 0 -65 -18 -103 -66
-140 -48 -36 -137 -40 -181 -7 -102 74 -90 250 21 300 40 18 122 11 156 -14z"/>
<path d="M5130 755 l0 -345 105 0 105 0 0 345 0 345 -105 0 -105 0 0 -345z"/>
</g>
</svg>
