<?xml version="1.0" standalone="no"?>
<!DOCTYPE svg PUBLIC "-//W3C//DTD SVG 20010904//EN"
 "http://www.w3.org/TR/2001/REC-SVG-20010904/DTD/svg10.dtd">
<svg version="1.0" xmlns="http://www.w3.org/2000/svg"
 width="1280.000000pt" height="853.000000pt" viewBox="0 0 1280.000000 853.000000"
 preserveAspectRatio="xMidYMid meet">
<metadata>
Created by potrace 1.16, written by Peter Selinger 2001-2019
</metadata>
<g transform="translate(0.000000,853.000000) scale(0.100000,-0.100000)"
fill="#000000" stroke="none">
<path d="M6240 8266 c-91 -32 -146 -62 -210 -114 -57 -46 -160 -168 -160 -188
0 -7 59 -46 132 -87 l131 -75 66 67 c53 54 78 71 125 87 32 10 61 25 63 31 3
7 -4 59 -15 115 -11 57 -23 122 -27 146 -8 49 -12 50 -105 18z"/>
<path d="M6410 8187 c0 -30 27 -238 36 -272 6 -23 10 -25 68 -25 78 0 130 -15
185 -52 24 -16 48 -27 53 -26 5 2 54 55 108 118 l99 115 -32 28 c-41 35 -197
111 -259 126 -26 6 -94 11 -152 11 -104 0 -106 0 -106 -23z"/>
<path d="M2775 7943 c-62 -8 -191 -36 -207 -44 -17 -9 -18 -34 -18 -296 0
-320 0 -320 76 -373 34 -24 167 -124 227 -171 35 -27 31 -29 207 104 91 69
141 113 152 137 16 31 18 68 18 303 0 249 -1 268 -19 286 -40 40 -297 72 -436
54z m-66 -117 c13 -15 98 -46 128 -46 15 0 18 -9 21 -52 2 -60 1 -62 -53 -104
-62 -47 -71 -51 -52 -23 9 13 17 30 17 38 0 8 6 22 14 30 17 20 38 82 30 90
-3 3 -13 -5 -23 -18 -24 -31 -45 -19 -37 21 5 26 3 29 -12 23 -9 -4 -24 -9
-33 -12 -13 -4 -15 -15 -11 -52 3 -33 -1 -60 -13 -84 -13 -28 -14 -40 -5 -57
14 -26 6 -51 -20 -68 -20 -12 -20 -10 -20 152 0 163 0 165 23 169 12 2 25 5
28 6 4 0 12 -5 18 -13z m421 -336 l0 -239 -46 -35 c-26 -20 -50 -33 -54 -31
-8 5 -10 450 -2 472 4 14 81 73 94 73 4 0 8 -108 8 -240z m-191 -143 c0 -128
-3 -237 -7 -243 -4 -6 -17 -16 -29 -22 -17 -9 -25 -8 -42 6 -20 16 -21 27 -22
222 l-1 205 38 33 c20 17 43 32 50 32 11 0 13 -48 13 -233z m-189 -37 c0 -71
-3 -130 -7 -130 -5 0 -26 14 -48 31 -38 29 -40 33 -45 95 l-5 66 45 34 c25 18
48 34 53 34 4 0 7 -58 7 -130z"/>
<path d="M5731 7908 c-44 -97 -56 -159 -54 -283 1 -129 28 -243 55 -237 7 1
47 16 88 32 41 16 101 38 133 50 l57 22 -7 51 c-12 81 -6 171 15 219 l18 43
-130 72 c-72 40 -137 73 -143 73 -7 0 -21 -19 -32 -42z"/>
<path d="M9847 7943 c-14 -13 -6 -50 13 -68 11 -10 20 -26 20 -37 0 -24 -35
-58 -60 -58 -11 0 -29 9 -41 21 -21 21 -22 40 -3 98 7 23 5 24 -24 18 -79 -16
-156 -94 -188 -189 -24 -74 -16 -184 21 -268 17 -38 29 -84 29 -111 1 -54 26
-89 63 -89 12 0 23 -4 23 -9 0 -12 178 -199 201 -212 13 -7 27 -5 47 5 29 15
142 129 183 185 13 17 30 31 39 31 8 0 26 7 38 16 18 12 22 24 21 57 -1 24 7
61 19 88 12 25 28 72 37 104 41 160 -15 305 -145 374 -69 37 -90 31 -62 -18
34 -59 -26 -122 -81 -86 -35 22 -42 56 -17 74 13 9 20 25 20 47 0 29 -4 34
-23 34 -13 0 -29 -6 -35 -12 -10 -10 -17 -10 -32 0 -22 13 -53 16 -63 5z
m-140 -269 c12 -19 12 -24 -3 -38 -20 -21 -32 -13 -14 9 17 21 0 39 -28 31
-30 -10 -46 -68 -39 -143 6 -64 26 -122 27 -77 0 19 20 25 263 73 144 29 272
53 285 54 18 1 22 7 22 33 0 18 -8 38 -20 49 -33 30 -69 -2 -38 -33 9 -9 9
-12 0 -12 -6 0 -16 9 -22 19 -7 14 -5 24 8 41 24 29 65 14 81 -31 30 -86 4
-214 -69 -338 -53 -91 -205 -251 -238 -251 -30 0 -152 123 -215 217 -52 79
-91 172 -101 246 -18 119 52 223 101 151z"/>
<path d="M10212 7524 c-2 -35 -2 -35 -202 -74 -30 -5 -64 -12 -75 -14 -11 -3
-66 -14 -122 -26 -56 -11 -109 -23 -117 -26 -9 -4 -20 5 -30 23 -8 15 -15 23
-16 18 0 -16 58 -125 91 -170 52 -71 161 -175 183 -175 28 0 170 148 215 223
52 88 83 173 78 215 -3 34 -4 35 -5 6z"/>
<path d="M813 7783 c7 -179 24 -255 87 -390 60 -127 182 -278 277 -340 30 -20
46 -9 143 88 179 182 270 415 270 696 l0 103 -391 0 -392 0 6 -157z m751 -3
c0 -104 -6 -165 -18 -215 -21 -82 -80 -214 -127 -281 -38 -55 -174 -201 -202
-215 -26 -15 -103 47 -184 146 -105 131 -162 252 -193 408 -12 62 -21 272 -13
294 4 11 73 13 372 11 l366 -3 -1 -145z"/>
<path d="M933 7805 c-10 -28 19 -208 46 -286 36 -101 82 -176 158 -258 l61
-66 42 40 c67 64 147 194 181 292 24 68 32 112 36 191 l6 102 -262 0 c-226 0
-262 -2 -268 -15z m257 -20 c-6 -8 -8 -20 -4 -27 4 -6 9 -31 10 -55 l3 -44
-33 7 c-19 3 -43 1 -55 -5 -20 -11 -21 -9 -21 24 0 26 -4 35 -17 36 -17 1 -17
2 -1 6 15 4 16 8 6 26 -11 22 -12 22 -24 -8 -7 -16 -13 -40 -14 -52 0 -24 -29
-33 -31 -10 0 10 -2 10 -6 0 -2 -7 -16 -13 -29 -13 -23 0 -24 3 -24 65 l0 65
126 0 c110 0 125 -2 114 -15z m230 11 c0 -5 -188 -146 -195 -146 -11 0 -4 30
8 30 6 0 4 5 -6 11 -9 6 -15 15 -12 20 4 5 12 6 18 2 7 -4 6 0 -2 10 -11 14
-11 20 0 34 11 13 11 17 2 20 -7 3 -13 9 -13 14 0 5 45 9 100 9 55 0 100 -2
100 -4z m-13 -168 c-2 -112 -5 -128 -29 -173 l-27 -50 -1 154 c0 130 3 157 17
173 37 41 43 25 40 -104z m-144 -343 l-28 -35 -3 187 -3 188 28 24 28 24 3
-177 2 -176 -27 -35z m-91 130 c2 -91 0 -165 -4 -165 -4 0 -18 15 -32 33 -23
29 -25 42 -27 140 -1 100 0 110 21 133 13 13 27 24 31 24 5 0 9 -74 11 -165z"/>
<path d="M6312 7766 c-125 -41 -191 -162 -162 -301 30 -147 208 -231 345 -165
96 47 144 123 145 230 0 97 -41 166 -127 217 -53 31 -140 39 -201 19z m3 -26
c-3 -6 4 -10 17 -10 31 0 45 -10 57 -40 l10 -25 0 26 c1 27 17 39 52 39 10 0
19 4 19 10 0 11 63 -25 81 -47 21 -25 22 -96 2 -110 -15 -12 -14 -13 8 -13 18
0 30 -10 43 -35 18 -33 18 -39 5 -83 -9 -27 -21 -47 -30 -47 -7 -1 -24 -6 -36
-13 -28 -15 -28 -15 -48 4 -15 15 -15 14 -9 -9 4 -19 0 -34 -17 -56 -21 -26
-31 -30 -74 -30 -37 -1 -55 4 -65 17 -42 50 -42 50 -29 74 12 23 12 23 -10 4
-19 -17 -24 -18 -49 -6 -15 8 -29 14 -32 14 -16 3 -28 19 -39 54 -12 36 -11
42 13 80 20 32 30 39 48 35 l23 -5 -25 20 c-21 18 -23 23 -12 46 7 16 8 27 1
31 -14 9 -2 24 49 56 50 32 56 34 47 19z"/>
<path d="M6338 7595 c-27 -20 -48 -36 -48 -38 0 -1 9 -27 20 -57 11 -30 20
-56 20 -57 0 -2 29 -3 64 -3 l63 0 17 61 c10 33 16 62 14 63 -22 18 -92 66
-97 66 -3 0 -27 -16 -53 -35z"/>
<path d="M11380 7640 c-113 -30 -112 -29 -85 -130 34 -128 144 -305 254 -407
l56 -53 65 68 c36 37 74 78 85 92 35 43 100 153 123 207 26 61 54 185 44 194
-14 12 -138 41 -163 37 -20 -2 -25 -9 -27 -42 -2 -28 1 -42 12 -48 20 -11 21
-37 2 -44 -8 -3 -14 -15 -14 -27 -1 -97 -4 -107 -49 -155 -24 -26 -48 -57 -54
-70 -11 -27 -37 -26 -53 3 -6 10 -22 31 -36 46 -66 72 -66 73 -68 132 -1 32
-8 67 -14 77 -10 15 -10 22 0 32 16 16 16 83 0 95 -9 7 -35 4 -78 -7z"/>
<path d="M5900 7400 c-27 -16 -135 -64 -149 -66 -7 -2 -18 -7 -24 -13 -6 -6
-19 -11 -29 -11 -10 0 -21 -6 -24 -14 -10 -25 86 -173 141 -217 11 -9 36 -31
55 -48 44 -40 198 -117 210 -105 8 10 48 139 57 189 3 17 10 35 15 42 5 7 7
17 3 23 -3 5 -1 10 4 10 6 0 11 7 11 15 0 8 -6 15 -13 15 -44 0 -159 93 -193
156 -19 34 -36 41 -64 24z"/>
<path d="M6435 7132 c-44 -24 -60 -27 -146 -27 l-96 0 -12 -38 c-6 -21 -8 -43
-5 -49 4 -6 3 -8 -3 -5 -6 4 -15 -13 -21 -41 -6 -26 -17 -71 -25 -100 l-15
-53 26 -12 c16 -6 81 -11 157 -11 116 0 138 3 207 28 42 15 97 38 122 52 51
29 51 33 -5 105 -16 20 -29 41 -29 46 0 5 -11 20 -25 33 -14 13 -23 25 -20 28
5 5 -45 72 -54 71 -3 0 -28 -13 -56 -27z"/>
<path d="M5667 6614 c-4 -4 -7 -81 -7 -171 l0 -163 95 0 c93 0 95 1 101 25 11
44 -1 55 -55 55 l-50 0 -3 128 -3 127 -35 3 c-20 2 -39 0 -43 -4z"/>
<path d="M6217 6614 c-4 -4 -7 -81 -7 -171 l0 -163 95 0 95 0 0 40 0 40 -50 0
-49 0 -3 128 -3 127 -35 3 c-20 2 -39 0 -43 -4z"/>
<path d="M5951 6542 c-50 -25 -74 -63 -79 -124 -5 -67 24 -115 82 -137 35 -13
44 -13 82 1 24 8 44 12 44 7 0 -5 18 -9 40 -9 l40 0 0 135 0 135 -39 0 c-22 0
-41 -5 -43 -11 -2 -6 -14 -5 -33 5 -38 20 -52 20 -94 -2z"/>
<path d="M6623 6544 c-46 -23 -77 -91 -69 -149 10 -63 62 -108 120 -103 22 3
49 8 59 12 20 10 24 -13 5 -32 -15 -15 -74 -16 -83 -2 -9 15 -95 13 -95 -2 1
-21 32 -55 67 -72 44 -22 99 -20 140 5 55 34 63 61 63 214 l0 135 -33 0 c-18
0 -38 -5 -43 -10 -7 -7 -20 -6 -40 5 -36 19 -51 19 -91 -1z"/>
<path d="M6945 6541 c-52 -24 -75 -65 -75 -131 0 -95 62 -153 143 -134 17 4
56 7 85 5 l52 -2 0 135 0 136 -34 0 c-19 0 -37 -4 -41 -9 -3 -6 -19 -4 -40 5
-43 17 -41 18 -90 -5z"/>
<path d="M6439 6546 c-2 -2 -3 -63 -1 -135 l3 -131 40 0 39 0 0 135 0 135 -38
0 c-21 0 -41 -2 -43 -4z"/>
<path d="M1010 6308 c-26 -14 -54 -18 -110 -18 -41 1 -80 1 -86 1 -23 -2 -24
-35 -2 -79 27 -57 35 -141 17 -195 -7 -23 -29 -66 -48 -96 -35 -52 -35 -54
-16 -70 15 -12 21 -30 22 -70 6 -150 81 -248 225 -292 33 -11 73 -19 88 -19
16 0 42 -11 58 -25 17 -14 33 -25 37 -25 3 0 21 11 39 25 18 14 43 25 55 25
58 0 153 36 207 78 70 55 103 122 109 218 3 50 9 72 25 89 19 20 19 23 5 35
-9 8 -31 41 -48 74 -40 80 -44 168 -8 243 35 77 25 88 -81 85 -67 -3 -90 1
-121 17 l-38 20 -37 -22 c-49 -29 -150 -30 -207 -2 -22 10 -42 20 -45 21 -3 1
-21 -7 -40 -18z m86 -19 c62 -28 147 -28 203 -1 41 20 41 20 93 0 40 -15 68
-19 114 -15 83 6 90 0 63 -52 -46 -90 -34 -220 31 -309 28 -39 28 -40 9 -58
-15 -13 -19 -31 -19 -78 -1 -145 -79 -237 -234 -278 -38 -10 -77 -18 -87 -18
-10 0 -30 -11 -46 -24 l-28 -23 -24 22 c-14 14 -42 25 -73 29 -106 14 -211 71
-251 135 -28 45 -46 112 -47 172 0 29 -6 51 -15 59 -21 17 -19 24 19 80 24 35
37 69 46 118 10 63 9 74 -10 128 -36 100 -38 97 60 98 60 1 94 6 115 18 17 10
31 17 31 18 1 0 23 -10 50 -21z"/>
<path d="M1028 6266 c-16 -5 -29 -17 -29 -25 -1 -9 -2 -32 -3 -51 l-1 -35 -57
-3 -57 -3 2 -44 2 -45 53 0 c56 0 53 4 56 -70 1 -23 6 -25 48 -28 l47 -3 3 48
3 48 50 3 51 3 1 44 2 44 -52 3 -52 3 -3 50 c-3 60 -22 77 -64 61z"/>
<path d="M1160 5935 c-20 -24 -15 -67 10 -87 22 -18 17 -18 -159 -18 l-181 0
0 -53 c0 -104 78 -208 182 -242 112 -38 296 -33 392 9 98 44 155 127 156 229
l0 57 -175 0 c-164 0 -196 5 -162 27 8 5 2 9 -18 13 -21 4 -31 12 -33 28 -2
13 2 22 10 23 29 3 33 4 36 14 5 17 -44 17 -58 0z m106 -196 c23 -21 25 -30
21 -72 -5 -52 -21 -71 -71 -83 -62 -14 -130 59 -107 117 26 66 106 86 157 38z"/>
<path d="M6201 5891 c-16 -11 -35 -102 -22 -110 5 -4 9 -62 9 -130 -1 -118 -2
-126 -25 -149 l-24 -24 23 8 c13 3 26 12 30 18 5 7 8 7 8 -3 0 -8 6 -11 18 -7
14 5 14 4 -2 -9 -11 -8 -23 -15 -28 -15 -4 0 -8 -9 -8 -19 0 -10 -7 -21 -15
-25 -8 -3 -15 -16 -14 -28 0 -22 1 -22 8 -3 6 15 9 8 12 -28 2 -27 1 -51 -4
-54 -4 -2 -7 -1 -6 4 5 27 -1 35 -16 23 -11 -9 -12 -16 -4 -26 6 -7 8 -26 5
-41 -14 -62 -10 -150 7 -167 9 -9 13 -24 10 -33 -4 -11 -3 -14 5 -9 8 5 13 -1
14 -16 1 -13 4 31 8 97 4 107 7 121 25 130 11 5 58 32 103 58 81 47 84 48 109
32 13 -9 32 -14 40 -11 10 4 13 2 10 -7 -3 -8 6 -18 24 -24 38 -15 38 1 -1 37
-19 18 -28 34 -24 44 3 9 1 16 -5 16 -6 0 -11 9 -11 20 0 11 5 20 10 20 6 0
10 7 10 15 0 8 6 16 13 17 6 0 17 2 22 2 20 3 35 18 35 34 -1 15 -2 15 -11 -1
-6 -9 -14 -15 -20 -12 -10 7 -58 -25 -59 -40 0 -5 -11 -18 -25 -28 -23 -16
-26 -16 -80 4 -31 11 -59 28 -62 36 -3 8 -12 12 -20 9 -8 -3 -11 -1 -8 4 3 6
1 10 -4 10 -6 0 -11 9 -11 19 0 11 -5 23 -11 27 -17 10 -5 113 17 151 21 35
73 71 83 56 9 -13 64 -9 69 5 7 21 22 13 22 -12 0 -31 -16 -42 -36 -25 -13 11
-19 9 -34 -10 -13 -18 -19 -20 -22 -10 -4 10 -11 8 -27 -11 -17 -20 -20 -33
-16 -65 4 -29 2 -36 -5 -25 -8 13 -10 12 -10 -3 0 -52 67 -117 121 -117 30 0
45 8 79 41 38 38 41 44 39 90 -2 27 -6 49 -11 49 -17 0 -7 22 12 27 33 9 23
23 -12 16 -25 -5 -30 -3 -26 8 4 8 9 22 13 32 4 10 3 17 -4 17 -6 0 -11 -4
-11 -10 0 -21 -26 -8 -43 21 -14 25 -15 30 -3 26 9 -4 18 -2 21 3 4 6 15 10
26 10 15 0 19 7 19 34 0 19 6 36 13 39 6 2 -58 5 -143 6 -85 0 -161 -3 -169
-8z"/>
<path d="M11498 5833 c-29 -30 -47 -116 -23 -106 7 2 29 -15 48 -38 l36 -41 3
48 3 49 43 3 c33 2 42 0 42 -12 0 -10 -9 -16 -25 -16 -34 0 -33 -28 2 -32 38
-4 41 -27 4 -34 -22 -5 -31 -12 -31 -26 0 -17 5 -19 28 -14 15 4 38 15 53 25
21 16 28 17 43 6 16 -12 14 -15 -21 -39 -21 -14 -48 -26 -60 -26 -20 0 -17 -5
22 -41 51 -47 62 -46 119 6 21 19 41 33 45 31 3 -2 7 7 7 21 2 24 2 24 -13 4
-8 -12 -18 -21 -22 -21 -17 0 -20 32 -5 54 11 18 12 24 2 22 -20 -2 -161 150
-153 166 3 7 -2 3 -13 -9 -11 -13 -24 -23 -28 -23 -5 0 -24 16 -44 35 l-36 35
-26 -27z"/>
<path d="M2842 5819 c-23 -18 -24 -19 -9 -86 8 -38 23 -117 33 -176 21 -123
20 -124 55 61 34 175 35 181 8 200 -32 22 -61 23 -87 1z"/>
<path d="M6640 5656 c0 -53 2 -96 6 -96 3 0 31 14 62 32 31 17 69 38 85 46 33
16 35 26 5 17 -18 -5 -19 -4 -8 4 8 5 12 11 10 13 -7 4 -142 72 -152 76 -4 2
-8 -39 -8 -92z"/>
<path d="M4289 5557 c-10 -25 8 -108 46 -207 7 -19 25 -73 38 -120 66 -222
112 -372 137 -450 16 -47 32 -103 36 -125 4 -22 19 -67 34 -100 32 -69 60
-149 60 -169 0 -8 7 -19 15 -26 10 -9 15 -9 15 -1 0 14 11 14 32 -2 11 -9 14
-22 11 -40 -6 -28 -23 -38 -23 -13 0 8 -4 17 -10 21 -5 3 -5 -7 1 -25 9 -25
14 -28 25 -19 8 6 14 19 14 29 0 16 29 50 43 50 3 0 9 -16 13 -35 7 -38 20
-46 27 -17 2 9 3 5 1 -10 -2 -14 3 -32 12 -39 13 -10 13 -15 -1 -35 -8 -13
-15 -25 -15 -26 0 -2 16 -4 36 -6 28 -2 35 1 31 13 -4 8 -2 17 3 20 6 4 10 -1
10 -10 0 -16 20 -67 41 -107 5 -10 9 -25 9 -33 0 -8 4 -15 9 -15 11 0 2 38
-10 46 -5 3 -9 15 -9 28 0 12 -21 83 -46 157 -25 73 -54 166 -64 204 -10 39
-26 97 -34 130 -9 33 -26 96 -37 140 -12 44 -25 89 -29 100 -11 27 -50 175
-67 255 -21 93 -25 133 -15 147 12 19 619 25 626 7 3 -8 11 -11 18 -9 10 4 12
35 7 140 -3 74 -8 137 -10 140 -5 4 -978 16 -980 12z"/>
<path d="M7527 5553 c-10 -16 -8 -293 2 -293 5 0 12 4 16 9 6 11 522 13 600 3
44 -6 50 -10 52 -32 1 -14 0 -18 -3 -7 -8 26 -21 20 -21 -10 0 -16 -10 -66
-23 -113 -12 -47 -23 -92 -24 -100 -1 -8 -11 -44 -23 -80 -12 -36 -38 -128
-58 -205 -20 -77 -40 -153 -45 -170 -5 -16 -21 -70 -35 -120 -15 -49 -31 -98
-36 -107 -5 -10 -9 -24 -9 -31 0 -12 -28 -99 -80 -251 -11 -33 -18 -61 -15
-64 2 -3 7 3 10 12 3 9 8 24 12 34 3 9 5 23 4 30 -1 6 3 12 9 12 5 0 10 9 10
20 0 11 5 20 10 20 6 0 10 10 10 23 0 12 8 31 17 42 15 19 15 18 10 -15 -4
-19 -9 -46 -12 -60 -4 -17 -1 -15 9 9 9 18 16 49 16 67 0 24 5 34 15 34 22 0
18 17 -5 23 -25 6 -26 25 -2 34 9 4 23 12 30 19 12 12 73 11 113 -1 13 -5 17
-2 14 8 -3 7 -16 13 -28 13 -34 -1 -36 41 -3 54 14 5 26 14 26 20 0 18 17 11
27 -12 11 -22 11 -22 18 -3 6 19 23 59 34 79 2 5 -8 6 -23 2 -32 -8 -34 7 -2
22 27 12 68 89 70 133 1 17 7 34 15 38 8 6 11 17 6 32 -4 16 -3 20 3 10 7 -10
11 -6 14 15 3 16 9 37 13 47 4 10 3 17 -3 17 -6 0 -13 -8 -15 -17 -4 -15 -5
-15 -5 2 0 11 3 29 8 40 7 17 9 17 9 3 1 -10 6 -18 12 -18 8 0 9 11 5 31 -3
17 -6 41 -6 54 0 19 -5 22 -42 21 -32 -1 -43 3 -43 14 0 10 10 15 33 15 19 0
32 5 32 12 0 28 18 11 24 -22 10 -51 31 -58 23 -7 -6 34 -4 42 11 46 20 7 29
30 107 281 26 83 51 159 55 170 17 42 20 57 14 81 -3 13 -12 24 -20 24 -16 0
-19 -16 -4 -25 8 -5 7 -11 0 -20 -6 -8 -14 -38 -16 -67 -6 -62 -11 -69 -30
-44 -8 11 -14 14 -14 8 0 -7 -16 -12 -40 -12 l-40 0 0 40 0 40 40 0 c23 0 40
5 40 11 0 7 8 18 18 25 16 13 16 15 0 27 -9 7 -34 13 -55 12 -36 -1 -38 -2
-41 -38 -3 -36 -4 -37 -43 -37 -39 0 -39 0 -39 38 0 38 -1 38 -37 37 -36 -1
-38 -2 -41 -38 l-3 -37 40 0 41 0 0 -40 c0 -29 -4 -40 -15 -40 -17 0 -57 -20
-67 -35 -4 -5 -10 -2 -14 8 -4 11 -10 14 -18 9 -12 -10 -113 -16 -103 -6 3 3
21 10 39 15 30 7 29 8 -12 5 -24 -2 -46 -9 -48 -15 -5 -14 -162 -15 -162 -1 0
6 -5 10 -11 10 -5 0 -7 -4 -4 -10 4 -6 -7 -10 -25 -10 -18 0 -29 4 -25 10 3 6
1 10 -4 10 -6 0 -11 -4 -11 -10 0 -6 -33 -10 -79 -10 -67 0 -80 3 -84 18 -4
14 -5 15 -6 1 0 -9 -10 -19 -21 -22 -19 -5 -20 0 -20 129 0 119 -7 154 -23
127z"/>
<path d="M0 2745 l0 -2745 2765 0 2765 0 0 26 c0 46 31 147 63 209 32 60 132
170 199 218 42 31 160 91 221 113 264 96 610 81 855 -36 45 -21 104 -53 130
-71 71 -47 173 -157 209 -224 32 -62 63 -163 63 -209 l0 -26 2765 0 2765 0 0
2355 c0 1450 -4 2355 -9 2355 -5 0 -13 9 -16 20 -3 11 -13 20 -21 20 -10 0
-14 8 -12 23 4 26 43 32 43 5 0 -9 4 -20 8 -24 4 -4 7 16 7 44 0 29 -4 52 -10
52 -5 0 -10 -4 -10 -10 0 -5 -8 -10 -18 -10 -10 0 -23 -5 -28 -10 -7 -7 -16
-4 -29 10 -17 19 -17 21 -2 38 10 11 17 36 17 60 l0 42 -40 0 c-33 0 -40 -3
-40 -20 0 -12 7 -20 17 -20 15 0 15 -1 0 -18 -10 -10 -17 -27 -17 -38 0 -14
-11 -24 -33 -32 -46 -16 -47 -16 -47 18 0 28 -2 30 -40 30 l-40 0 0 -55 c0
-48 -4 -58 -31 -85 -18 -16 -36 -30 -40 -30 -5 0 -9 -7 -9 -15 0 -8 -4 -15
-10 -15 -5 0 -10 18 -10 40 0 29 -4 40 -15 40 -11 0 -15 -11 -15 -40 0 -29 -4
-40 -15 -40 -10 0 -16 11 -17 33 -1 17 -4 1 -8 -38 l-6 -70 -3 60 c-2 33 -7
87 -11 120 -6 53 -7 46 -10 -65 -3 -119 -4 -121 -10 -50 -4 41 -7 73 -8 70 -2
-3 -5 -216 -8 -475 -2 -258 -6 -508 -8 -555 l-4 -85 -635 -3 -635 -2 -7 145
c-7 142 -7 145 -29 139 -14 -3 -28 2 -40 15 -15 16 -22 18 -33 10 -10 -9 -13
-7 -13 10 0 16 6 21 25 21 14 0 25 -4 25 -8 0 -4 14 -13 30 -19 l30 -11 0 39
c0 28 -4 39 -15 39 -8 0 -15 9 -15 20 0 11 6 20 13 20 11 0 14 42 16 206 l2
206 -76 -7 c-45 -4 -90 -15 -109 -25 -26 -16 -41 -18 -89 -11 -61 8 -69 7 -60
-15 3 -9 -1 -14 -11 -14 -10 0 -16 7 -14 16 2 10 -3 19 -9 21 -9 3 -13 -6 -13
-26 0 -17 -5 -31 -11 -31 -14 0 -10 -309 5 -328 7 -10 5 -16 -5 -23 -10 -7
-11 -11 -2 -17 7 -4 9 -21 6 -42 -3 -19 -7 -101 -10 -182 l-4 -148 -202 -1
c-111 -1 -220 -2 -242 -3 -22 -1 -113 -4 -202 -5 -115 -2 -162 -6 -160 -14 1
-6 -8 -13 -20 -15 -17 -3 -21 0 -17 12 4 10 1 16 -10 16 -10 0 -13 -6 -10 -15
4 -8 3 -15 -1 -15 -3 0 -13 7 -21 15 -24 24 -94 19 -136 -10 -20 -14 -51 -25
-67 -25 -33 0 -42 -16 -13 -23 9 -2 -23 -7 -73 -11 -49 -4 -98 -10 -107 -12
-13 -4 -16 -1 -12 9 3 8 -2 21 -10 30 -15 14 -14 16 4 22 23 7 27 30 6 38 -9
4 -17 -2 -21 -13 -5 -16 -10 -17 -29 -9 -17 8 -22 17 -18 35 3 17 0 24 -12 24
-19 0 -22 16 -4 23 7 2 -4 8 -24 12 -41 8 -53 35 -16 35 16 0 19 3 11 11 -9 9
-19 6 -39 -10 -15 -11 -33 -21 -41 -21 -8 0 -13 -7 -11 -17 2 -13 14 -18 38
-19 53 -2 53 -2 28 -26 -13 -13 -29 -35 -36 -50 -14 -33 -32 -37 -32 -8 0 11
5 20 10 20 6 0 10 9 10 21 0 15 -5 20 -22 17 -20 -3 -23 1 -20 27 2 16 8 33
14 36 6 4 8 11 4 17 -3 6 1 15 10 20 19 10 11 32 -12 32 -8 0 -14 7 -14 15 0
18 17 20 22 3 7 -21 38 0 38 26 0 44 21 40 68 -13 50 -56 77 -65 84 -26 6 27
-1 32 -19 14 -8 -8 -11 -2 -10 22 1 19 -2 33 -8 33 -5 -1 -19 7 -29 17 -17 17
-18 19 -3 19 9 0 17 4 17 8 0 5 10 8 22 7 15 -1 25 -10 28 -26 15 -61 27 143
13 225 l-6 38 -66 -7 c-36 -3 -77 -7 -90 -7 -17 0 -20 -3 -12 -11 6 -6 11 -19
11 -29 0 -10 4 -18 9 -18 5 0 11 -7 14 -14 4 -10 1 -13 -9 -9 -7 3 -14 9 -14
14 0 20 -31 7 -40 -16 -8 -22 -16 -25 -57 -26 -27 0 -57 -4 -68 -8 -11 -4 -34
-3 -52 2 -28 9 -35 8 -47 -8 -11 -15 -17 -16 -45 -7 -43 15 -151 4 -151 -14 0
-8 -4 -14 -9 -14 -5 0 -14 -14 -20 -32 -11 -30 -12 -31 -31 -13 -18 16 -20 16
-20 2 0 -12 -9 -17 -32 -17 -18 0 -51 -7 -73 -16 -37 -14 -38 -15 -7 -10 17 3
32 3 32 0 0 -8 -22 -29 -42 -40 -10 -5 -14 -14 -10 -21 9 -15 62 30 62 52 0 9
10 15 24 15 19 0 23 -4 19 -20 -3 -12 2 -29 12 -40 10 -11 14 -20 10 -20 -5 0
-4 -5 2 -11 6 -6 17 -8 23 -4 9 6 9 9 -1 15 -10 7 -10 11 0 23 14 18 67 38 75
30 13 -14 5 -52 -19 -87 -14 -20 -25 -41 -25 -46 0 -16 -61 -80 -76 -80 -8 0
-14 -4 -14 -10 0 -5 5 -10 10 -10 6 0 10 -9 10 -19 0 -20 -25 -36 -49 -32 -10
2 -12 -5 -7 -26 5 -23 4 -25 -5 -10 -6 11 -9 29 -7 42 4 18 1 21 -14 17 -14
-3 -18 1 -18 19 0 43 -16 53 -30 20 -9 -22 -19 -31 -36 -31 -17 0 -24 -6 -24
-19 0 -36 -30 -33 -46 4 -7 19 -14 39 -14 45 0 5 -4 10 -10 10 -5 0 -10 -11
-10 -25 0 -14 5 -25 12 -25 23 0 -3 -14 -28 -15 -15 0 -29 7 -35 17 -6 10 -14
16 -20 13 -5 -4 -7 -9 -5 -13 2 -4 -2 -16 -10 -27 -14 -19 -14 -19 -29 1 -23
30 -17 68 13 70 28 2 32 5 32 24 0 13 -7 20 -20 20 -11 0 -20 5 -20 10 0 6 -4
10 -10 10 -5 0 -10 -7 -10 -15 0 -9 -7 -18 -15 -21 -9 -4 -14 -14 -13 -23 2
-10 -3 -15 -14 -15 -24 2 -23 -8 2 -24 24 -15 27 -42 4 -42 -11 0 -14 -6 -9
-20 8 -24 -13 -49 -36 -43 -9 3 -20 0 -23 -6 -12 -18 -24 -12 -19 9 4 16 0 20
-20 20 -14 0 -29 5 -33 11 -3 6 -15 8 -26 6 -13 -4 -19 -1 -17 11 3 32 -1 41
-15 36 -10 -4 -13 -15 -9 -40 5 -30 3 -34 -16 -34 -11 0 -21 5 -21 10 0 6 -10
10 -23 10 -13 0 -29 6 -36 13 -10 10 -14 8 -22 -6 -6 -9 -19 -26 -31 -37 -14
-12 -19 -26 -15 -40 4 -15 2 -20 -8 -17 -7 3 -42 -26 -81 -71 -88 -97 -199
-203 -255 -243 -24 -17 -48 -36 -54 -43 -13 -14 -71 -52 -162 -105 -40 -23
-73 -44 -73 -47 0 -12 29 -33 34 -25 8 12 46 21 46 10 0 -5 -8 -9 -17 -9 -17
-1 -17 -1 0 -14 9 -7 17 -16 17 -20 0 -9 -38 -7 -44 3 -3 4 -17 6 -31 3 -23
-4 -25 -2 -21 22 3 14 3 26 1 26 -13 0 -103 -55 -117 -72 -10 -11 -18 -16 -18
-11 0 6 -19 5 -47 -2 l-48 -12 0 -159 c0 -88 -4 -165 -9 -172 -6 -10 -3 -13
10 -12 31 4 44 1 44 -10 0 -5 -16 -10 -35 -10 -50 0 -93 -25 -102 -58 -8 -33
-8 -80 0 -88 3 -3 368 -8 810 -11 776 -5 805 -4 804 14 -1 12 6 19 22 21 14 2
21 0 17 -7 -4 -6 13 -11 46 -13 39 -2 53 -7 53 -18 0 -13 -54 -15 -415 -18
-351 -2 -416 -5 -423 -17 -10 -19 -43 -19 -50 -1 -5 12 -29 15 -113 15 -60 0
-102 -4 -95 -9 8 -4 11 -13 7 -18 -18 -30 12 -69 59 -76 13 -1 19 -36 6 -36
-5 0 -13 5 -16 10 -11 18 -25 -1 -19 -26 4 -15 2 -24 -6 -24 -6 0 -10 -8 -9
-18 3 -34 -1 -40 -31 -47 -38 -8 -38 -16 0 -43 21 -16 30 -31 30 -50 -1 -73
-26 -96 -135 -123 -38 -10 -95 -24 -125 -33 -135 -37 -553 -65 -523 -35 6 6 9
18 6 25 -4 11 -57 14 -287 14 -186 0 -286 -4 -293 -11 -5 -5 -50 -11 -99 -11
-49 -1 -95 -5 -102 -11 -15 -12 -147 -2 -252 19 -142 29 -212 54 -247 89 -38
38 -41 66 -13 113 22 36 25 52 10 52 -5 0 -10 -7 -10 -15 0 -17 -33 -37 -52
-30 -7 3 -18 16 -24 29 -10 22 -9 26 17 37 31 12 36 28 17 47 -9 9 -7 12 10
12 12 0 22 -5 22 -12 0 -8 5 -7 16 3 14 15 14 20 0 53 -14 34 -14 36 5 36 10
0 19 4 19 9 0 13 -26 32 -33 24 -4 -3 -7 6 -7 20 0 15 -5 27 -10 27 -11 0 -8
-86 4 -97 9 -10 7 -43 -3 -43 -5 0 -16 7 -25 15 -8 8 -30 15 -48 15 -18 0 -44
7 -56 16 -21 14 -22 14 -22 -5 0 -12 4 -21 9 -21 5 0 14 -13 20 -30 7 -20 17
-30 30 -30 12 0 21 -4 21 -9 0 -5 -18 -7 -40 -4 -36 5 -40 3 -40 -16 0 -12 6
-21 15 -21 8 0 15 -7 15 -15 0 -8 -7 -15 -15 -15 -8 0 -15 -9 -15 -21 0 -11
-5 -17 -10 -14 -6 3 -14 -5 -20 -19 -13 -35 -26 -33 -34 5 -6 30 -7 30 -51 23
-42 -6 -45 -5 -45 16 0 20 4 22 40 18 28 -2 40 0 40 9 0 7 11 13 24 13 32 0
42 16 14 23 -18 5 -19 8 -8 21 10 14 9 16 -7 16 -13 0 -24 -12 -33 -35 -16
-40 -44 -47 -55 -12 -7 23 -9 20 -19 -25 -7 -32 -32 -37 -53 -10 -8 9 -16 13
-19 7 -6 -14 -81 -6 -81 8 0 7 -4 21 -9 31 -5 14 -4 17 4 12 7 -4 12 -1 12 8
0 8 -8 20 -17 26 -13 8 -14 13 -5 16 6 3 12 14 12 24 0 10 -6 21 -12 24 -10 5
-10 7 0 12 14 7 16 34 2 34 -5 0 -10 -7 -10 -15 0 -8 -4 -15 -8 -15 -4 0 -8
18 -9 41 -2 37 0 40 20 34 17 -5 19 -4 7 4 -20 14 -70 14 -70 -1 0 -6 8 -20
17 -31 16 -17 16 -20 2 -31 -14 -9 -14 -13 -3 -24 7 -6 20 -12 29 -12 8 0 15
-9 15 -20 0 -13 -7 -20 -19 -20 -11 0 -21 -4 -23 -8 -1 -5 -16 -15 -33 -23
-37 -17 -38 -39 -5 -56 14 -7 19 -13 13 -13 -7 0 -13 -7 -13 -16 0 -14 -3 -14
-15 -4 -11 9 -19 10 -26 3 -8 -8 -7 -13 0 -17 18 -11 13 -36 -8 -36 -14 0 -17
6 -13 27 5 25 4 26 -36 20 -45 -8 -49 -4 -44 52 4 35 5 37 37 33 18 -2 36 1
39 7 4 6 26 12 49 13 l42 1 -45 7 -45 7 53 1 c44 2 52 5 52 21 0 22 -20 31
-63 30 -21 -1 -25 -3 -12 -6 26 -6 44 -23 25 -23 -8 0 -25 -3 -37 -6 -18 -5
-23 -1 -29 20 -8 34 -24 33 -24 -1 0 -27 -20 -71 -20 -46 0 21 -32 45 -54 39
-15 -4 -26 1 -34 15 -12 18 -10 24 14 47 20 20 37 27 70 28 26 1 45 -3 48 -11
8 -21 52 -5 70 26 9 16 13 29 7 29 -5 0 -12 -6 -14 -12 -4 -10 -8 -10 -15 1
-9 12 -12 12 -26 -1 -19 -20 -106 -12 -123 11 -9 13 -9 17 3 19 9 2 21 -4 28
-13 7 -10 20 -15 32 -12 17 4 16 5 -3 6 -13 0 -23 4 -23 9 0 4 90 8 200 9 110
0 200 -2 200 -6 0 -17 -27 -31 -59 -31 -37 0 -101 -20 -101 -31 0 -4 7 -9 15
-13 10 -4 13 -14 9 -36 -5 -23 -3 -30 10 -30 10 0 16 9 16 25 0 20 40 75 55
75 11 0 4 -29 -7 -33 -7 -2 -10 -8 -6 -12 8 -9 38 19 38 35 0 7 7 10 15 6 10
-3 15 1 15 14 0 10 5 22 10 25 20 13 -2 25 -48 27 l-47 1 45 7 c41 6 43 7 19
14 -20 6 -25 12 -22 27 3 11 14 24 24 30 16 8 19 6 19 -11 0 -11 -4 -20 -10
-20 -21 0 -9 -16 20 -27 17 -6 29 -17 28 -25 -2 -10 10 -12 48 -10 42 2 53 -1
58 -15 5 -13 9 -14 15 -5 6 10 57 14 194 17 102 2 191 6 197 10 5 3 10 1 10
-6 0 -7 3 -9 7 -5 5 4 0 14 -10 21 -12 8 -14 15 -8 20 6 3 11 17 11 31 0 14 4
22 10 19 6 -3 10 -19 10 -36 0 -31 11 -37 29 -15 19 22 70 28 94 10 21 -15 19
-16 -30 -10 -53 7 -60 3 -44 -23 7 -11 36 -14 133 -13 222 1 238 2 238 10 0 4
-20 7 -45 7 -25 0 -44 4 -42 10 1 6 23 8 50 7 26 -2 47 -1 47 3 0 4 -8 23 -17
43 -17 36 -17 36 -25 12 -6 -22 -7 -21 -5 7 2 22 -2 34 -12 38 -9 3 -17 1 -19
-4 -8 -25 -22 -8 -22 27 0 20 -3 107 -6 193 -6 154 -6 157 -30 168 -33 15 -45
14 -38 -2 3 -9 -2 -13 -13 -12 -31 4 -83 26 -83 36 0 13 14 11 28 -3 6 -6 14
-9 18 -5 9 9 -5 27 -22 27 -8 0 -38 16 -66 35 l-52 34 -11 -22 c-8 -14 -8 -26
-2 -34 6 -9 5 -14 -4 -17 -65 -20 -100 -10 -97 28 2 22 5 23 32 13 24 -8 31
-7 42 7 10 15 9 21 -7 37 -10 10 -24 20 -30 22 -6 1 -24 15 -40 31 -23 22 -35
27 -57 22 -17 -4 -22 -3 -14 2 10 7 8 13 -11 25 -13 8 -30 22 -38 29 -8 8 -41
34 -74 58 -72 53 -179 158 -264 260 -34 41 -71 85 -82 96 -10 12 -19 26 -19
32 0 5 -7 15 -16 22 -12 11 -15 11 -12 0 2 -8 -10 -18 -27 -23 -16 -5 -43 -16
-59 -25 -28 -14 -30 -14 -47 6 -18 23 -44 29 -54 12 -3 -5 -19 -10 -35 -10
-16 0 -40 -5 -54 -11 -32 -15 -53 0 -58 39 -2 19 -10 28 -25 30 -13 2 -23 -1
-23 -7 0 -6 -9 -11 -21 -11 -17 0 -20 5 -17 37 3 44 35 60 45 24 3 -12 12 -21
20 -21 10 0 13 6 9 16 -3 8 -2 12 4 9 18 -11 31 5 20 24 -6 13 -17 17 -35 14
-25 -5 -35 10 -14 22 6 4 8 13 5 21 -3 8 -1 14 4 14 5 0 13 18 16 40 4 22 11
43 15 46 12 7 11 44 -1 44 -5 0 -10 7 -10 15 0 21 -13 19 -28 -6 -11 -18 -11
-24 2 -38 21 -23 5 -51 -18 -31 -25 20 -33 2 -13 -31 16 -29 16 -31 -2 -51
l-19 -20 -17 26 c-18 27 -39 34 -50 16 -11 -18 15 -50 40 -50 28 0 34 -17 10
-26 -10 -4 -13 -13 -9 -26 3 -10 0 -25 -6 -33 -16 -19 -50 -19 -50 0 0 19 -28
8 -35 -13 -2 -10 -14 -23 -26 -30 -19 -12 -20 -11 -19 10 4 50 1 61 -15 48
-18 -15 -45 -6 -45 15 0 8 -6 15 -14 15 -8 0 -13 -8 -12 -17 1 -13 -9 -20 -34
-24 -19 -4 -30 -7 -25 -8 6 -1 2 -6 -9 -12 -23 -14 -47 8 -52 47 -1 15 -8 30
-15 34 -6 5 -22 28 -34 51 -12 24 -33 63 -46 86 -23 40 -21 69 3 45 7 -7 21
-12 31 -12 10 0 21 -9 24 -20 7 -28 19 -25 52 13 24 26 32 30 42 20 17 -17 49
-16 49 1 0 15 -22 27 -59 31 -14 2 -29 11 -34 20 -5 10 -18 26 -29 37 -14 14
-17 23 -9 27 6 4 -28 8 -75 8 -48 1 -89 5 -93 10 -3 5 -26 9 -51 10 -97 1
-185 12 -188 22 -2 6 -21 11 -42 11 -22 0 -40 5 -43 13 -3 9 -7 9 -20 -2 -11
-9 -17 -10 -17 -2 0 6 -9 11 -20 11 -12 0 -20 7 -21 18 0 14 -2 14 -9 -3 -8
-19 -9 -19 -9 2 -1 33 -21 39 -22 6 -1 -28 -1 -28 -10 5 -5 17 -12 32 -14 32
-3 0 -5 -45 -5 -100 0 -98 1 -101 25 -112 28 -13 30 -44 2 -42 -17 2 -19 -2
-19 -36 0 -34 1 -34 27 -6 14 15 25 37 25 49 0 29 15 51 29 43 6 -4 11 -17 11
-29 0 -42 12 -67 31 -67 24 0 24 19 2 58 -17 29 -17 31 1 51 13 14 31 21 57
21 34 0 38 -3 36 -22 -2 -19 4 -24 31 -26 17 -2 32 -8 32 -13 0 -6 5 -7 10 -4
6 4 10 -5 10 -19 0 -19 5 -26 19 -26 11 0 23 5 26 10 11 18 35 11 35 -10 0
-17 7 -20 40 -20 22 0 40 5 40 11 0 5 5 7 11 3 8 -5 8 -8 0 -14 -9 -5 -7 -16
6 -41 10 -19 21 -35 26 -37 4 -2 7 -12 7 -23 0 -10 6 -19 14 -19 8 0 18 -10
22 -22 3 -13 12 -30 19 -38 6 -8 20 -35 29 -59 14 -36 15 -46 4 -52 -11 -7
-11 -12 0 -29 11 -19 10 -20 -20 -20 -43 0 -69 16 -49 29 8 5 20 7 28 4 18 -7
17 34 -1 53 -8 7 -12 24 -10 36 2 13 1 17 -2 8 -4 -8 -13 -21 -21 -28 -11 -11
-13 -11 -13 4 0 22 -46 64 -69 64 -10 0 -24 -7 -31 -16 -19 -21 -75 -15 -74 9
1 9 -5 17 -13 17 -8 0 -12 -4 -8 -9 3 -5 1 -12 -5 -16 -18 -11 -10 -25 15 -25
18 0 25 -5 25 -18 0 -33 -13 -33 -42 0 -30 33 -36 63 -15 71 9 4 9 6 0 6 -7 1
-13 6 -13 11 0 6 6 10 13 8 7 -2 14 2 15 7 1 6 -10 10 -25 10 -24 0 -28 -4
-28 -29 -1 -34 -20 -46 -29 -18 -6 17 -10 18 -32 8 -15 -6 -27 -22 -31 -38 -3
-15 -9 -25 -14 -22 -5 3 -9 0 -9 -6 0 -6 -5 -8 -10 -5 -15 10 -12 35 5 35 8 0
15 6 15 14 0 9 -8 12 -25 8 -14 -2 -25 -11 -25 -18 0 -8 -9 -14 -20 -14 -11 0
-20 5 -20 10 0 6 4 10 9 10 4 0 6 11 3 25 -4 22 -1 25 23 25 17 0 25 4 22 13
-2 6 -16 11 -30 10 -17 -1 -27 4 -30 15 -4 13 -5 11 -6 -4 0 -12 -7 -24 -15
-27 -7 -3 -17 -18 -21 -34 -10 -43 -23 -53 -51 -42 -33 12 -53 12 -34 -1 13
-8 13 -11 1 -19 -7 -5 -10 -14 -7 -20 5 -7 -3 -11 -23 -11 -23 0 -29 4 -25 15
4 8 10 15 15 15 5 0 9 7 9 15 0 11 -14 15 -57 17 -32 1 -69 2 -83 3 -14 1 -29
0 -34 -3 -9 -5 -574 -2 -616 3 -14 2 -112 4 -217 4 l-193 1 0 49 c0 31 -5 53
-15 61 -19 16 -19 39 0 46 11 4 15 21 15 55 0 56 -31 109 -63 109 -13 0 -17 5
-13 16 3 9 6 31 6 50 0 32 2 34 35 34 l35 0 0 148 c0 81 -3 164 -7 185 -5 34
-8 38 -29 33 -17 -5 -27 -1 -36 14 -15 23 -76 28 -96 8 -7 -7 -13 -9 -13 -5
-1 4 -3 12 -4 17 -1 6 -3 14 -4 19 0 5 -22 9 -47 9 -45 0 -90 25 -78 43 3 5
-15 9 -40 9 l-46 0 0 -343 c0 -189 -3 -392 -7 -450 l-6 -107 -632 0 -632 0 -6
133 c-4 72 -7 363 -7 645 l-1 513 83 -3 c112 -4 258 2 233 10 -32 11 -65 36
-65 49 0 9 -22 13 -80 13 l-80 0 0 30 c0 28 -2 30 -40 30 -33 0 -40 -3 -40
-20 0 -11 -5 -20 -11 -20 -6 0 -9 18 -8 45 3 48 -16 80 -60 96 -13 5 -21 12
-17 16 7 7 -43 63 -56 63 -4 0 -8 -13 -8 -30 0 -16 -4 -30 -10 -30 -5 0 -10
18 -10 40 0 29 -4 40 -15 40 -11 0 -15 12 -15 45 0 33 -4 45 -15 45 -8 0 -15
-9 -15 -20 0 -24 -8 -25 -30 -5 -9 8 -25 16 -37 18 -30 4 -94 63 -87 80 4 11
-7 16 -40 21 -26 4 -59 18 -75 32 -16 13 -34 24 -40 24 -8 0 -11 -747 -11
-2745z m8845 1088 c14 -8 36 -8 70 -2 36 7 51 6 57 -3 4 -7 3 -15 -3 -17 -6
-2 3 -12 20 -22 27 -17 30 -21 19 -38 -10 -16 -9 -25 2 -45 12 -23 11 -28 -5
-46 -23 -26 -29 -25 -59 5 -29 28 -66 33 -66 9 0 -13 3 -14 14 -5 11 9 15 8
20 -5 11 -28 6 -54 -9 -54 -8 0 -15 9 -15 20 0 11 -5 20 -11 20 -6 0 -9 -6 -6
-14 12 -31 -53 -51 -70 -21 -12 20 -78 25 -78 5 0 -18 -29 -32 -50 -24 -9 4
-16 -3 -21 -20 -3 -14 -10 -23 -15 -20 -5 3 -9 -2 -9 -10 0 -9 -7 -16 -15 -16
-22 0 -18 22 10 61 13 19 29 45 35 58 9 19 13 21 26 11 13 -12 14 -8 8 30 -7
40 -6 43 14 38 13 -4 19 -2 16 6 -9 23 15 66 36 66 13 0 20 7 20 18 0 10 2 21
5 24 8 7 38 3 60 -9z m-7014 -1178 c-1 -346 -4 -632 -7 -635 -5 -4 -320 -4
-974 2 -132 1 -188 4 -145 8 52 4 62 7 40 11 -21 4 -14 6 28 8 l57 1 0 40 0
40 59 0 c43 0 60 4 65 15 7 19 30 19 45 1 6 -7 30 -13 54 -13 34 0 38 1 19 8
-27 10 -40 38 -22 49 20 13 0 32 -26 26 -26 -7 -64 8 -64 24 0 5 8 7 18 3 15
-6 15 -3 -3 18 -11 13 -26 28 -33 32 -17 11 -48 75 -56 117 -4 25 -3 31 4 20
5 -8 10 -22 10 -31 0 -9 16 -41 36 -70 33 -50 84 -91 142 -112 12 -5 22 -13
22 -18 0 -5 33 -9 73 -9 92 0 174 27 225 73 20 18 24 19 33 7 8 -12 9 -10 4 7
-3 12 -1 24 5 28 16 10 60 102 60 125 0 12 4 18 10 15 7 -4 9 2 4 18 -5 23 -3
26 28 29 41 4 42 21 2 28 -20 4 -28 11 -26 22 1 9 -2 19 -8 23 -5 3 -10 14
-10 23 0 31 -41 96 -90 143 -95 92 -238 114 -353 54 -30 -15 -58 -23 -71 -20
-16 5 -18 4 -6 -4 12 -8 9 -16 -19 -45 -21 -22 -43 -62 -58 -103 -21 -63 -23
-65 -17 -23 3 25 8 54 10 65 5 17 3 18 -6 5 -10 -12 -11 -11 -7 8 6 28 -19 30
-28 2 -4 -11 -20 -27 -36 -35 -26 -14 -29 -14 -29 0 0 22 -17 19 -30 -6 -9
-15 -15 -18 -24 -10 -7 6 -16 7 -21 3 -4 -4 -4 4 0 17 5 16 3 26 -6 32 -23 14
-29 10 -29 -19 0 -27 -1 -28 -60 -29 l-60 -1 0 109 c0 60 3 109 7 109 3 0 15
-7 25 -17 21 -19 31 -14 22 11 -5 13 -25 20 -54 18 -5 0 -5 64 1 238 1 52 1
100 0 105 -2 6 -3 27 -2 47 l1 37 108 3 c59 2 345 3 636 3 l530 0 -3 -630z
m1690 618 c5 -148 5 -1243 0 -1252 -9 -13 -87 -14 -896 -12 l-380 1 1 168 c2
383 1 551 -3 812 -2 151 -1 280 1 286 4 10 150 13 640 14 603 1 636 0 637 -17z
m7033 -273 c-1 -157 -1 -361 -2 -455 0 -93 0 -250 1 -347 2 -169 1 -177 -18
-182 -11 -3 -298 -6 -637 -6 l-618 0 -1 388 c-1 213 -1 470 0 572 0 102 1 216
1 253 l0 68 638 -3 637 -3 -1 -285z m1627 281 l57 -1 7 -37 c4 -24 3 -39 -4
-41 -8 -3 -8 -9 0 -24 7 -12 8 -41 4 -72 -3 -29 -6 -123 -6 -209 0 -149 -1
-157 -20 -157 -10 0 -19 -2 -19 -4 0 -2 -3 -11 -6 -20 -5 -12 1 -16 22 -17 16
0 23 -3 17 -6 -8 -2 -13 -22 -13 -44 0 -32 -3 -39 -20 -39 -17 0 -20 7 -20 45
0 25 -2 45 -5 45 -3 0 -15 -9 -26 -19 -20 -18 -20 -19 -2 -30 17 -11 17 -11 0
-25 -15 -11 -24 -12 -43 -4 -18 8 -31 8 -49 0 -14 -6 -32 -9 -40 -6 -12 5 -15
-2 -16 -32 -1 -28 -3 -32 -6 -14 -3 14 -9 29 -14 34 -5 6 -10 19 -10 30 -1 12
-5 3 -9 -19 -5 -22 -6 -51 -3 -65 4 -20 2 -22 -6 -10 -9 13 -11 11 -11 -7 0
-23 -30 -83 -42 -83 -4 0 -5 -7 -1 -16 4 -10 8 -12 12 -5 4 6 7 -6 8 -27 0
-20 -2 -31 -4 -24 -3 6 -10 9 -16 5 -7 -4 -22 -9 -35 -11 -21 -2 -21 -1 -10
18 12 19 14 19 26 3 6 -9 12 -14 12 -11 0 4 3 14 7 24 4 11 3 15 -5 10 -6 -3
-14 -1 -18 5 -5 8 -3 9 6 4 8 -5 11 -3 8 6 -3 8 2 30 12 49 9 19 24 62 34 95
9 33 21 67 25 75 14 29 2 135 -25 210 -23 65 -37 84 -96 143 -70 68 -110 89
-131 68 -6 -6 -22 -11 -35 -11 -18 0 -23 5 -20 22 3 19 -2 22 -39 23 -39 1
-43 -1 -43 -22 0 -18 -6 -23 -24 -23 -14 0 -27 4 -31 9 -3 6 -24 9 -46 8 -23
-1 -36 -3 -30 -5 15 -5 14 -22 -2 -22 -20 0 -112 -103 -135 -154 -45 -94 -50
-219 -15 -324 8 -24 12 -46 9 -50 -3 -3 -6 0 -6 6 0 6 -7 9 -15 6 -12 -5 -15
4 -15 46 0 46 -2 51 -15 40 -13 -11 -15 -7 -17 26 -1 37 -1 37 -5 7 -2 -18
-10 -33 -16 -33 -7 0 -6 -4 3 -10 12 -7 13 -16 2 -55 -17 -64 -17 -65 29 -65
22 0 38 4 34 9 -3 5 -1 12 5 16 5 3 10 0 10 -7 0 -10 2 -10 9 0 6 10 11 5 20
-19 6 -18 14 -30 17 -26 3 3 1 14 -5 25 -26 49 -44 122 -45 182 -1 64 0 65 26
68 26 3 27 4 13 26 -12 18 -13 29 -4 55 10 28 13 30 24 15 9 -13 14 -14 20 -4
6 9 4 11 -4 5 -9 -5 -12 -1 -9 15 3 19 19 31 80 62 10 4 27 8 39 8 25 0 79
-52 79 -75 0 -14 3 -15 15 -5 12 10 18 10 30 0 12 -10 18 -10 30 0 12 10 19
10 27 2 9 -9 15 -5 24 17 7 16 24 37 38 46 22 15 32 15 76 4 50 -13 61 -22 38
-33 -7 -3 -4 -4 8 -1 30 7 70 -49 56 -79 -11 -25 1 -48 31 -59 34 -13 18 -135
-31 -236 l-27 -56 -3 139 c-2 95 1 143 9 152 7 8 8 18 4 22 -4 4 -10 1 -12 -5
-5 -15 -43 -17 -43 -3 0 6 4 10 9 10 6 0 9 9 8 20 -2 28 -27 25 -27 -3 0 -13
-2 -26 -5 -29 -8 -8 -11 -428 -3 -428 4 0 12 8 17 18 10 16 10 16 11 -1 0 -16
7 -18 43 -16 65 4 107 0 107 -10 0 -16 -57 -23 -97 -12 -21 6 -39 7 -41 2 -2
-5 -11 -7 -22 -4 -15 4 -20 -3 -25 -41 -7 -43 -12 -49 -45 -48 -3 0 -14 3 -26
6 -13 4 -29 -1 -43 -13 -13 -11 -36 -23 -52 -26 -16 -4 -29 -11 -29 -16 0 -6
8 -6 19 1 29 15 50 12 28 -4 -18 -14 -18 -14 0 -20 10 -3 0 -3 -22 0 -22 3
-42 8 -45 11 -7 6 39 43 54 43 6 0 35 15 64 34 49 33 73 39 35 10 -17 -13 -17
-13 0 -14 9 0 18 3 18 8 8 52 7 64 -3 54 -30 -30 -33 -10 -30 227 l3 240 -36
-2 c-33 -2 -35 -4 -35 -38 0 -35 -2 -37 -35 -41 -20 -2 -38 -2 -40 1 -3 2 -5
22 -5 43 0 34 -2 37 -22 34 -13 -3 -29 -5 -36 -5 -10 -1 -12 -50 -10 -236 2
-166 0 -235 -8 -235 -6 0 -23 11 -38 25 -14 13 -26 20 -26 16 0 -5 21 -28 47
-52 27 -24 47 -48 45 -52 -1 -5 2 -6 7 -3 5 3 22 -1 37 -9 30 -15 27 -18 -16
-16 -23 1 -23 1 -6 -10 28 -17 56 -48 56 -62 0 -7 15 -12 40 -13 33 -1 40 2
40 17 0 16 8 19 53 19 32 0 47 4 39 9 -10 6 -8 9 10 13 48 8 58 0 58 -52 l0
-49 58 -4 c31 -2 10 -3 -48 -2 -172 3 -188 -10 -20 -15 118 -4 69 -7 -200 -9
-195 -2 -421 -4 -503 -5 l-147 -1 -5 30 c-4 23 0 697 4 713 1 2 5 1 10 -2 13
-9 18 15 10 49 l-7 30 -1 -32 c0 -18 -5 -33 -10 -33 -5 0 -10 79 -11 183 0
100 -2 189 -2 197 -1 8 0 42 0 75 l2 61 578 -2 c317 -1 602 -3 633 -3z
m-10881 -591 c15 -9 7 -18 -198 -230 -69 -71 -74 -74 -87 -56 -13 17 -11 23
22 60 84 95 225 236 236 236 7 0 19 -4 27 -10z m78 -96 c1 -13 -40 -63 -126
-153 -121 -128 -128 -134 -151 -122 l-24 13 24 22 c13 13 76 77 139 144 63 67
119 121 125 119 5 -2 11 -12 13 -23z m10267 -254 l0 -125 -35 0 -35 0 -3 114
c-1 63 0 121 2 128 3 8 18 12 38 10 l33 -3 0 -124z m-7000 60 c3 -6 -4 -14
-17 -19 -22 -9 -22 -9 12 -25 l35 -17 -40 6 c-22 3 -44 2 -50 -2 -16 -12 -17
-35 -3 -44 7 -5 -29 -7 -81 -4 -59 3 -102 10 -116 19 -21 14 -23 14 -28 -6 -4
-14 -11 -19 -21 -15 -10 4 -16 1 -16 -8 0 -8 -5 -15 -11 -15 -6 0 -8 9 -4 23
4 13 3 17 -2 10 -5 -7 -27 -10 -58 -8 -49 3 -121 -10 -139 -27 -6 -4 -18 -8
-28 -8 -41 0 -128 -76 -128 -111 0 -39 104 -115 168 -124 16 -2 44 -11 61 -20
17 -8 37 -15 44 -14 6 1 19 0 27 -4 8 -3 29 -8 45 -10 17 -3 41 -8 55 -12 64
-18 349 -62 480 -75 47 -4 96 -11 110 -14 14 -4 64 -8 110 -9 78 -2 85 -4 85
-22 0 -14 -6 -19 -20 -18 -11 2 -56 5 -100 8 -44 3 -100 8 -125 10 -25 2 -52
4 -60 5 -8 1 -33 5 -55 10 -63 14 -215 33 -270 34 -27 1 -52 3 -55 6 -7 8
-121 30 -153 30 -14 0 -29 5 -32 10 -3 6 -17 10 -30 10 -28 0 -118 22 -125 30
-3 4 -32 12 -65 19 -63 14 -105 30 -105 40 0 4 -15 14 -32 24 -49 27 -71 61
-63 98 4 17 14 33 23 36 10 4 29 17 44 29 15 12 41 25 58 29 35 8 40 32 8 38
-16 3 -13 5 10 6 20 0 31 -3 27 -9 -3 -5 0 -10 7 -10 7 0 19 9 26 20 10 17 23
20 81 20 38 0 84 7 104 15 23 9 54 13 87 10 40 -4 50 -2 50 10 0 8 7 15 15 15
9 0 15 -9 15 -25 0 -21 4 -24 33 -23 66 1 127 10 127 18 0 5 -16 6 -37 3 -25
-4 -34 -3 -29 5 3 6 -3 14 -15 17 -16 5 -18 10 -9 18 8 9 14 8 21 -5 7 -13 22
-17 60 -17 42 1 47 4 37 16 -9 11 -9 16 3 24 19 12 46 11 54 -1z m4055 -95 c7
-8 9 -15 4 -15 -5 0 23 -16 61 -35 115 -56 141 -90 109 -145 -22 -36 -126 -94
-154 -85 -13 4 -22 1 -26 -8 -3 -8 -22 -19 -42 -25 -20 -5 -63 -17 -94 -26
-33 -10 -68 -14 -84 -10 -17 4 -25 3 -21 -3 6 -9 -44 -21 -123 -29 -14 -2 -47
-8 -75 -14 -27 -5 -84 -15 -125 -21 -41 -6 -82 -13 -90 -16 -8 -3 -44 -7 -80
-8 -110 -5 -270 -24 -290 -35 -31 -16 -68 -12 -80 10 -10 18 -7 20 27 21 21 1
56 3 78 5 22 2 58 4 80 5 22 0 70 7 107 15 38 8 83 12 102 10 36 -4 106 8 143
26 11 6 25 8 30 5 4 -3 29 -1 54 3 24 5 64 11 88 14 24 2 48 9 54 15 6 6 27
11 46 11 33 0 162 31 206 49 11 5 40 15 63 22 43 12 142 94 142 116 0 17 -56
70 -92 86 -18 9 -61 26 -95 39 -35 13 -63 26 -63 31 0 4 29 7 64 7 44 0 67 -5
76 -15z m-5180 -929 c0 -220 -3 -306 -11 -306 -8 0 -8 -4 1 -15 8 -9 11 -47 8
-115 -2 -85 -5 -101 -20 -106 -11 -3 -18 -15 -18 -30 0 -13 -9 -33 -20 -44
-16 -16 -20 -17 -20 -5 0 8 5 15 12 15 9 0 9 3 0 12 -18 18 -14 35 9 41 20 5
21 10 15 59 -3 29 -9 63 -12 75 -4 16 0 23 15 28 24 7 28 30 8 38 -8 3 -20 1
-28 -4 -8 -5 -10 -9 -6 -9 5 0 1 -10 -7 -22 -20 -28 -20 -58 -1 -58 17 0 18
-14 5 -45 -8 -18 -9 -17 -9 8 -1 15 -5 27 -11 27 -5 0 -10 -2 -10 -4 0 -2 -3
-11 -6 -19 -3 -8 2 -22 11 -31 15 -15 15 -16 -8 -16 -43 0 -57 10 -57 41 0 16
5 29 13 29 8 0 7 4 -3 10 -13 8 -12 10 3 10 16 0 22 12 18 34 -3 15 20 35 35
29 9 -3 14 2 14 16 0 14 -6 21 -20 21 -11 0 -20 -7 -20 -15 0 -8 -7 -15 -16
-15 -8 0 -12 -5 -9 -10 3 -6 -10 -25 -29 -44 -20 -18 -36 -38 -36 -43 0 -6 -7
-16 -15 -23 -12 -10 -15 -10 -15 1 0 11 -2 11 -10 -1 -9 -13 -11 -13 -19 0 -6
8 -14 11 -18 6 -4 -5 -2 -11 5 -13 14 -5 16 -44 3 -58 -5 -6 -11 -26 -15 -45
-5 -32 -3 -37 24 -53 45 -27 38 -44 -25 -62 -30 -9 -59 -23 -64 -32 -12 -22
-174 -60 -267 -62 -45 -1 -112 5 -154 15 -41 9 -89 19 -107 21 -23 4 -33 11
-35 27 -2 13 -10 21 -23 22 -11 0 -37 8 -59 17 -21 9 -42 17 -47 17 -22 0 -6
19 20 25 16 3 37 15 46 25 16 18 16 22 2 43 -9 15 -14 43 -13 75 1 29 -3 53
-8 55 -6 2 -11 15 -11 28 -1 14 -5 32 -10 39 -15 24 -14 150 0 150 16 0 26
-48 11 -53 -7 -2 -7 -12 2 -32 10 -22 10 -30 1 -36 -8 -5 -4 -15 14 -33 18
-17 21 -26 12 -26 -23 0 -18 -13 14 -35 16 -10 27 -23 25 -27 -3 -5 -10 -6
-15 -3 -5 4 -9 1 -9 -5 0 -6 11 -16 25 -22 25 -11 34 -28 15 -28 -20 0 -9 -18
15 -24 14 -4 25 -13 25 -21 0 -9 14 -16 38 -20 20 -4 48 -10 63 -15 16 -5 34
-3 50 6 21 11 24 18 21 48 -2 20 -8 36 -13 36 -5 0 -9 8 -9 18 0 10 -12 30
-27 45 -72 67 -145 169 -137 191 3 7 -2 30 -10 51 -18 43 -19 48 -7 41 12 -8
21 32 12 56 -7 20 -9 20 -34 -8 -24 -26 -32 -48 -28 -80 1 -6 -14 -10 -36 -9
-43 2 -63 -9 -63 -35 0 -31 -27 -45 -56 -30 l-25 14 31 29 c17 15 28 33 24 39
-4 6 7 9 27 8 54 -3 69 -1 69 11 0 5 -5 7 -10 4 -13 -8 -9 77 4 86 5 4 -1 27
-13 50 -24 50 -59 94 -67 87 -8 -9 18 -58 32 -58 14 0 30 -38 20 -47 -3 -4 -6
1 -6 10 0 23 -16 21 -42 -3 -24 -22 -38 -26 -38 -9 0 5 -5 7 -10 4 -6 -3 -13
1 -16 9 -3 9 -15 16 -25 16 -15 0 -19 7 -19 40 0 22 -4 40 -9 40 -6 0 -12 17
-14 38 -2 20 -3 15 -1 -13 2 -27 6 -67 10 -87 4 -22 3 -38 -3 -38 -5 0 -15 35
-22 78 -18 108 -21 117 -16 42 2 -36 0 -74 -4 -85 -11 -26 -20 98 -18 222 1
56 -2 94 -8 95 -35 7 265 13 733 16 l542 3 0 -305z m7001 295 l36 -1 -8 -47
c-4 -27 -7 -139 -8 -251 0 -112 -3 -207 -6 -212 -11 -18 -43 14 -49 49 -6 40
2 81 15 81 5 0 9 -10 10 -22 0 -23 0 -23 11 -2 6 14 7 56 0 125 -6 70 -10 87
-11 52 -1 -69 -9 -87 -28 -71 -13 10 -19 8 -39 -15 -29 -34 -56 -34 -71 0 -18
38 -16 53 7 53 16 0 20 7 20 38 0 46 -28 70 -60 50 -31 -20 -25 -128 7 -128
12 0 14 -7 9 -31 -3 -17 -6 -44 -6 -60 0 -19 -5 -29 -15 -29 -11 0 -15 11 -15
40 0 22 -4 40 -10 40 -5 0 -10 7 -10 15 0 8 -9 15 -20 15 -18 0 -20 -7 -20
-61 0 -38 -4 -58 -10 -54 -6 3 -14 -4 -19 -17 l-10 -23 0 23 c-1 12 4 22 9 22
6 0 10 9 10 20 0 11 -6 20 -14 20 -7 0 -21 12 -31 26 -16 24 -16 26 4 31 12 3
21 14 21 24 0 23 -9 24 -38 3 -16 -11 -22 -12 -22 -3 0 7 -6 4 -14 -6 -13 -18
-17 -18 -40 -6 -14 8 -26 21 -26 28 0 8 -4 11 -10 8 -5 -3 -10 -1 -10 5 0 6
-16 18 -35 26 -19 8 -35 19 -35 25 0 5 -4 7 -10 4 -5 -3 -10 4 -11 17 -1 23
-1 23 -9 -2 -8 -25 -8 -25 -15 7 -12 52 -49 50 -50 -2 0 -14 -7 -20 -24 -21
-13 -1 -26 -5 -30 -10 -3 -5 -18 -15 -33 -21 -17 -8 -28 -20 -28 -32 0 -11 -4
-22 -9 -25 -5 -4 -6 4 -3 16 5 22 5 22 -11 6 -9 -9 -17 -25 -17 -35 0 -11 -9
-29 -20 -41 -21 -23 -27 -37 -10 -27 19 12 69 -5 63 -21 -3 -8 -13 -14 -22
-14 -14 0 -14 2 -1 10 30 19 -18 22 -50 3 -30 -17 -32 -17 -41 0 -13 22 -32
11 -24 -14 4 -10 2 -19 -4 -19 -5 0 -12 -9 -16 -19 -8 -25 -44 -34 -70 -17
-17 11 -24 12 -39 1 -10 -8 -15 -18 -11 -24 4 -7 -5 -11 -24 -11 -16 0 -33 5
-37 12 -4 7 -3 8 4 4 6 -3 16 2 21 13 15 26 14 28 -10 34 -15 4 -23 0 -26 -14
-7 -25 -39 -25 -46 0 -5 19 -17 20 -66 5 -24 -8 17 -43 49 -42 15 1 41 -9 58
-21 17 -11 37 -21 45 -21 9 0 24 -3 34 -7 14 -6 10 -10 -22 -19 -22 -7 -32
-13 -22 -13 21 -1 23 -31 2 -31 -8 0 -15 -5 -15 -10 0 -6 -11 -3 -25 7 -13 10
-23 24 -20 30 2 7 -5 17 -15 23 -15 8 -20 8 -20 -2 0 -7 -9 -19 -20 -26 -16
-10 -24 -10 -40 0 -20 13 -20 23 -20 300 l1 287 57 3 c49 3 1081 2 1183 -1z
m-8697 -49 c-1 -26 -3 -60 -4 -77 -3 -28 -3 -27 -10 10 l-7 40 -2 -52 c-1 -57
-20 -74 -23 -20 l-1 32 -5 -35 c-4 -29 -6 -32 -12 -15 -7 17 -9 17 -9 3 -1
-21 -21 -23 -40 -5 -11 10 -13 9 -8 -5 3 -9 0 -19 -9 -22 -10 -4 -14 2 -14 19
0 16 -6 25 -15 25 -9 0 -15 9 -15 25 0 16 -6 25 -15 25 -19 0 -19 -21 0 -46
20 -27 19 -34 -10 -34 -20 0 -25 5 -25 25 0 23 -4 25 -40 25 -29 0 -40 4 -40
15 0 8 -4 15 -10 15 -5 0 -10 -16 -10 -36 0 -36 22 -70 40 -59 10 6 60 -22 60
-35 0 -17 -32 -19 -55 -4 -22 14 -24 14 -30 -5 -10 -34 -38 -24 -59 20 -17 38
-19 39 -36 24 -22 -20 -43 -11 -35 15 8 25 -12 35 -38 17 -32 -20 -74 -27 -74
-11 0 7 5 12 11 11 6 -1 12 8 14 21 3 20 0 22 -21 17 -14 -4 -28 -2 -31 4 -4
6 1 11 11 11 10 0 25 5 33 10 10 6 3 8 -22 3 -21 -3 -38 -3 -38 0 0 16 14 37
24 37 7 0 23 11 35 24 21 23 22 25 4 29 -10 3 106 5 257 6 l275 1 -1 -48z
m9270 33 c-4 -9 0 -15 10 -15 9 0 16 7 16 15 0 11 11 15 43 14 l42 -2 -40 -7
-40 -7 38 -2 c27 -1 37 -5 37 -17 0 -13 -11 -15 -62 -14 -85 3 -98 2 -98 -10
0 -7 6 -7 20 0 24 13 60 -3 60 -25 0 -11 12 -15 41 -15 23 0 47 -7 55 -15 19
-19 29 -19 48 1 21 21 20 41 -2 48 -22 7 -49 52 -38 63 4 4 12 1 17 -7 8 -11
12 -12 16 -2 8 19 23 14 23 -8 0 -17 7 -20 40 -20 38 0 40 -2 40 -30 0 -16 -4
-30 -9 -30 -6 0 -11 -17 -13 -37 -3 -33 -7 -38 -30 -41 -18 -2 -28 1 -28 9 0
10 -3 10 -12 1 -19 -19 -42 -14 -68 13 -29 31 -38 31 -52 0 -12 -27 -47 -43
-57 -27 -3 5 -16 12 -27 16 -16 5 -23 18 -28 53 -9 67 -8 95 4 88 6 -4 18 -4
28 0 14 5 14 7 2 15 -12 8 -10 10 7 10 16 0 21 -4 17 -15z m540 -161 c9 -8 16
-21 17 -27 0 -7 4 -3 9 8 7 17 9 14 9 -13 1 -21 5 -31 12 -27 6 4 8 13 5 21
-8 21 11 27 23 7 9 -16 10 -16 11 -2 0 21 37 31 63 18 14 -8 18 -18 13 -39 -6
-35 11 -43 70 -34 47 7 64 -7 39 -32 -9 -10 -13 -25 -10 -38 6 -19 5 -20 -8
-3 -19 23 -30 22 -22 -4 5 -15 2 -22 -14 -26 -11 -3 -18 -10 -15 -15 4 -6 -2
-7 -16 -3 -15 5 -20 4 -16 -4 4 -6 13 -11 20 -11 17 0 91 -89 113 -136 10 -22
22 -42 26 -45 12 -9 15 -124 5 -187 -16 -99 -88 -203 -170 -247 -21 -11 -38
-22 -38 -25 0 -3 -8 -6 -17 -7 -52 -3 -99 -19 -113 -36 -14 -16 -20 -18 -38
-8 -12 6 -22 15 -22 19 0 7 -29 13 -77 16 -11 0 -19 5 -15 10 3 5 -5 7 -16 4
-12 -4 -20 -2 -17 2 3 4 -14 19 -37 33 -79 46 -158 162 -158 232 0 20 -4 34
-9 30 -5 -3 -13 0 -17 6 -4 7 -3 9 3 6 6 -4 13 23 17 70 4 53 14 92 31 126 14
26 23 53 19 59 -5 7 -2 9 9 5 16 -6 44 27 39 46 -1 5 2 6 7 3 5 -4 22 5 36 18
l27 25 -25 6 c-14 4 -34 16 -44 28 -17 19 -17 20 0 14 9 -4 17 -2 17 3 0 13
-27 13 -67 -2 -18 -6 -36 -9 -39 -5 -12 12 8 22 49 26 4 1 5 12 1 26 -5 22 -3
25 19 25 14 0 28 -4 31 -9 3 -5 17 -8 31 -8 13 0 22 3 19 8 -3 5 0 9 5 9 6 0
10 16 8 38 -3 37 -2 38 30 36 20 0 41 -9 54 -22 21 -23 39 -29 39 -12 0 6 7
10 15 10 8 0 15 5 15 11 0 5 -4 7 -10 4 -5 -3 -10 -2 -10 4 0 13 30 30 52 31
9 0 24 -7 32 -16z m-10444 -16 c0 -10 2 -10 9 0 10 17 62 5 55 -13 -3 -7 2
-15 10 -18 22 -9 21 -63 -1 -76 -10 -6 -13 -11 -8 -11 6 0 -1 -9 -15 -20 l-25
-20 33 0 c22 0 32 -4 30 -12 -3 -9 -37 -14 -111 -16 l-106 -3 3 -107 c2 -59 4
-109 5 -111 1 -3 26 29 57 70 l55 74 -30 3 c-49 5 -38 29 14 34 81 6 81 3 -24
-139 -54 -73 -101 -130 -104 -126 -10 10 -8 306 2 322 7 11 27 14 73 13 55 -2
61 -1 46 11 -10 8 -18 17 -18 21 0 4 -7 14 -15 22 -8 9 -15 26 -15 40 0 14 7
27 15 30 8 4 15 12 15 19 0 13 15 23 38 24 6 1 12 -5 12 -11z m180 -362 c0
-321 -15 -394 -95 -472 -60 -58 -98 -57 -159 2 -59 57 -86 124 -86 212 0 85
-16 56 183 324 77 103 144 185 149 182 4 -3 8 -114 8 -248z m8690 -77 c0 -105
-3 -128 -22 -165 -12 -24 -25 -44 -30 -44 -4 0 -8 62 -8 138 0 127 2 140 22
165 12 15 25 27 30 27 4 0 8 -55 8 -121z m-110 -51 c-1 -42 -19 -80 -36 -77
-25 4 -34 -4 -33 -28 0 -16 3 -22 6 -15 7 17 23 15 23 -3 0 -8 5 -15 10 -15 6
0 10 8 10 18 0 15 2 15 11 2 8 -11 9 -5 5 24 -5 37 -4 39 11 23 15 -14 15 -22
5 -50 -7 -18 -12 -50 -12 -70 0 -20 -4 -39 -10 -42 -5 -3 -10 -37 -10 -76 0
-39 -4 -69 -10 -69 -11 0 -11 2 -12 83 -1 32 -5 60 -10 63 -4 3 -8 25 -8 49 0
24 -4 47 -10 50 -15 9 -12 52 3 67 8 7 12 20 9 30 -4 16 35 76 51 77 4 1 7
-18 7 -41z"/>
<path d="M2705 3006 c-27 -13 -69 -40 -92 -60 -40 -35 -103 -118 -103 -135 0
-4 -8 -23 -17 -42 -26 -50 -25 -216 1 -284 95 -245 388 -349 608 -215 59 36
131 114 159 175 55 117 54 270 -2 376 -41 76 -117 152 -185 184 -69 32 -74 32
-67 -9 3 -20 -1 -44 -10 -62 -15 -28 -15 -29 25 -51 22 -13 49 -23 59 -23 12
0 19 -7 19 -19 0 -10 9 -30 20 -44 27 -34 50 -101 50 -143 0 -35 8 -42 27 -23
15 15 74 7 86 -12 20 -31 3 -44 -51 -41 -37 3 -52 8 -55 20 -4 13 -5 12 -6 -4
-4 -79 -82 -189 -157 -220 -36 -15 -47 -30 -14 -19 20 6 28 -9 10 -20 -16 -10
-12 -25 5 -19 9 4 15 0 15 -10 0 -9 -5 -16 -10 -16 -6 0 -8 -11 -4 -25 10 -42
-12 -28 -30 18 -9 23 -16 48 -16 54 0 7 -28 11 -77 11 -98 0 -139 17 -209 87
-32 32 -54 47 -54 38 0 -9 -6 -13 -14 -10 -8 3 -29 -1 -46 -10 -21 -10 -35
-12 -41 -6 -7 7 1 15 21 23 17 7 35 21 41 32 9 16 13 17 27 6 14 -11 15 -11 8
7 -36 87 -28 195 19 266 14 21 25 48 25 59 0 13 7 20 20 20 16 0 100 37 100
44 0 2 -7 17 -16 35 -10 20 -14 44 -10 62 7 35 4 35 -59 5z"/>
<path d="M2820 2508 l0 -138 30 0 30 0 0 139 0 140 -30 -1 -30 -1 0 -139z"/>
<path d="M9870 3078 c-50 -31 -99 -48 -145 -48 -50 0 -133 25 -157 47 -10 9
-21 13 -25 10 -18 -18 11 -294 38 -365 5 -13 7 -28 3 -33 -3 -5 -1 -9 4 -9 5
0 14 -19 21 -42 17 -54 69 -161 106 -218 37 -56 64 -88 141 -169 l61 -64 64
64 c71 72 146 172 180 242 12 25 27 43 32 40 6 -3 7 -1 3 6 -4 6 2 31 13 54
62 129 117 497 75 497 -7 0 -14 -4 -16 -8 -6 -14 -124 -52 -161 -52 -36 0
-137 34 -147 50 -13 21 -56 20 -90 -2z m313 -108 c23 -10 52 -28 65 -39 l23
-20 -15 -88 c-17 -94 -74 -273 -88 -273 -6 0 -14 125 -10 161 1 3 -11 6 -26 5
l-27 -1 3 -130 c2 -91 6 -125 13 -115 25 36 0 -11 -36 -67 -22 -35 -44 -63
-49 -63 -6 0 -5 5 2 12 8 8 12 64 12 184 l0 172 -25 4 -25 5 0 -199 c0 -142 3
-197 11 -192 20 12 -8 -29 -40 -60 l-31 -30 0 203 0 203 26 20 c22 18 25 26
19 56 -8 43 -29 66 -55 59 -11 -3 -20 0 -20 5 0 6 -6 5 -15 -2 -11 -9 -15 -9
-15 -1 0 22 -18 1 -25 -29 -4 -16 -12 -28 -18 -27 -15 3 -38 45 -44 82 -5 31
-31 57 -47 47 -6 -3 0 -10 12 -15 27 -12 31 -56 5 -59 -34 -3 -57 3 -65 15 -5
8 -8 4 -8 -10 0 -27 -24 -30 -40 -5 -9 13 -9 10 -4 -18 8 -43 13 -52 25 -45
10 7 13 -123 3 -149 -5 -13 -11 -8 -25 19 -11 19 -19 44 -19 55 0 11 -3 20 -8
20 -10 0 -33 100 -25 113 3 5 1 7 -4 4 -10 -6 -14 13 -27 134 -2 21 1 25 16
21 10 -2 18 0 18 5 0 6 19 19 42 29 56 25 179 26 227 1 42 -21 54 -21 91 -2
16 8 38 16 49 18 11 2 23 5 25 8 11 11 109 -3 149 -21z m-400 -426 c-1 -167 0
-177 20 -201 l22 -25 5 199 c5 196 5 198 23 166 10 -18 23 -33 30 -33 9 0 11
-47 9 -200 -1 -110 -5 -200 -7 -200 -11 0 -101 101 -130 146 -33 51 -33 51
-34 187 l-1 137 32 0 33 0 -2 -176z"/>
<path d="M10045 2940 c-3 -11 -3 -25 0 -31 4 -6 -3 -21 -15 -34 -31 -32 -24
-75 15 -95 17 -8 32 -16 35 -18 2 -2 -2 -8 -10 -13 -11 -8 -6 -9 20 -5 61 11
76 53 38 102 -13 15 -28 39 -35 53 -6 15 -12 20 -12 14 -2 -24 -21 -13 -21 11
0 19 6 26 28 29 26 4 25 4 -5 6 -24 1 -33 -4 -38 -19z"/>
<path d="M11361 2750 c-1 -8 -2 -77 -2 -152 0 -83 -3 -138 -9 -138 -20 0 -9
-31 26 -80 20 -28 39 -48 42 -46 3 3 5 96 6 206 1 161 -2 201 -13 205 -7 3
-19 1 -26 -5 -10 -8 -15 -6 -18 7 -3 13 -5 14 -6 3z"/>
<path d="M3152 1163 c0 -54 5 -104 10 -110 6 -7 8 -20 4 -28 -3 -8 -1 -15 4
-15 21 0 9 -43 -27 -100 -21 -33 -44 -59 -51 -60 -8 0 -16 -8 -19 -18 -2 -11
-20 -25 -39 -32 -19 -8 -34 -17 -34 -22 0 -4 -4 -8 -10 -8 -17 0 -11 18 12 40
12 11 28 18 35 16 7 -3 13 1 13 10 0 8 11 19 25 24 14 5 25 16 25 25 0 8 4 15
9 15 5 0 18 16 30 35 16 28 19 45 14 80 -6 44 -7 45 -24 29 -11 -10 -19 -22
-19 -29 0 -6 -16 -25 -35 -42 -19 -17 -35 -34 -35 -38 0 -3 -11 -17 -25 -31
-14 -14 -25 -31 -25 -38 0 -8 -7 -19 -15 -26 -24 -20 -19 -75 8 -87 31 -14
137 12 155 38 7 11 20 19 28 19 11 0 13 6 9 19 -4 14 1 23 16 31 17 10 19 14
8 21 -11 8 -8 14 14 30 30 23 35 39 11 39 -10 0 -6 8 13 25 22 19 25 27 15 33
-12 8 -11 15 2 41 14 27 15 31 2 31 -12 0 -14 5 -6 26 15 37 12 46 -9 39 -17
-5 -21 0 -27 30 -6 35 -38 85 -54 85 -4 0 -8 -44 -8 -97z"/>
<path d="M11376 1205 c-176 -170 -115 -452 118 -549 20 -8 36 -12 36 -8 0 4
-54 79 -120 167 -66 88 -120 164 -120 171 0 6 12 21 26 35 14 13 42 45 61 72
31 42 39 47 73 47 37 0 38 -1 50 -47 7 -28 11 -109 10 -196 -1 -147 -1 -147
27 -182 l28 -35 5 82 c6 81 6 82 19 51 13 -33 31 -44 31 -20 1 6 7 26 14 42
12 27 13 21 8 -57 -5 -99 3 -109 43 -51 24 35 25 45 25 166 0 76 -4 126 -9
122 -5 -3 -2 23 8 57 l18 63 38 0 c36 0 43 -5 102 -77 l64 -76 -126 -167 c-69
-91 -125 -168 -125 -170 0 -8 66 19 102 41 93 59 149 154 156 268 5 93 -22
167 -86 237 -46 49 -48 50 -79 39 -34 -12 -42 -25 -20 -33 6 -3 -5 -6 -25 -6
-21 -1 -38 3 -38 7 0 11 -35 52 -44 52 -3 0 -5 -46 -3 -102 3 -97 -11 -189
-33 -211 -18 -20 -40 88 -40 202 l-1 116 -29 -32 c-33 -37 -82 -47 -74 -15 3
11 -4 21 -21 29 -23 10 -29 7 -69 -32z"/>
<path d="M11780 1078 c0 -12 -8 -18 -25 -18 -25 0 -25 -1 -25 -85 0 -69 3 -85
15 -85 10 0 15 11 15 35 0 19 5 35 10 35 6 0 10 -23 10 -51 l0 -52 30 38 c22
28 30 48 30 79 0 52 -9 86 -23 86 -5 0 -16 8 -23 18 -13 16 -13 16 -14 0z"/>
<path d="M1250 1189 c-71 -96 -81 -115 -72 -130 17 -26 16 -26 -25 -48 -41
-21 -73 -65 -73 -101 0 -41 32 -90 71 -111 22 -11 39 -25 39 -32 1 -7 6 -5 14
6 7 9 17 17 23 17 5 0 18 7 29 15 18 14 17 15 -10 9 -16 -4 -31 -2 -35 4 -11
18 0 130 12 129 40 -1 67 4 67 13 0 6 -18 10 -40 10 -32 0 -40 4 -40 19 0 14
6 17 28 15 l27 -4 -27 12 c-46 20 -39 69 22 153 28 39 55 72 60 73 6 2 10 -15
10 -37 0 -23 5 -41 10 -41 6 0 10 30 10 70 0 39 -4 70 -9 70 -4 0 -46 -50 -91
-111z"/>
<path d="M2831 4712 c-69 -35 -92 -103 -57 -170 31 -60 112 -80 173 -42 40 24
54 50 55 100 0 47 -21 84 -65 110 -40 25 -62 25 -106 2z"/>
<path d="M10007 4665 c36 -19 47 -47 27 -72 -13 -16 -14 -16 -8 9 4 20 1 29
-14 37 -40 22 -59 14 -65 -26 -3 -21 -8 -45 -11 -54 -6 -12 0 -16 28 -17 23
-1 35 3 33 10 -1 7 7 14 17 16 15 3 18 0 13 -18 -5 -19 -2 -21 19 -17 13 2 24
1 24 -2 0 -3 13 -6 29 -7 24 -1 30 4 34 25 5 25 5 25 -10 6 -15 -20 -15 -20
-9 0 8 29 -41 52 -60 27 -10 -14 -10 -9 -1 25 13 50 7 60 -43 69 l-35 5 32
-16z"/>
<path d="M11611 4653 c3 -20 -2 -25 -16 -13 -19 16 -52 4 -59 -23 -10 -37 -7
-57 9 -57 8 0 15 -6 15 -14 0 -32 58 -34 92 -3 33 31 40 62 20 86 -18 20 -64
38 -61 24z"/>
<path d="M11306 4558 c-5 -15 -17 -231 -17 -299 1 -48 18 -97 69 -189 l31 -54
-6 42 c-5 40 -4 42 20 42 51 0 144 -131 135 -192 -5 -34 -23 -32 -67 8 -41 36
-53 36 -26 0 59 -78 175 -71 303 17 45 31 122 57 168 57 12 0 13 4 3 21 -10
20 -17 21 -73 15 -44 -4 -76 -16 -116 -40 -78 -47 -100 -58 -137 -67 -28 -6
-33 -4 -33 12 0 11 8 22 18 25 9 3 58 25 107 50 71 35 102 44 148 46 31 1 57
5 57 9 0 3 -8 13 -18 22 -36 33 -121 16 -222 -43 -72 -43 -120 -59 -120 -41 0
6 8 15 18 18 9 4 34 17 55 30 83 52 112 64 165 71 65 8 79 28 27 38 -44 8
-119 -10 -165 -40 -77 -50 -121 -68 -136 -55 -13 10 -8 16 28 34 24 12 69 36
101 53 32 17 80 34 108 38 38 5 49 10 45 21 -4 8 -6 17 -6 19 0 8 -79 4 -104
-6 -14 -5 -32 -7 -41 -4 -17 7 -55 103 -55 139 0 14 -4 25 -10 25 -5 0 -10 -3
-10 -7 0 -19 23 -92 41 -130 22 -50 23 -53 8 -53 -6 0 -25 -11 -43 -25 -18
-14 -38 -25 -43 -25 -20 0 -53 70 -59 126 -5 36 -10 52 -17 45 -12 -12 9 -103
35 -147 19 -33 19 -33 -3 -44 -15 -9 -28 -9 -45 -1 -45 20 -57 145 -16 171 16
11 16 11 0 6 -10 -3 -18 -2 -18 3 0 11 60 93 79 109 14 11 14 11 -1 6 -9 -3
-24 -17 -33 -30 -8 -13 -19 -24 -24 -24 -21 0 -93 161 -84 187 2 6 -1 14 -7
18 -5 3 -12 0 -14 -7z"/>
<path d="M3060 4501 c-42 -31 -89 -41 -184 -41 -76 0 -100 4 -146 26 l-54 25
-43 -48 c-23 -26 -42 -54 -43 -60 0 -16 283 -583 291 -583 4 0 72 132 152 292
l145 293 -36 44 c-20 25 -41 50 -47 57 -8 10 -15 9 -35 -5z m-339 -38 c49 -25
219 -30 292 -9 66 19 72 20 60 4 -11 -14 -43 -77 -158 -308 -43 -85 -81 -159
-85 -164 -5 -5 -56 87 -115 204 -106 211 -106 213 -87 234 10 11 25 29 33 38
18 22 19 22 60 1z m350 -133 c22 -13 25 -30 4 -30 -9 0 -12 -6 -8 -15 3 -9 -2
-21 -10 -28 -9 -7 -18 -23 -20 -37 -3 -23 -33 -80 -55 -105 -5 -6 -12 -23 -16
-38 -4 -18 -11 -25 -19 -20 -9 5 -9 3 1 -9 10 -12 10 -18 -2 -27 -17 -15 -52
-6 -59 13 -6 16 23 86 35 86 4 0 8 8 8 18 0 10 9 28 19 39 11 12 17 23 14 27
-10 9 19 37 34 32 15 -6 18 10 3 19 -19 11 1 25 28 20 l27 -4 -25 18 c-20 16
-22 21 -11 35 16 19 25 20 52 6z"/>
<path d="M2750 4355 c-10 -12 -9 -20 3 -39 14 -21 14 -26 2 -36 -19 -16 -19
-34 0 -50 13 -10 19 -10 35 5 18 17 21 17 46 1 14 -10 27 -16 28 -14 1 2 8 11
15 21 12 15 11 20 -4 37 -17 19 -17 21 0 40 15 16 15 22 5 35 -16 19 -29 19
-51 -1 -17 -15 -19 -15 -34 0 -20 20 -29 20 -45 1z"/>
<path d="M9850 4421 c-72 -24 -148 -90 -174 -153 -11 -26 -14 -28 -21 -12 -14
37 -16 72 -3 85 24 25 49 69 39 69 -5 0 -13 -9 -16 -20 -3 -11 -10 -20 -15
-20 -4 0 -18 -25 -30 -55 -12 -30 -26 -55 -31 -55 -5 0 -6 -18 -3 -41 5 -29 3
-43 -7 -49 -11 -7 -10 -12 4 -28 23 -25 34 -82 16 -82 -7 0 5 -15 26 -34 27
-24 36 -39 31 -51 -9 -23 11 -45 40 -45 13 0 24 -4 24 -8 0 -13 61 -82 82 -93
33 -18 19 7 -32 57 -27 27 -50 54 -50 61 0 23 19 23 44 0 14 -13 43 -29 66
-36 22 -6 40 -15 40 -19 0 -4 9 -8 20 -8 14 0 19 5 15 15 -4 10 1 9 15 -4 20
-18 22 -19 31 -2 6 9 17 17 25 17 8 0 37 11 64 24 46 22 70 20 55 -4 -10 -16
41 -12 55 5 7 9 8 15 2 15 -29 0 21 69 61 83 9 3 9 10 -1 26 -12 20 -10 27 13
57 21 28 24 38 15 49 -7 8 -10 28 -8 45 3 16 1 30 -4 30 -4 0 -8 6 -8 14 0 7
-9 16 -20 19 -15 4 -20 0 -20 -14 0 -29 -16 -22 -31 13 -19 46 -76 106 -123
130 -44 22 -145 33 -186 19z m50 -61 c7 -47 40 -51 40 -5 0 44 9 48 61 30 111
-39 172 -166 139 -286 -20 -72 -122 -159 -188 -159 -38 0 -21 22 29 36 111 33
170 161 123 272 -15 37 -61 92 -76 92 -17 0 -7 -51 17 -86 54 -79 27 -182 -59
-223 -52 -26 -79 -26 -133 -1 -43 19 -83 69 -83 103 0 24 21 22 27 -3 11 -40
23 -18 23 41 0 50 -3 60 -15 56 -34 -14 -24 18 19 59 25 24 46 53 46 64 l0 20
-39 -19 c-84 -44 -130 -141 -107 -229 23 -85 60 -123 140 -147 45 -13 60 -35
24 -35 -27 0 -95 31 -123 57 -48 43 -68 84 -73 153 -4 56 -1 76 17 112 27 56
78 106 127 123 50 18 58 15 64 -25z"/>
<path d="M9907 4294 c-4 -4 -7 -29 -7 -56 0 -36 -4 -48 -15 -48 -11 0 -15 12
-15 47 0 32 -3 44 -10 37 -7 -7 -10 -52 -8 -115 l3 -103 33 -10 c95 -27 183
72 149 167 l-11 32 -6 -30 c-8 -46 -25 -36 -28 18 -5 79 -21 53 -24 -40 -2
-57 -7 -88 -15 -90 -9 -3 -13 22 -15 93 -3 90 -11 117 -31 98z"/>
<path d="M1328 4370 c12 -5 22 -14 22 -19 0 -15 -18 -23 -32 -15 -17 11 -118
12 -118 2 0 -13 -28 -9 -33 5 -3 9 -8 8 -22 -3 -15 -12 -19 -12 -23 -2 -3 10
-12 6 -33 -13 -17 -17 -34 -25 -43 -22 -9 4 -16 2 -16 -4 0 -6 -4 -7 -10 -4
-5 3 -10 1 -10 -5 0 -7 -8 -9 -19 -5 -15 5 -24 -1 -36 -24 -12 -25 -13 -31 -2
-31 7 0 19 6 25 12 10 10 14 10 21 0 4 -7 15 -10 24 -6 10 4 17 1 17 -6 0 -9
4 -9 13 -2 6 5 32 9 57 7 25 -1 53 2 64 7 13 7 21 6 27 -3 7 -11 14 -11 41 -1
21 8 34 9 36 2 2 -6 15 -1 29 10 14 11 29 18 32 15 3 -4 -1 -10 -9 -15 -12 -8
-11 -10 6 -10 12 0 27 7 34 15 14 17 40 20 40 5 0 -7 8 -7 22 1 12 6 33 15 47
20 18 5 20 8 8 8 -10 1 -25 8 -34 17 -11 11 -19 12 -26 5 -16 -16 -37 -13 -31
4 4 10 0 15 -15 15 -28 0 -27 20 2 21 17 0 15 3 -13 14 -19 7 -42 14 -50 14
-8 0 -5 -4 8 -9z"/>
<path d="M7510 3592 c-8 -3 -21 -11 -28 -19 -11 -11 -11 -14 2 -19 9 -3 13
-10 10 -15 -3 -5 -10 -7 -15 -4 -5 4 -17 -1 -26 -10 -11 -12 -26 -15 -47 -11
-17 3 -47 8 -66 11 -19 3 -45 7 -56 10 -14 3 -24 -1 -28 -10 -3 -8 -14 -15
-24 -15 -10 0 -23 -5 -30 -12 -9 -9 -12 -9 -12 -1 0 7 5 15 10 18 6 3 10 11
10 17 0 6 -8 4 -18 -5 -23 -21 -43 -22 -36 -2 4 8 2 15 -4 15 -5 0 -13 -7 -16
-16 -4 -11 -13 -14 -30 -10 -14 3 -28 1 -31 -4 -5 -8 -11 -7 -21 1 -11 9 -14
8 -14 -5 0 -9 -7 -16 -15 -16 -8 0 -15 6 -15 14 0 11 -30 33 -34 24 -1 -2 -7
-13 -13 -25 -20 -35 -15 -52 15 -59 48 -10 48 -12 0 -13 -46 -1 -46 -1 -62
-48 -20 -63 -46 -187 -46 -224 0 -19 5 -29 15 -29 20 0 19 -17 -2 -29 -10 -6
-12 -11 -5 -11 6 0 11 -10 11 -22 -1 -18 -2 -19 -6 -5 -2 9 -8 15 -13 12 -21
-13 2 -34 31 -28 33 6 38 -3 12 -23 -16 -11 -12 -13 28 -12 37 0 53 7 77 29
17 16 34 29 37 29 4 0 30 22 58 49 29 27 70 63 92 79 22 16 84 72 139 125 77
74 99 101 99 122 0 16 3 22 7 15 5 -8 18 2 39 29 25 31 31 46 25 63 -6 20 -5
21 10 9 14 -12 16 -11 13 7 -4 27 -8 31 -27 24z"/>
<path d="M5280 3538 c0 -7 13 -28 29 -47 27 -33 32 -35 85 -32 35 1 56 -2 56
-8 0 -6 5 -11 10 -11 6 0 10 6 10 13 0 10 26 13 108 14 59 0 122 1 140 3 21 2
37 -2 42 -11 7 -11 10 -10 16 4 5 14 14 17 38 13 24 -5 27 -4 11 3 -17 8 -18
10 -2 10 18 1 25 41 7 41 -6 0 -9 -5 -7 -12 3 -16 -87 -28 -126 -17 -26 7 -27
6 -21 -14 6 -19 5 -20 -10 -8 -12 10 -19 11 -30 2 -20 -17 -71 -10 -71 9 0 9
10 15 23 16 15 1 21 -3 18 -12 -3 -9 0 -11 12 -6 28 10 39 25 34 44 -5 19 -52
26 -52 8 0 -5 -6 -10 -14 -10 -7 0 -26 -7 -42 -14 -30 -16 -44 -13 -44 10 0 8
-5 12 -11 8 -6 -3 -9 -17 -6 -30 4 -21 1 -24 -27 -23 -23 1 -26 3 -8 6 12 2
22 11 22 20 0 13 -3 13 -15 3 -12 -10 -15 -10 -15 3 0 17 -48 21 -67 5 -19
-15 -86 0 -79 18 3 8 1 14 -4 14 -6 0 -10 -6 -10 -12z"/>
<path d="M5350 3437 c0 -15 155 -176 212 -219 20 -16 41 -28 47 -28 6 0 11 -4
11 -10 0 -5 28 -29 61 -52 116 -81 136 -91 126 -64 -3 8 3 22 14 32 23 21 24
16 4 -22 -14 -27 -14 -30 6 -38 17 -8 25 -5 41 15 l20 24 -6 -37 c-4 -31 -1
-41 17 -53 38 -27 47 -20 42 33 -12 127 -51 343 -70 388 l-14 34 -86 -2 c-47
-1 -88 -5 -91 -10 -3 -4 -24 -8 -47 -7 -23 0 -36 3 -29 6 6 2 12 9 12 14 0 14
-52 11 -99 -6 -30 -10 -49 -12 -68 -4 -14 5 -34 7 -44 4 -10 -3 -27 -1 -39 5
-15 8 -20 8 -20 -3z"/>
<path d="M6914 2289 c-11 -18 7 -28 32 -19 17 7 31 7 42 0 15 -9 14 -10 -5
-16 -13 -3 -23 -11 -23 -16 0 -5 -10 -8 -22 -6 -15 2 -24 -3 -26 -14 -2 -13 3
-18 17 -18 11 0 24 8 30 18 8 14 13 15 30 5 12 -7 40 -13 63 -13 24 0 50 -5
58 -11 11 -8 1 -9 -38 -6 -29 2 -55 1 -57 -3 -7 -11 83 -32 106 -25 11 4 19 2
19 -4 0 -6 12 -11 28 -10 l27 1 -27 11 c-32 13 -35 22 -10 31 9 3 23 9 30 12
8 4 12 -6 12 -35 0 -23 2 -41 4 -41 3 0 22 18 44 40 21 22 49 40 60 40 16 0
26 11 37 37 9 21 21 40 27 44 6 4 -93 7 -221 7 -127 0 -234 -4 -237 -9z"/>
<path d="M6115 403 c-53 -57 -43 -108 27 -141 91 -42 89 -83 -3 -92 -42 -4
-55 -9 -57 -24 -7 -37 49 -47 116 -21 37 15 72 58 72 88 0 19 -57 69 -98 86
-34 14 -39 29 -22 62 14 24 50 24 82 0 13 -11 36 -23 50 -26 34 -9 88 19 88
45 0 27 -12 31 -48 13 -31 -15 -34 -14 -70 11 -52 36 -103 35 -137 -1z"/>
<path d="M6512 308 c-12 -15 -52 -153 -52 -180 0 -24 27 -23 35 1 3 11 12 25
20 31 12 10 17 7 25 -14 10 -27 35 -44 47 -32 3 3 0 24 -7 46 -13 38 -12 42 8
56 21 15 30 44 14 44 -10 0 -55 -31 -64 -44 -14 -21 -17 0 -6 42 12 47 1 74
-20 50z"/>
<path d="M6656 238 c-37 -32 -44 -80 -17 -107 47 -47 140 -7 141 61 0 60 -76
88 -124 46z"/>
</g>
</svg>
