<?xml version="1.0" standalone="no"?>
<!DOCTYPE svg PUBLIC "-//W3C//DTD SVG 20010904//EN"
 "http://www.w3.org/TR/2001/REC-SVG-20010904/DTD/svg10.dtd">
<svg version="1.0" xmlns="http://www.w3.org/2000/svg"
 width="799.000000pt" height="460.000000pt" viewBox="0 0 799.000000 460.000000"
 preserveAspectRatio="xMidYMid meet">

<g transform="translate(0.000000,460.000000) scale(0.100000,-0.100000)"
fill="#000000" stroke="none">
<path d="M0 2300 l0 -2300 3995 0 3995 0 0 2300 0 2300 -3995 0 -3995 0 0
-2300z m3720 2175 c100 -8 397 -73 599 -131 39 -12 184 -84 206 -103 11 -10
36 -24 55 -31 19 -7 42 -19 50 -25 8 -6 42 -24 75 -40 153 -73 403 -268 570
-445 79 -84 196 -224 220 -262 6 -9 30 -47 55 -85 61 -93 62 -94 119 -209 27
-55 57 -125 66 -155 9 -30 28 -77 41 -104 13 -28 24 -54 24 -59 0 -5 -16 -6
-35 -3 -19 3 -37 1 -40 -4 -4 -5 -1 -9 4 -9 14 0 14 -57 1 -65 -5 -3 -10 -1
-10 4 0 20 -17 11 -31 -16 -8 -16 -18 -31 -22 -34 -14 -11 4 -37 23 -32 10 3
21 0 24 -6 4 -6 14 -11 23 -11 9 0 32 -12 50 -26 26 -20 32 -29 23 -38 -8 -8
-13 -7 -19 3 -5 7 -13 11 -18 8 -5 -3 -22 1 -37 9 -16 7 -37 14 -48 14 -22 0
-105 74 -113 101 -4 11 -10 19 -15 19 -12 0 -60 49 -100 104 -19 26 -48 63
-65 81 -16 18 -42 55 -57 81 -14 27 -32 50 -39 53 -7 2 -2 -10 10 -27 36 -51
54 -102 41 -117 -13 -16 -4 -58 10 -50 5 3 6 13 3 21 -5 13 -3 14 13 6 27 -15
46 -36 112 -127 92 -126 151 -177 220 -192 96 -21 175 -74 156 -104 -3 -6 -17
-8 -30 -5 -18 5 -24 2 -24 -11 0 -15 -2 -16 -15 -2 -10 10 -28 13 -50 11 -29
-3 -35 -8 -35 -28 0 -29 -16 -40 -28 -18 -6 11 -9 5 -9 -23 -1 -87 -2 -93 -23
-93 -11 0 -20 5 -20 10 0 6 -6 10 -14 10 -16 0 -81 35 -108 58 -16 13 -18 12
-27 -10 -7 -19 -20 -27 -48 -33 -21 -4 -54 -14 -73 -22 -19 -9 -43 -15 -52
-14 -13 2 -18 -5 -18 -23 0 -17 -6 -26 -15 -26 -9 0 -18 -8 -22 -17 -3 -10
-14 -27 -24 -38 -10 -12 -54 -91 -98 -178 -93 -182 -157 -262 -203 -253 -17 3
-31 0 -40 -11 -11 -14 -10 -15 12 -8 l25 7 -22 -19 c-28 -25 -33 -73 -10 -95
18 -19 25 -94 7 -83 -5 3 -10 15 -10 26 0 10 -6 19 -14 19 -8 0 -18 9 -21 20
-7 23 -25 26 -43 8 -18 -18 -15 -25 13 -32 25 -6 25 -36 0 -36 -7 0 -15 -3
-18 -7 -2 -5 -2 -3 -1 4 2 7 -1 15 -7 19 -6 3 -14 17 -20 31 -6 18 -15 24 -31
21 -30 -4 -37 -38 -9 -38 25 0 28 -25 4 -34 -10 -4 -20 -1 -25 9 -11 19 -34
19 -42 0 -7 -19 -21 -19 -40 0 -9 10 -24 13 -38 10 -19 -5 -31 2 -56 29 -18
20 -30 36 -28 36 15 0 36 -14 36 -24 0 -21 57 -7 63 15 6 23 -2 24 -30 4 -18
-13 -22 -13 -33 0 -7 8 -25 15 -40 15 -15 0 -34 7 -41 16 -18 21 -93 54 -125
54 -28 0 -32 16 -6 23 13 4 12 5 -5 6 -12 0 -23 -3 -25 -9 -2 -6 -20 -7 -48
-1 -43 8 -44 8 -17 16 43 12 27 27 -42 41 -35 7 -68 17 -74 22 -7 5 -33 14
-58 20 -26 7 -54 14 -63 18 -12 5 -15 2 -9 -11 6 -17 4 -17 -25 1 -18 10 -44
29 -59 42 -16 13 -33 27 -38 30 -6 4 -35 36 -65 72 -30 36 -73 85 -96 109
l-42 44 -55 -28 c-70 -34 -118 -40 -191 -25 -51 10 -208 83 -246 114 -8 7 -27
17 -42 23 -28 13 -42 3 -67 -44 -20 -39 -91 -21 -125 32 -23 35 -16 40 30 19
22 -9 47 -18 57 -19 33 -4 16 14 -38 39 -30 14 -55 27 -55 30 0 24 30 59 66
76 49 22 142 27 209 9 84 -22 98 -23 112 -3 20 27 16 52 -13 79 -23 22 -37 25
-95 25 -65 0 -69 2 -83 28 -8 15 -30 43 -50 62 -49 48 -48 88 3 115 15 7 36
29 46 49 12 23 37 44 72 62 28 15 66 43 84 61 35 38 58 39 75 5 17 -35 20 -35
52 -12 43 32 64 23 82 -33 12 -38 21 -49 46 -57 18 -6 40 -20 49 -30 10 -11
28 -20 41 -20 26 0 149 -72 246 -145 71 -53 291 -272 418 -416 117 -132 236
-228 349 -279 46 -21 69 -25 148 -24 51 0 93 -3 93 -8 0 -4 5 -8 11 -8 8 0 8
4 0 14 -9 11 -6 18 16 35 94 72 146 142 201 272 22 52 43 105 47 119 4 14 11
30 15 35 3 6 14 31 24 57 17 46 17 47 -9 96 -15 28 -37 58 -51 66 -13 9 -23
20 -23 24 3 17 -2 29 -18 48 -33 36 -72 98 -67 103 12 12 110 -110 147 -181
39 -76 100 -161 76 -107 -10 23 -7 31 25 73 39 52 44 66 21 66 -8 0 -15 4 -15
9 0 16 -46 57 -59 53 -8 -3 -11 0 -7 7 4 6 1 11 -7 11 -20 0 -30 29 -16 47 7
8 19 11 28 8 14 -5 14 -4 0 7 -8 7 -18 21 -22 30 -12 32 -58 100 -65 94 -3 -4
4 -20 16 -36 24 -32 40 -90 26 -90 -5 0 -14 8 -19 19 -6 10 -23 37 -40 61 -52
74 -115 174 -127 203 -7 15 -18 27 -25 27 -7 0 -17 10 -24 21 -8 15 -8 19 0
15 16 -10 14 -1 -9 43 -10 21 -26 41 -33 44 -22 8 -52 2 -53 -11 -3 -24 -4
-26 -15 -15 -12 12 -49 6 -49 -8 0 -17 -30 -9 -42 11 -7 11 -17 20 -22 20 -5
0 -17 7 -27 16 -17 15 -20 14 -48 -6 -17 -12 -31 -17 -31 -12 0 6 7 12 15 16
17 6 20 51 5 61 -6 4 -10 -7 -10 -24 0 -17 -4 -31 -10 -31 -5 0 -10 5 -10 10
0 6 -12 8 -26 6 -27 -5 -64 23 -64 49 0 8 -4 15 -10 15 -5 0 -10 -6 -10 -14 0
-8 5 -18 10 -21 17 -10 11 -27 -7 -23 -10 2 -21 16 -24 33 l-7 30 -1 -27 c-1
-37 -18 -36 -26 2 -9 41 -25 48 -25 11 0 -16 -6 -31 -12 -34 -20 -6 -80 10
-90 25 -8 10 -11 10 -15 1 -7 -18 -63 -17 -63 1 0 9 7 12 20 9 31 -8 23 13
-10 27 -17 7 -32 11 -33 9 -1 -2 -7 -13 -13 -24 -13 -23 -88 -32 -135 -16 -16
5 -31 6 -34 1 -7 -12 -38 -6 -43 8 -2 7 1 12 6 12 8 0 28 16 82 63 13 11 18 8
38 -17 12 -16 22 -27 22 -22 0 18 -47 71 -60 69 -9 -2 -24 3 -35 12 -13 10
-15 14 -5 13 9 -2 16 6 18 21 3 18 0 22 -12 18 -12 -5 -16 0 -16 23 0 19 5 30
14 30 9 0 13 10 12 25 0 14 -4 25 -9 25 -4 0 -5 11 -2 23 5 20 3 23 -17 22
-21 -1 -23 -7 -26 -68 -2 -42 1 -67 8 -67 18 0 11 -29 -10 -40 -11 -6 -20 -19
-20 -29 0 -14 6 -17 25 -13 21 3 25 0 25 -18 0 -19 -4 -22 -33 -18 -30 3 -33
1 -29 -16 3 -12 1 -17 -6 -12 -16 10 -20 -27 -4 -46 17 -20 8 -40 -15 -31 -11
4 -14 3 -9 -5 4 -7 2 -12 -6 -12 -14 0 -58 -59 -58 -77 0 -6 7 -13 15 -17 8
-3 15 -10 15 -16 0 -5 -7 -10 -15 -10 -8 0 -15 5 -15 10 0 21 -29 8 -54 -24
-14 -19 -50 -55 -81 -81 -45 -39 -59 -46 -76 -39 -18 8 -12 16 56 83 41 41 75
78 75 83 0 17 -18 7 -66 -38 -27 -26 -68 -63 -92 -82 -23 -19 -40 -37 -37 -40
3 -3 0 -11 -6 -19 -9 -10 -6 -13 14 -13 32 0 37 -7 30 -43 -4 -18 -12 -27 -25
-27 -10 0 -30 -7 -43 -16 -46 -30 -62 7 -17 42 15 12 24 26 19 30 -4 4 -18 -3
-32 -16 -20 -19 -25 -20 -25 -7 0 9 -12 24 -27 34 -16 9 -36 26 -46 37 -18 21
-18 21 -6 -3 10 -21 9 -26 -7 -38 -26 -19 -45 -17 -37 5 3 9 3 14 -2 10 -4 -4
-14 0 -20 9 -11 14 -10 20 4 31 9 7 -8 1 -36 -14 -29 -15 -53 -33 -53 -39 0
-16 -58 -60 -87 -67 -13 -4 -23 -2 -23 3 0 6 -8 5 -20 -1 -17 -9 -22 -7 -29
14 -6 13 -15 27 -21 31 -7 4 -4 -7 5 -25 9 -17 15 -33 13 -34 -2 -1 -23 -10
-48 -20 -25 -10 -54 -22 -65 -27 -11 -5 -45 -18 -75 -29 -52 -19 -56 -19 -69
-3 -11 15 -13 15 -8 2 3 -9 1 -21 -4 -26 -7 -7 -2 -12 15 -15 14 -3 23 -1 20
3 -3 5 0 9 6 9 6 0 30 9 54 19 86 40 149 62 162 57 7 -3 15 0 18 7 3 8 5 8 5
1 1 -14 -40 -67 -46 -60 -3 3 2 13 11 22 9 9 15 19 12 22 -3 3 -15 -7 -26 -21
-12 -14 -26 -25 -33 -23 -7 1 -9 1 -4 -1 12 -7 8 -16 -18 -47 -25 -29 -26 -29
-148 -32 -121 -4 -121 -3 -79 12 23 9 40 20 37 24 -3 5 -18 5 -33 -1 -21 -8
-24 -8 -15 2 6 6 9 19 6 28 -4 12 -3 13 4 3 8 -10 15 -7 34 14 13 14 41 45 62
68 21 22 46 49 54 58 9 10 14 20 12 22 -6 6 -79 -63 -79 -74 0 -5 -6 -8 -12
-6 -7 1 -10 1 -6 -1 8 -5 -45 -63 -58 -63 -5 0 -4 4 3 8 8 5 9 12 2 22 -8 11
-12 12 -16 2 -2 -6 -10 -9 -16 -5 -7 4 -8 0 -4 -11 4 -10 3 -15 -4 -11 -6 4
-8 -2 -4 -17 9 -34 -37 -80 -68 -69 -12 5 -28 6 -36 3 -8 -3 -11 0 -7 6 4 6
20 9 36 7 17 -2 34 3 41 11 7 9 8 14 1 14 -6 0 -12 -5 -14 -12 -3 -8 -7 -6
-11 5 -3 9 1 23 10 32 14 14 17 14 30 -2 13 -17 13 -17 4 3 -9 18 -3 27 36 65
35 34 44 39 38 22 -11 -40 5 -25 27 25 30 63 31 70 16 52 -7 -8 -31 -28 -53
-45 -22 -16 -52 -44 -68 -61 l-28 -32 -39 26 c-22 14 -40 30 -40 34 0 5 -5 6
-10 3 -6 -4 -8 -10 -5 -15 3 -4 -2 -13 -10 -20 -12 -10 -15 -7 -19 12 -7 30
-3 78 7 78 4 0 7 -4 7 -10 0 -5 5 -10 12 -10 7 0 5 7 -4 18 -9 9 -16 28 -16
42 l1 26 86 -11 c47 -6 97 -17 109 -24 29 -15 44 -5 20 13 -10 7 -15 16 -11
19 3 4 -2 7 -13 7 -10 0 -57 4 -104 10 -195 22 -367 31 -565 31 -220 0 -332
-8 -484 -36 -88 -17 -91 -18 -90 -44 0 -26 0 -26 11 -3 11 22 38 31 38 11 0
-6 7 -3 16 6 15 14 17 14 30 -2 7 -10 14 -31 14 -46 0 -16 4 -26 9 -23 4 3 7
16 4 28 -2 13 1 29 6 37 8 12 12 11 27 -3 14 -15 15 -19 3 -27 -8 -5 -10 -9
-5 -9 6 0 2 -6 -8 -13 -9 -7 -19 -28 -22 -47 -3 -19 -9 -44 -14 -55 -4 -11
-11 -32 -14 -47 -5 -20 -13 -28 -28 -28 l-21 0 21 23 c26 27 28 37 8 37 -8 0
-18 10 -22 22 l-6 21 -14 -24 c-17 -30 -18 -47 -2 -31 35 35 38 -6 3 -45 -24
-27 -24 -27 -25 -5 0 12 -4 22 -9 22 -5 0 -16 -10 -24 -22 l-16 -23 0 22 c-1
28 -17 38 -29 17 -16 -29 -32 -6 -27 42 3 39 2 44 -10 34 -9 -8 -13 -21 -9
-36 5 -18 2 -24 -9 -24 -19 0 -31 -32 -22 -59 3 -11 1 -22 -4 -26 -7 -3 -8 0
-5 9 3 9 4 16 1 16 -9 0 -55 -152 -73 -245 -14 -67 -18 -136 -18 -270 0 -155
-1 -169 -9 -100 -11 110 0 338 23 443 26 122 79 278 117 346 9 16 11 26 4 22
-15 -10 -51 -81 -51 -101 0 -9 -4 -14 -9 -11 -5 3 -11 -11 -15 -32 -3 -20 -17
-64 -31 -97 -14 -33 -25 -70 -25 -82 0 -12 -5 -25 -11 -29 -6 -3 -8 -16 -5
-29 3 -12 0 -42 -7 -66 -8 -24 -12 -50 -9 -57 2 -7 -1 -26 -8 -43 -10 -23 -10
-32 1 -45 10 -13 10 -17 -1 -24 -7 -5 -11 -17 -7 -30 3 -12 1 -33 -5 -46 -8
-17 -8 -27 1 -37 8 -11 9 -33 2 -83 -6 -37 -8 -70 -6 -73 3 -2 5 1 5 7 0 7 5
12 11 12 8 0 9 -11 5 -32 -8 -40 -12 -44 -29 -29 -10 8 -15 35 -15 84 -1 49 2
66 8 52 8 -20 9 -19 9 1 1 12 -5 26 -12 32 -17 14 -15 149 4 297 17 125 81
347 117 403 8 12 12 25 8 29 -3 3 -6 1 -6 -5 0 -7 -4 -12 -10 -12 -5 0 -8 17
-7 38 1 25 -2 36 -10 34 -7 -1 -13 5 -13 14 0 8 -4 12 -10 9 -17 -10 -12 -48
5 -41 10 3 15 -1 15 -12 0 -11 -9 -18 -26 -19 -29 -1 -43 -17 -44 -48 0 -11
-7 -29 -15 -39 -11 -14 -12 -22 -4 -27 8 -4 5 -13 -9 -27 -12 -12 -26 -40 -32
-64 -6 -24 -15 -59 -20 -78 -36 -123 -53 -320 -46 -530 5 -167 -1 -172 -29
-19 -22 120 -24 191 -7 344 21 187 47 296 92 391 22 47 43 99 47 117 3 18 11
38 16 45 8 10 7 16 -3 22 -18 11 -20 8 -24 -22 -1 -13 -6 -30 -12 -38 -5 -8
-24 -44 -42 -80 -18 -36 -31 -54 -27 -40 3 14 9 42 12 63 3 21 10 40 14 43 5
3 9 15 9 27 1 24 44 113 54 110 18 -8 26 0 26 25 0 19 -3 23 -9 13 -13 -21
-23 4 -12 32 6 14 14 28 19 31 6 3 13 17 16 31 4 14 20 46 36 72 17 26 30 54
30 63 0 9 9 25 20 35 11 10 20 23 20 30 0 7 9 20 20 30 11 10 20 24 20 30 0 7
7 18 15 25 12 10 67 97 85 136 27 57 348 379 444 446 17 12 33 25 36 28 3 3
21 17 40 30 19 13 37 27 40 30 8 9 113 76 145 92 17 8 48 24 70 36 79 41 198
92 216 92 10 0 26 8 36 19 19 20 144 77 233 106 30 9 73 24 95 31 54 18 312
63 427 74 84 8 271 5 418 -5z m371 -1307 c0 -10 2 -10 6 0 7 17 23 15 23 -3 0
-8 -6 -15 -14 -15 -7 0 -19 7 -26 15 -9 10 -9 15 -1 15 6 0 11 -6 12 -12z
m-41 -39 c0 -5 -9 -9 -20 -9 -22 0 -27 16 -7 23 15 5 27 -1 27 -14z m-85 -50
c-10 -15 -25 -10 -19 6 4 8 10 12 15 9 5 -3 7 -10 4 -15z m935 6 c10 6 32 -29
24 -38 -3 -2 -14 -3 -24 0 -21 6 -33 29 -23 46 5 8 8 8 11 -1 2 -7 8 -10 12
-7z m-59 -48 c-1 -12 -15 -9 -19 4 -3 6 1 10 8 8 6 -3 11 -8 11 -12z m-518
-34 c-7 -2 -19 -2 -25 0 -7 3 -2 5 12 5 14 0 19 -2 13 -5z m70 -10 c-4 -11 -8
-13 -11 -5 -2 7 -8 10 -13 6 -5 -3 -9 0 -9 5 0 6 9 11 20 11 14 0 18 -5 13
-17z m535 -11 c2 -7 -6 -12 -17 -12 -12 0 -21 2 -21 4 0 2 -3 12 -6 20 -5 13
-2 15 17 8 13 -5 25 -14 27 -20z m-333 -14 c67 -20 103 -38 77 -38 -7 0 -12
-8 -12 -17 -1 -17 -1 -17 -11 0 -5 9 -16 17 -23 17 -8 0 -19 6 -25 14 -7 8
-20 14 -29 14 -25 -1 -115 24 -127 35 -15 14 68 0 150 -25z m-377 5 c2 -8 -6
-13 -22 -13 -17 0 -26 5 -26 16 0 19 41 16 48 -3z m-58 -8 c0 -9 -6 -12 -16
-8 -13 5 -13 7 -2 14 17 11 18 11 18 -6z m-89 -32 c-17 -7 -31 -18 -31 -23 0
-6 -10 -10 -23 -10 -12 0 -40 -9 -62 -20 -22 -11 -45 -20 -52 -20 -7 0 -13 -7
-13 -15 0 -9 -9 -15 -25 -15 -15 0 -25 6 -25 14 0 20 25 37 44 30 9 -3 16 -2
16 3 0 5 20 17 45 27 25 11 45 23 45 28 0 4 3 7 8 6 4 -1 24 2 44 6 24 5 35
12 31 20 -4 6 1 4 11 -4 17 -14 17 -15 -13 -27z m220 -24 c-9 -23 -10 -22 -10
11 -1 23 2 31 9 24 7 -7 7 -19 1 -35z m-21 12 c0 -10 -7 -21 -15 -25 -9 -3
-15 0 -15 9 0 17 -26 20 -33 5 -3 -6 -4 -5 -3 2 2 7 13 13 25 12 11 0 21 3 21
8 0 4 5 8 10 8 6 0 10 -9 10 -19z m114 3 c7 -19 -14 -29 -25 -13 -12 20 -11
26 6 26 8 0 16 -6 19 -13z m61 6 c3 -5 1 -10 -5 -10 -7 0 -10 -7 -6 -15 4 -12
2 -13 -13 -6 -31 17 -34 41 -6 41 13 0 27 -4 30 -10z m543 -7 c-5 -25 -28 -28
-28 -4 0 12 6 21 16 21 9 0 14 -7 12 -17z m-2891 1 c-10 -11 -58 -13 -51 -3 3
5 17 9 31 9 15 0 23 -3 20 -6z m173 -2 c-8 -3 -21 -13 -30 -23 -20 -24 -78
-15 -58 9 11 13 9 15 -24 9 -21 -3 -40 -1 -44 4 -3 6 28 9 83 8 48 -1 81 -4
73 -7z m65 -2 c12 -19 -6 -50 -28 -50 -48 0 -54 24 -12 48 25 14 32 15 40 2z
m37 -25 c-2 -15 0 -25 7 -25 6 0 11 -7 11 -15 0 -12 -4 -11 -20 5 -17 17 -19
32 -11 68 1 2 5 1 10 -2 4 -3 6 -17 3 -31z m2221 16 c-2 -6 2 -11 7 -11 6 0
10 -8 11 -17 0 -11 3 -13 6 -5 2 6 14 12 26 12 22 -1 22 -1 3 -15 -26 -20 -46
-19 -47 3 -1 15 -2 15 -6 -1 -5 -18 -5 -18 -18 0 -10 14 -11 21 -2 32 10 12 9
13 -2 6 -10 -6 -12 -4 -7 4 9 14 32 8 29 -8z m134 13 c13 -4 20 -11 16 -17 -3
-6 -1 -7 5 -3 12 7 72 -22 72 -35 0 -4 25 -22 55 -40 65 -39 78 -70 16 -38
-22 11 -42 27 -45 35 -3 8 -16 14 -29 14 -13 0 -32 9 -42 20 -10 11 -33 25
-51 32 -19 7 -34 18 -34 25 0 15 5 15 37 7z m-2797 -30 c0 -8 -7 -14 -15 -14
-8 0 -15 -5 -15 -11 0 -5 -4 -7 -10 -4 -16 10 -11 22 11 28 13 4 18 10 13 18
-4 8 -3 10 4 5 7 -4 12 -14 12 -22z m595 14 c3 -3 -17 -30 -44 -61 -46 -53
-61 -60 -61 -30 0 7 8 13 18 13 18 0 42 18 42 32 0 4 -7 5 -17 1 -13 -5 -15
-2 -11 15 4 12 3 22 -2 22 -4 0 -10 -14 -14 -32 -5 -28 -8 -30 -20 -17 -8 7
-18 26 -21 42 l-7 27 66 -4 c37 -1 69 -5 71 -8z m1624 -29 c-17 -10 -24 4 -14
29 6 16 7 16 17 -2 8 -14 7 -21 -3 -27z m34 21 c3 -11 1 -20 -4 -20 -5 0 -9 9
-9 20 0 11 2 20 4 20 2 0 6 -9 9 -20z m309 11 c8 12 10 12 15 0 5 -11 7 -11
15 0 7 11 8 9 6 -6 -5 -31 -59 -22 -57 9 0 6 3 5 6 -3 5 -11 7 -11 15 0z
m-1908 -23 c-3 -12 -6 -43 -5 -69 1 -49 -13 -65 -44 -53 -8 4 -22 1 -30 -6
-12 -10 -15 -9 -15 4 0 9 -4 16 -10 16 -18 0 -11 29 10 40 16 8 18 8 14 -4 -4
-12 0 -13 22 -7 28 7 46 31 24 31 -6 0 -8 5 -4 11 4 7 -1 7 -16 -1 -20 -11
-21 -10 -11 8 27 50 79 74 65 30z m1521 8 c12 -12 12 -15 0 -20 -8 -3 -15 -4
-15 -2 0 3 -3 11 -6 20 -8 20 3 21 21 2z m-2020 -5 c3 -5 1 -13 -5 -16 -8 -5
-7 -11 1 -21 9 -11 8 -14 -5 -14 -11 0 -16 9 -16 30 0 29 13 40 25 21z m-105
-11 c0 -5 -9 -14 -19 -19 -16 -9 -18 -8 -14 9 5 20 33 29 33 10z m175 1 c3 -5
1 -12 -5 -16 -5 -3 -10 1 -10 9 0 18 6 21 15 7z m-395 -26 c0 -8 -4 -17 -10
-20 -6 -4 -10 5 -10 20 0 15 4 24 10 20 6 -3 10 -12 10 -20z m2936 -15 c8 0
14 6 14 13 0 7 7 4 15 -7 8 -11 15 -16 16 -10 0 5 5 -2 11 -16 10 -24 10 -24
18 -5 5 11 9 14 9 7 1 -9 8 -11 22 -7 19 6 20 5 8 -8 -8 -8 -16 -13 -18 -11
-2 2 -12 -1 -21 -6 -14 -7 -21 -4 -34 14 -8 14 -26 26 -38 28 -15 2 -23 10
-24 23 -1 15 0 16 3 3 3 -10 11 -18 19 -18z m-2766 15 c0 -8 -4 -15 -10 -15
-5 0 -10 7 -10 15 0 8 5 15 10 15 6 0 10 -7 10 -15z m100 5 c0 -5 -7 -10 -16
-10 -8 0 -12 5 -9 10 3 6 10 10 16 10 5 0 9 -4 9 -10z m95 -10 c0 -23 23 -22
35 1 10 17 14 19 21 8 13 -21 11 -32 -5 -26 -8 3 -20 -1 -26 -8 -10 -13 -15
-11 -31 9 -22 28 -24 39 -6 34 6 -3 12 -11 12 -18z m245 -4 c0 -2 -7 -7 -16
-10 -8 -3 -12 -2 -9 4 6 10 25 14 25 6z m-560 -21 c0 -8 -4 -15 -10 -15 -5 0
-10 7 -10 15 0 8 5 15 10 15 6 0 10 -7 10 -15z m44 -32 c-25 -18 -30 0 -7 27
16 19 18 19 22 4 2 -10 -5 -24 -15 -31z m366 27 c0 -5 -5 -10 -11 -10 -5 0 -7
5 -4 10 3 6 8 10 11 10 2 0 4 -4 4 -10z m1610 6 c0 -3 -4 -8 -10 -11 -5 -3
-10 -1 -10 4 0 6 5 11 10 11 6 0 10 -2 10 -4z m-2100 -12 c0 -10 -42 -65 -46
-61 -9 9 19 67 32 67 8 0 14 -3 14 -6z m300 -14 c0 -5 -2 -10 -4 -10 -3 0 -8
5 -11 10 -3 6 -1 10 4 10 6 0 11 -4 11 -10z m80 -20 c0 -5 -4 -10 -10 -10 -5
0 -10 5 -10 10 0 6 5 10 10 10 6 0 10 -4 10 -10z m2740 -5 c0 -8 -4 -15 -9
-15 -13 0 -22 16 -14 24 11 11 23 6 23 -9z m-3080 -4 c0 -12 -41 -63 -47 -57
-9 9 21 66 34 66 7 0 13 -4 13 -9z m610 -27 c0 -8 -4 -12 -10 -9 -5 3 -10 13
-10 21 0 8 5 12 10 9 6 -3 10 -13 10 -21z m2595 8 c11 -9 26 -25 34 -35 12
-15 11 -17 -7 -17 -12 0 -28 13 -41 35 -22 38 -17 44 14 17z m-2405 -17 c0
-22 -4 -25 -27 -22 -32 4 -44 27 -14 27 11 0 23 5 26 10 10 16 15 11 15 -15z
m100 5 c0 -4 -6 -10 -13 -13 -7 -3 -13 3 -13 13 0 10 6 16 13 13 7 -3 13 -9
13 -13z m-1390 -47 c-10 -16 -11 -15 -6 7 3 14 6 32 7 40 1 8 4 5 6 -7 2 -12
-1 -30 -7 -40z m545 47 c-3 -5 -16 -15 -28 -21 -22 -12 -22 -12 -3 10 19 21
43 30 31 11z m102 -5 c0 -8 -4 -12 -9 -9 -4 3 -8 9 -8 15 0 5 4 9 8 9 5 0 9
-7 9 -15z m-615 -17 c-7 -7 -12 -8 -12 -2 0 14 12 26 19 19 2 -3 -1 -11 -7
-17z m1118 12 c0 -5 -2 -10 -4 -10 -3 0 -8 5 -11 10 -3 6 -1 10 4 10 6 0 11
-4 11 -10z m50 0 c0 -5 -2 -10 -4 -10 -3 0 -8 5 -11 10 -3 6 -1 10 4 10 6 0
11 -4 11 -10z m-125 -10 c-3 -5 -10 -10 -16 -10 -5 0 -9 5 -9 10 0 6 7 10 16
10 8 0 12 -4 9 -10z m341 -2 c5 -7 2 -9 -9 -5 -11 4 -14 2 -10 -9 6 -17 -35
-66 -48 -58 -5 3 -9 0 -9 -5 0 -6 -7 -11 -15 -11 -11 0 -15 12 -15 44 0 39 3
45 21 43 17 -1 20 -6 15 -30 -4 -20 -2 -27 7 -24 6 2 10 12 9 23 -2 10 4 24
14 31 22 16 31 16 40 1z m1004 2 c0 -5 -7 -10 -16 -10 -8 0 -12 5 -9 10 3 6
10 10 16 10 5 0 9 -4 9 -10z m-2014 -48 c-14 -14 -16 -14 -16 -1 0 20 23 44
29 28 2 -6 -4 -18 -13 -27z m569 27 c10 -14 1 -21 -19 -13 -9 3 -13 10 -10 15
7 12 21 11 29 -2z m140 -9 c3 -6 -1 -7 -9 -4 -18 7 -21 14 -7 14 6 0 13 -4 16
-10z m159 -32 c7 2 6 -2 -2 -10 -11 -11 -16 -9 -32 12 -26 34 -25 49 1 19 12
-13 26 -23 33 -21z m-369 14 c-3 -3 -11 0 -18 7 -9 10 -8 11 6 5 10 -3 15 -9
12 -12z m305 -17 c0 -5 -5 -3 -10 5 -5 8 -10 20 -10 25 0 6 5 3 10 -5 5 -8 10
-19 10 -25z m-730 15 c0 -5 -5 -10 -11 -10 -5 0 -7 5 -4 10 3 6 8 10 11 10 2
0 4 -4 4 -10z m270 6 c0 -3 -4 -8 -10 -11 -5 -3 -10 -1 -10 4 0 6 5 11 10 11
6 0 10 -2 10 -4z m90 -4 c0 -5 -7 -9 -15 -9 -8 0 -15 4 -15 9 0 4 7 8 15 8 8
0 15 -4 15 -8z m329 -11 c9 -16 7 -18 -14 -18 -21 0 -22 2 -12 18 7 11 13 19
14 19 1 0 7 -8 12 -19z m-224 -1 c3 -5 -1 -10 -10 -10 -9 0 -13 5 -10 10 3 6
8 10 10 10 2 0 7 -4 10 -10z m120 0 c3 -5 1 -10 -4 -10 -6 0 -11 5 -11 10 0 6
2 10 4 10 3 0 8 -4 11 -10z m355 0 c0 -5 -4 -10 -10 -10 -5 0 -10 5 -10 10 0
6 5 10 10 10 6 0 10 -4 10 -10z m-745 -24 c615 -32 711 -39 717 -49 6 -9 8 -9
8 0 0 8 31 10 108 8 59 -1 134 1 167 5 49 6 62 5 72 -8 7 -9 11 -17 10 -19 -9
-8 -207 -11 -207 -3 0 6 -5 10 -11 10 -5 0 -7 -5 -4 -10 4 -7 -31 -9 -107 -5
-225 10 -314 15 -378 20 -36 3 -110 7 -165 10 -311 14 -395 16 -395 8 0 -4 4
-14 9 -22 8 -12 12 -12 24 -2 10 8 17 9 22 1 9 -14 55 -13 55 3 0 9 2 9 8 0 4
-7 49 -14 112 -17 403 -23 643 -37 830 -47 118 -6 217 -14 220 -16 3 -3 -65
-3 -150 1 -287 11 -433 14 -340 7 60 -5 7 -8 -177 -9 -252 -2 -261 -1 -256 17
4 16 -2 20 -34 25 -54 7 -313 21 -343 17 -24 -2 -24 -2 -6 18 19 21 19 21 -3
21 -12 0 -24 -7 -28 -16 -3 -9 -13 -14 -25 -11 -10 3 -25 -1 -32 -9 -8 -8 -19
-14 -24 -14 -6 0 -15 -14 -21 -31 -8 -24 -8 -36 3 -51 10 -14 12 -28 6 -43 -5
-12 -14 -56 -20 -96 -22 -146 -27 -169 -45 -189 -13 -14 -16 -29 -12 -54 7
-47 -18 -58 -30 -13 -4 18 -8 37 -8 42 0 6 -5 17 -10 25 -5 8 -9 53 -8 100 2
124 41 233 113 313 14 16 33 43 42 60 15 28 17 29 18 10 0 -20 2 -21 26 -8 15
7 49 16 75 20 27 4 52 11 55 17 4 7 9 7 13 0 3 -5 60 -12 126 -16z m-509 -28
c-14 -23 -22 -23 -22 1 0 12 7 19 17 18 13 -1 14 -5 5 -19z m54 -2 c0 -8 -5
-18 -11 -22 -14 -8 -33 11 -25 25 10 16 36 13 36 -3z m41 -19 c-16 -16 -26 0
-10 19 9 11 15 12 17 4 2 -6 -1 -17 -7 -23z m59 19 c0 -7 -7 -19 -15 -26 -12
-10 -15 -9 -15 7 0 11 3 23 7 26 11 12 23 8 23 -7z m3575 -6 c-3 -5 -11 -10
-16 -10 -6 0 -7 5 -4 10 3 6 11 10 16 10 6 0 7 -4 4 -10z m-3775 -51 c0 -5 -4
-9 -10 -9 -5 0 -10 7 -10 16 0 8 5 12 10 9 6 -3 10 -10 10 -16z m290 4 c-18
-7 -40 -35 -35 -44 2 -3 -2 -6 -10 -6 -8 0 -15 3 -15 6 0 12 45 51 59 50 14 0
14 -1 1 -6z m-240 -17 c0 -8 -4 -17 -9 -21 -12 -7 -24 12 -16 25 9 15 25 12
25 -4z m46 -22 c-3 -8 -10 -12 -16 -9 -7 4 -6 14 2 28 12 24 24 8 14 -19z m54
6 c-6 -12 -14 -19 -17 -17 -2 3 1 15 7 27 6 12 14 19 17 17 2 -3 -1 -15 -7
-27z m547 4 c-3 -3 -12 -4 -19 -1 -8 3 -5 6 6 6 11 1 17 -2 13 -5z m-627 -57
c0 -4 -6 -2 -14 5 -8 7 -12 17 -9 22 5 8 23 -12 23 -27z m-68 -19 c-7 -7 -12
-8 -12 -2 0 6 3 14 7 17 3 4 9 5 12 2 2 -3 -1 -11 -7 -17z m98 -8 c0 -5 -5
-10 -11 -10 -5 0 -7 5 -4 10 3 6 8 10 11 10 2 0 4 -4 4 -10z m4253 -13 c12 11
8 -16 -5 -37 -11 -17 -10 -22 2 -30 13 -8 13 -10 -2 -10 -23 0 -40 34 -32 65
5 19 10 23 19 15 6 -5 15 -7 18 -3z m-227 -81 c9 -23 116 -100 174 -125 62
-26 143 -72 137 -77 -1 -2 -32 6 -68 17 -35 11 -68 21 -74 22 -5 2 -38 22 -72
45 -34 23 -66 42 -72 42 -14 0 -71 72 -65 82 8 13 34 9 40 -6z m204 -26 c0 -5
-5 -10 -11 -10 -5 0 -7 5 -4 10 3 6 8 10 11 10 2 0 4 -4 4 -10z m-4159 -292
c1 -7 1 -16 0 -20 0 -5 7 -8 18 -8 27 0 45 -24 28 -38 -10 -9 -21 -3 -45 24
-18 19 -32 39 -32 44 0 15 30 12 31 -2z m269 -8 c0 -5 -2 -10 -4 -10 -3 0 -8
5 -11 10 -3 6 -1 10 4 10 6 0 11 -4 11 -10z m127 -46 c-3 -3 -12 -4 -19 -1 -8
3 -5 6 6 6 11 1 17 -2 13 -5z m69 -25 c8 -14 -10 -11 -32 6 -18 13 -18 14 4 8
12 -3 25 -9 28 -14z m-362 2 c3 -5 -1 -14 -8 -20 -10 -8 -16 -9 -21 -1 -3 5 2
10 12 10 15 0 16 2 3 10 -9 6 -10 10 -3 10 6 0 14 -4 17 -9z m50 -27 c8 -22 1
-28 -21 -19 -12 5 -14 9 -5 12 6 3 10 9 6 14 -3 5 -1 9 4 9 6 0 13 -7 16 -16z
m432 -15 c6 -10 -2 -11 -33 -3 -13 4 -23 10 -23 14 0 10 49 0 56 -11z m-376
-15 c0 -16 -2 -16 -24 -8 -12 5 -13 9 -3 19 14 15 27 10 27 -11z m-451 -29 l0
-20 -9 20 c-5 11 -9 27 -9 35 -1 13 0 13 9 0 5 -8 9 -24 9 -35z m501 36 c0
-17 -18 -21 -24 -6 -3 9 0 15 9 15 8 0 15 -4 15 -9z m70 -26 c0 -9 -9 -15 -22
-14 -13 0 -17 3 -10 6 6 2 10 9 6 14 -3 5 2 9 10 9 9 0 16 -7 16 -15z m-600
-7 c0 -7 -11 -18 -25 -25 -22 -10 -25 -9 -25 7 0 18 12 28 38 29 6 1 12 -5 12
-11z m950 -18 c8 -5 11 -10 5 -10 -5 0 -17 5 -25 10 -8 5 -10 10 -5 10 6 0 17
-5 25 -10z m77 4 c-3 -3 -12 -4 -19 -1 -8 3 -5 6 6 6 11 1 17 -2 13 -5z m-380
-10 c-3 -3 -12 -4 -19 -1 -8 3 -5 6 6 6 11 1 17 -2 13 -5z m-610 -51 c-3 -10
-5 -4 -5 12 0 17 2 24 5 18 2 -7 2 -21 0 -30z m1000 31 c-3 -3 -12 -4 -19 -1
-8 3 -5 6 6 6 11 1 17 -2 13 -5z m76 -1 c-7 -2 -19 -2 -25 0 -7 3 -2 5 12 5
14 0 19 -2 13 -5z m-1270 -73 c-3 -25 -10 -49 -16 -55 -6 -7 -8 1 -3 24 3 18
6 50 6 70 0 26 3 32 10 21 5 -8 6 -35 3 -60z m154 28 c-15 -22 -31 -18 -35 9
-2 14 3 23 15 25 24 5 34 -11 20 -34z m1192 26 c11 -11 -7 -10 -34 3 l-30 14
30 -6 c16 -4 32 -9 34 -11z m-82 0 c-3 -3 -12 -4 -19 -1 -8 3 -5 6 6 6 11 1
17 -2 13 -5z m1683 -4 c13 -9 13 -10 0 -10 -8 0 -22 5 -30 10 -13 9 -13 10 0
10 8 0 22 -5 30 -10z m-1526 -19 c4 -5 -3 -7 -14 -4 -23 6 -26 13 -6 13 8 0
17 -4 20 -9z m1576 -1 c0 -5 -7 -7 -15 -4 -8 4 -15 8 -15 10 0 2 7 4 15 4 8 0
15 -4 15 -10z m90 -10 c-20 -13 -43 -13 -35 0 3 6 16 10 28 10 18 0 19 -2 7
-10z m-2914 -37 c-10 -10 -19 5 -10 18 6 11 8 11 12 0 2 -7 1 -15 -2 -18z
m1501 -29 c-3 -3 -12 -4 -19 -1 -8 3 -5 6 6 6 11 1 17 -2 13 -5z m40 -10 c-3
-3 -12 -4 -19 -1 -8 3 -5 6 6 6 11 1 17 -2 13 -5z m-1409 -46 c7 -10 22 -18
32 -18 10 0 20 -5 22 -11 4 -11 142 -76 248 -115 36 -14 72 -28 80 -31 33 -14
181 -57 330 -96 52 -14 160 -37 240 -52 139 -26 200 -45 228 -72 7 -7 19 -13
25 -13 13 -1 86 -60 73 -60 -4 0 -31 15 -59 33 -86 54 -96 58 -176 72 -104 19
-264 53 -332 72 -31 9 -62 13 -68 9 -5 -4 -19 -2 -31 4 -11 5 -29 15 -40 20
-11 6 -33 10 -49 10 -17 0 -32 4 -36 10 -3 5 -12 7 -20 3 -8 -3 -15 -1 -15 5
0 5 -23 12 -52 15 -32 4 -55 13 -61 23 -6 11 -17 14 -33 10 -13 -4 -24 -2 -24
3 0 10 -52 22 -93 22 -21 0 -27 4 -23 14 3 8 1 15 -4 15 -6 0 -10 -5 -10 -12
0 -6 -6 -4 -13 7 -8 10 -19 15 -25 11 -16 -10 -72 21 -72 40 0 11 -6 13 -19 9
-11 -3 -22 -1 -26 5 -3 6 -11 8 -16 4 -5 -3 -15 -2 -22 4 -23 17 -46 22 -41 8
3 -8 1 -17 -5 -21 -6 -3 -11 -1 -11 6 0 7 -9 1 -21 -12 l-21 -24 8 30 c23 92
92 130 132 73z m-328 -7 c0 -6 -4 -13 -10 -16 -5 -3 -10 1 -10 9 0 9 5 16 10
16 6 0 10 -4 10 -9z m4800 -42 c0 10 7 8 24 -8 14 -13 22 -29 19 -36 -2 -8 5
-20 16 -27 12 -7 21 -21 21 -30 0 -10 5 -18 10 -18 6 0 10 -13 10 -29 0 -16 6
-36 13 -43 9 -9 16 -53 20 -128 4 -63 11 -116 17 -118 5 -2 10 -16 10 -31 0
-15 5 -32 12 -39 9 -9 9 -12 0 -12 -25 0 -11 -18 28 -35 22 -10 40 -23 40 -29
0 -13 54 -39 90 -43 14 -2 53 -6 88 -9 42 -4 62 -10 62 -19 0 -19 -53 -76 -73
-79 -9 -1 -27 -14 -40 -30 -18 -21 -36 -29 -81 -35 -31 -4 -65 -15 -74 -24
-15 -16 -15 -17 6 -17 12 0 22 -4 22 -10 0 -5 14 -10 31 -10 39 0 165 -38 178
-53 15 -19 18 -90 3 -95 -6 -2 -12 -10 -12 -17 0 -8 -9 -17 -20 -20 -11 -4
-18 -10 -15 -14 5 -9 -86 -22 -142 -22 -18 1 -34 -3 -38 -8 -3 -6 -19 -4 -39
4 -31 13 -35 13 -51 -5 -22 -24 -55 -29 -35 -5 10 12 10 15 -4 15 -9 0 -16 7
-16 15 0 20 -17 19 -29 -2 -8 -16 -11 -15 -30 7 l-20 25 -1 -22 c0 -13 -6 -23
-12 -24 -46 -4 -146 -3 -146 1 1 21 -5 27 -22 23 -11 -3 -20 -9 -20 -14 0 -5
-13 -9 -30 -9 -23 0 -30 -4 -30 -20 0 -25 -11 -25 -33 0 -19 23 -48 26 -78 7
-18 -10 -23 -9 -27 2 -3 9 -6 10 -11 2 -4 -7 -16 12 -26 43 l-19 55 30 43 c16
24 34 49 41 56 6 6 15 21 18 32 3 11 10 20 14 20 4 0 14 18 21 40 7 22 16 40
20 40 8 0 31 64 35 96 1 13 20 47 42 76 55 74 131 264 163 408 26 119 52 194
61 179 7 -12 9 -12 9 0z m-4823 -21 c-3 -8 -6 -5 -6 6 -1 11 2 17 5 13 3 -3 4
-12 1 -19z m3787 -29 c-3 -5 -10 -7 -15 -3 -5 3 -7 10 -3 15 3 5 10 7 15 3 5
-3 7 -10 3 -15z m-181 -49 c8 0 8 -3 1 -10 -12 -12 -44 -3 -44 12 0 6 7 7 16
4 9 -3 21 -6 27 -6z m65 -11 c-2 -6 -8 -10 -13 -10 -5 0 -11 4 -13 10 -2 6 4
11 13 11 9 0 15 -5 13 -11z m119 -11 c-3 -8 -6 -5 -6 6 -1 11 2 17 5 13 3 -3
4 -12 1 -19z m-3590 -65 c-3 -10 -5 -4 -5 12 0 17 2 24 5 18 2 -7 2 -21 0 -30z
m3323 6 c0 -6 -4 -7 -10 -4 -5 3 -10 11 -10 16 0 6 5 7 10 4 6 -3 10 -11 10
-16z m17 -11 c-3 -8 -6 -5 -6 6 -1 11 2 17 5 13 3 -3 4 -12 1 -19z m80 -4 c-3
-3 -12 -4 -19 -1 -8 3 -5 6 6 6 11 1 17 -2 13 -5z m193 -16 c0 -6 -6 -5 -15 2
-8 7 -15 14 -15 16 0 2 7 1 15 -2 8 -4 15 -11 15 -16z m-53 6 c-3 -3 -12 -4
-19 -1 -8 3 -5 6 6 6 11 1 17 -2 13 -5z m-3577 -53 c-12 -46 -24 -57 -14 -13
11 50 16 64 21 59 2 -3 -1 -23 -7 -46z m-37 -208 c6 -9 6 -13 -2 -13 -11 0
-51 57 -51 74 0 5 10 -4 22 -20 12 -16 26 -35 31 -41z m5 -148 c-3 -3 -9 2
-12 12 -6 14 -5 15 5 6 7 -7 10 -15 7 -18z m9 -47 c-3 -7 -5 -2 -5 12 0 14 2
19 5 13 2 -7 2 -19 0 -25z m33 -18 c0 -5 -5 -10 -11 -10 -5 0 -7 5 -4 10 3 6
8 10 11 10 2 0 4 -4 4 -10z m4306 -5 c-20 -15 -62 -22 -164 -28 -53 -3 -62 -1
-60 12 3 13 21 16 97 18 51 1 95 4 99 7 3 3 15 6 26 6 20 -1 20 -1 2 -15z
m-4259 -77 c22 -35 50 -81 63 -103 13 -22 26 -42 29 -45 4 -3 31 -41 60 -85
30 -44 68 -92 85 -106 18 -17 27 -32 23 -42 -4 -11 -2 -14 7 -11 22 8 29 -14
12 -38 -11 -15 -16 -18 -16 -7 0 22 -39 51 -61 46 -13 -4 -19 0 -19 11 0 12
-7 9 -28 -11 -36 -35 -52 -34 -52 2 0 16 -6 31 -15 35 -28 10 -16 34 20 40 20
4 40 4 46 0 7 -4 7 1 -1 16 -8 14 -18 20 -30 17 -11 -3 -21 0 -22 5 -2 5 -35
12 -73 15 -99 6 -114 10 -111 30 2 10 -5 24 -16 31 -10 7 -16 18 -13 23 4 5 2
9 -4 9 -6 0 -8 7 -5 15 4 8 1 15 -5 15 -6 0 -11 19 -11 46 0 31 -4 43 -11 38
-7 -4 -10 -1 -7 6 2 7 12 14 21 16 9 1 24 9 33 18 8 9 22 16 30 16 8 0 17 13
21 30 3 17 7 30 8 30 1 0 20 -28 42 -62z m4018 32 c-3 -5 -11 -10 -16 -10 -6
0 -7 5 -4 10 3 6 11 10 16 10 6 0 7 -4 4 -10z m1090 -180 c4 -6 -5 -10 -19
-10 -14 0 -26 5 -26 10 0 6 9 10 19 10 11 0 23 -4 26 -10z m-1006 -167 c-1
-21 -3 -30 -6 -20 -2 9 -9 17 -14 17 -5 0 -4 9 3 20 17 27 18 26 17 -17z m651
-23 c0 -5 -4 -10 -9 -10 -6 0 -13 5 -16 10 -3 6 1 10 9 10 9 0 16 -4 16 -10z
m-4760 -50 c0 -5 -4 -10 -10 -10 -5 0 -10 5 -10 10 0 6 5 10 10 10 6 0 10 -4
10 -10z m330 -61 c0 -5 -4 -9 -10 -9 -5 0 -10 7 -10 16 0 8 5 12 10 9 6 -3 10
-10 10 -16z m30 -23 c0 -2 -7 -7 -16 -10 -8 -3 -12 -2 -9 4 6 10 25 14 25 6z"/>
<path d="M3450 4380 c0 -5 5 -10 11 -10 5 0 7 5 4 10 -3 6 -8 10 -11 10 -2 0
-4 -4 -4 -10z"/>
<path d="M3550 4380 c0 -5 7 -10 16 -10 8 0 12 5 9 10 -3 6 -10 10 -16 10 -5
0 -9 -4 -9 -10z"/>
<path d="M3660 4349 c-74 -17 -98 -17 -70 1 12 8 11 10 -5 10 -12 0 -27 -6
-33 -12 -10 -10 -17 -10 -32 0 -24 15 -60 16 -60 1 0 -5 11 -49 24 -97 34
-122 89 -362 121 -528 29 -153 28 -170 -21 -267 -50 -100 -199 -277 -234 -277
-23 0 -21 31 4 61 25 29 27 49 5 49 -6 0 -29 -19 -52 -43 -23 -24 -54 -48 -69
-55 -15 -6 -46 -24 -70 -39 -76 -49 -102 -60 -209 -93 -103 -33 -178 -40 -279
-27 -19 2 -48 5 -63 5 -16 1 -26 5 -24 10 3 4 -50 7 -116 7 -143 0 -159 3
-126 22 22 13 21 14 -21 7 -25 -3 -68 -7 -95 -8 -28 -1 -55 -5 -62 -9 -6 -4
-14 -3 -17 2 -7 10 -61 9 -72 -2 -10 -10 -76 -8 -94 3 -9 5 -19 5 -26 -1 -6
-5 -46 -12 -90 -15 -43 -3 -82 -8 -87 -11 -11 -6 -40 -12 -97 -18 -19 -2 -35
-4 -35 -5 0 -1 -11 -3 -25 -6 -43 -7 -75 -24 -88 -45 -17 -27 -7 -37 15 -16
10 8 38 18 63 21 25 3 113 16 195 27 201 29 474 23 924 -21 116 -11 122 -10
241 32 96 35 143 61 132 73 -4 5 -2 5 4 2 7 -4 45 13 86 38 78 46 117 55 137
31 10 -12 -5 -25 -81 -72 -51 -31 -120 -71 -153 -87 -71 -36 -70 -35 -63 -42
9 -9 160 55 175 73 12 15 13 14 9 -10 -2 -14 -10 -36 -16 -48 -6 -12 -10 -24
-7 -26 2 -2 12 14 22 36 10 22 20 40 22 40 2 0 22 -9 44 -21 23 -11 43 -19 45
-16 2 2 -14 12 -36 22 -22 10 -40 24 -40 32 0 9 -5 11 -12 7 -9 -5 -9 -2 1 9
16 20 26 23 15 5 -4 -7 12 3 37 23 24 19 52 38 62 42 10 4 15 11 12 17 -3 5
-4 10 -1 10 3 0 13 -16 22 -36 11 -23 20 -32 27 -25 6 6 4 15 -6 25 -36 36
-32 56 24 112 29 29 54 52 56 50 2 -2 -12 -48 -32 -102 -40 -114 -41 -124 -17
-124 10 0 32 -16 51 -35 18 -19 38 -35 44 -35 7 1 -1 13 -18 28 -16 15 -40 39
-53 53 l-23 26 27 84 c14 46 29 88 32 94 3 5 7 18 7 28 2 24 34 55 43 42 4 -5
15 -11 25 -11 17 -2 17 0 3 15 -21 23 -20 26 10 67 15 19 28 51 30 71 1 20 12
45 23 57 27 27 27 6 0 -28 -12 -15 -19 -29 -16 -32 3 -3 18 13 34 37 l28 43 9
-27 c6 -15 14 -27 18 -27 5 0 4 9 -3 21 -13 24 -4 35 31 42 16 3 10 5 -17 6
-32 1 -43 5 -43 17 0 8 -4 12 -10 9 -5 -3 -10 1 -10 9 0 9 -5 16 -11 16 -6 0
-8 7 -5 16 3 8 2 13 -3 10 -8 -5 -22 64 -21 103 1 27 27 -30 34 -74 8 -46 26
-82 26 -52 0 22 9 22 82 -8 34 -14 66 -25 72 -24 16 0 -87 46 -123 54 -31 7
-31 7 -14 29 52 65 75 89 81 80 4 -5 18 -9 31 -10 22 -1 23 0 6 13 -11 7 -25
13 -31 13 -12 0 -38 69 -30 78 2 2 15 -7 27 -20 13 -13 33 -31 43 -39 19 -14
19 -13 3 12 -10 14 -28 32 -42 39 -14 7 -25 17 -25 22 0 5 -4 6 -10 3 -5 -3
-10 0 -10 8 0 17 52 50 94 61 29 7 29 7 8 26 -23 22 -67 16 -58 -7 3 -8 1 -11
-5 -8 -5 4 -19 -5 -31 -20 l-20 -26 -34 68 c-18 37 -34 71 -34 76 0 11 48 9
55 -3 3 -5 12 -10 18 -10 7 0 -1 11 -18 24 -16 13 -35 21 -42 19 -7 -3 -13 0
-13 6 0 6 7 11 16 11 10 0 14 6 11 14 -7 17 13 26 54 26 29 0 39 14 17 23 -7
3 2 6 21 6 28 1 33 -2 28 -18 -3 -12 1 -22 9 -25 8 -3 14 -14 14 -25 0 -16 -7
-19 -46 -19 -25 0 -48 -3 -51 -6 -4 -3 22 -6 56 -6 55 0 62 -2 57 -17 -4 -9
-1 -20 6 -24 24 -15 -1 -22 -32 -9 -46 19 -47 5 -1 -16 50 -23 61 -51 77 -194
3 -30 8 -59 12 -65 3 -5 -3 -2 -14 7 -19 16 -20 16 -20 -2 0 -11 6 -20 13 -20
19 0 25 -18 28 -87 l3 -65 -30 6 c-26 5 -27 4 -14 -9 8 -8 21 -15 28 -15 11 0
13 -13 10 -60 -3 -39 0 -65 8 -75 10 -12 9 -16 -4 -21 -9 -3 -16 -17 -16 -30
0 -37 18 -28 29 14 21 78 22 153 6 294 -29 250 -65 402 -132 552 -35 77 -35
80 -19 107 l17 29 -26 -10 c-33 -12 -56 -13 -37 -1 29 18 -14 18 -88 0z m53
-6 c-7 -2 -19 -2 -25 0 -7 3 -2 5 12 5 14 0 19 -2 13 -5z m-3 -58 c0 -2 -7 -5
-15 -9 -9 -3 -15 0 -15 9 0 9 6 12 15 9 8 -4 15 -7 15 -9z m-80 -25 c0 -5 15
-11 33 -11 27 -2 28 -2 7 -6 -34 -6 -50 -23 -22 -23 12 0 22 -5 22 -11 0 -8
-11 -9 -31 -5 -17 3 -40 6 -50 6 -11 0 -19 5 -19 10 0 6 11 10 25 10 16 0 25
6 25 16 0 10 -5 14 -16 10 -8 -3 -12 -2 -9 4 8 13 35 13 35 0z m114 -19 c10
-11 15 -25 11 -30 -3 -6 2 -11 12 -12 11 0 13 -3 5 -6 -19 -8 -76 18 -61 28
10 6 10 11 0 23 -21 24 11 21 33 -3z m46 -5 c0 -3 -4 -8 -10 -11 -5 -3 -10 -1
-10 4 0 6 5 11 10 11 6 0 10 -2 10 -4z m-60 -75 c0 -15 -26 -31 -51 -31 -36
-1 -89 11 -95 21 -7 12 39 12 52 0 5 -5 23 -4 44 4 45 16 50 17 50 6z m-165
-11 c3 -5 1 -10 -4 -10 -6 0 -11 5 -11 10 0 6 2 10 4 10 3 0 8 -4 11 -10z m63
-39 c6 0 12 -5 12 -11 0 -14 -27 -12 -33 3 -3 6 -8 -3 -12 -20 -4 -18 -11 -30
-15 -28 -5 3 -6 14 -3 26 4 12 0 25 -8 30 -9 5 -4 7 16 5 17 -2 36 -4 43 -5z
m35 -105 c15 -27 18 -40 10 -43 -7 -2 -9 -11 -6 -19 3 -9 -1 -14 -13 -14 -9 0
-15 3 -11 6 3 4 -1 13 -9 21 -8 9 -18 13 -21 10 -7 -8 -33 18 -33 33 0 6 5 20
11 31 16 30 47 19 72 -25z m-33 -66 c0 -5 -9 -10 -20 -10 -11 0 -20 5 -20 10
0 6 9 10 20 10 11 0 20 -4 20 -10z m60 1 c0 -5 -7 -17 -16 -26 -23 -23 -30
-11 -7 13 21 24 23 25 23 13z m-46 -36 c3 -8 -3 -19 -14 -25 -27 -14 -34 -12
-20 6 8 8 9 14 4 13 -21 -4 -28 2 -14 11 22 14 37 12 44 -5z m98 -62 c14 -32
24 -59 23 -61 -4 -5 -140 40 -150 50 -7 6 -3 14 10 23 11 8 25 18 30 23 13 10
36 20 51 21 5 1 22 -25 36 -56z m-65 -59 c-1 0 -14 -4 -29 -8 -23 -5 -28 -3
-28 13 0 17 3 18 30 8 16 -6 28 -12 27 -13z m33 -19 c0 -2 -8 -23 -17 -47
l-17 -42 -11 40 c-7 21 -10 42 -8 47 5 8 53 10 53 2z m42 -15 c-12 -10 -29
-31 -37 -47 -13 -25 -15 -26 -15 -6 0 12 5 25 10 28 6 3 10 15 10 26 0 14 7
19 28 19 l27 -1 -23 -19z"/>
<path d="M3636 3851 c-4 -5 3 -7 14 -4 23 6 26 13 6 13 -8 0 -17 -4 -20 -9z"/>
<path d="M3133 4333 c-13 -8 -23 -20 -23 -25 0 -7 4 -7 13 -1 22 18 46 23 41
9 -7 -19 -57 -41 -62 -27 -6 17 -22 2 -22 -20 0 -11 9 -23 22 -28 15 -5 18
-10 9 -15 -9 -6 -9 -11 0 -22 6 -8 9 -14 5 -14 -3 0 2 -9 11 -20 14 -16 31
-20 88 -22 l70 -1 -75 -7 c-56 -5 -78 -3 -86 7 -23 27 -26 15 -7 -37 3 -8 7
-31 8 -50 4 -68 18 -140 27 -140 5 0 7 8 4 18 -3 9 -6 39 -8 65 -1 27 -5 50
-10 53 -4 3 -8 10 -8 16 0 6 10 2 23 -10 20 -19 22 -27 16 -94 -3 -40 -7 -77
-9 -83 -5 -15 11 -125 19 -125 4 0 20 14 36 30 29 30 70 45 46 16 -6 -7 -18
-40 -27 -72 -31 -123 -35 -136 -41 -130 -4 3 -14 -11 -23 -32 -16 -34 -61 -83
-132 -144 -27 -23 -28 -23 -9 -47 l18 -23 51 73 c28 41 57 82 64 92 21 31 40
53 33 40 -3 -7 -2 -13 2 -13 5 0 7 -17 4 -37 -5 -38 -5 -38 -10 -8 -6 29 -7
29 -63 -50 -31 -44 -62 -85 -68 -92 -7 -9 6 -25 52 -63 l63 -50 22 23 c22 22
22 24 9 110 -7 48 -9 87 -5 87 4 0 11 -30 15 -67 11 -112 11 -112 79 -44 59
60 135 165 135 188 0 6 -6 18 -13 25 -7 7 -16 20 -19 29 -4 9 -34 55 -68 103
-35 48 -60 89 -58 92 3 2 41 -48 84 -111 43 -64 80 -112 82 -106 2 5 -6 72
-17 148 -30 200 -31 203 -57 203 -8 0 -14 4 -14 9 0 5 -8 12 -17 16 -10 3 -32
18 -50 33 -30 26 -31 30 -23 67 5 24 5 42 -1 45 -9 6 32 41 62 52 14 6 15 12
2 65 -13 52 -19 60 -53 76 -31 14 -43 16 -60 7 -12 -6 -26 -9 -33 -7 -7 3 0 8
16 12 32 8 36 25 6 25 -11 0 -17 5 -14 10 10 16 -27 11 -52 -7z m254 -519 c-3
-3 -12 -4 -19 -1 -8 3 -5 6 6 6 11 1 17 -2 13 -5z m-140 -280 c-3 -3 -12 -4
-19 -1 -8 3 -5 6 6 6 11 1 17 -2 13 -5z m68 -14 c25 -11 -1 -11 -35 0 -20 6
-21 8 -5 8 11 0 29 -3 40 -8z m55 -20 c8 -5 11 -10 5 -10 -5 0 -17 5 -25 10
-8 5 -10 10 -5 10 6 0 17 -5 25 -10z"/>
<path d="M3218 4343 c12 -2 32 -2 45 0 12 2 2 4 -23 4 -25 0 -35 -2 -22 -4z"/>
<path d="M3065 4320 c3 -5 8 -10 11 -10 2 0 4 5 4 10 0 6 -5 10 -11 10 -5 0
-7 -4 -4 -10z"/>
<path d="M3250 4321 c0 -5 9 -11 20 -14 13 -3 20 0 20 9 0 8 -9 14 -20 14 -11
0 -20 -4 -20 -9z"/>
<path d="M3870 4310 c-13 -8 -11 -16 12 -57 33 -59 68 -71 68 -24 0 16 -5 33
-11 37 -24 15 19 24 96 19 l80 -4 -85 14 c-47 7 -98 16 -115 19 -16 3 -37 1
-45 -4z"/>
<path d="M4170 4270 c20 -13 43 -13 35 0 -3 6 -16 10 -28 10 -18 0 -19 -2 -7
-10z"/>
<path d="M4245 4260 c11 -5 29 -9 40 -9 l20 0 -20 9 c-11 5 -29 9 -40 9 l-20
0 20 -9z"/>
<path d="M2820 4240 c-15 -10 -8 -14 22 -11 12 2 16 -3 12 -12 -3 -8 -1 -18 5
-22 6 -3 11 -15 11 -26 0 -10 5 -19 10 -19 6 0 10 -8 10 -18 0 -25 6 -30 35
-25 22 5 23 8 18 52 -7 68 -26 91 -71 91 -20 0 -44 -5 -52 -10z"/>
<path d="M2760 4230 c-13 -9 -13 -10 0 -10 8 0 22 5 30 10 13 9 13 10 0 10 -8
0 -22 -5 -30 -10z"/>
<path d="M4366 4193 c28 -27 53 -55 57 -63 4 -11 6 -11 6 4 1 21 -79 106 -100
106 -7 0 9 -21 37 -47z"/>
<path d="M2580 4161 c-18 -16 -29 -34 -26 -40 4 -6 2 -9 -6 -6 -7 3 -19 -4
-26 -16 -8 -12 -10 -19 -5 -17 46 22 63 33 63 41 0 6 10 21 22 34 32 35 15 38
-22 4z"/>
<path d="M2991 4144 c0 -11 3 -14 6 -6 3 7 2 16 -1 19 -3 4 -6 -2 -5 -13z"/>
<path d="M3292 4114 c-8 -8 -11 -22 -8 -30 3 -7 1 -14 -4 -14 -6 0 -10 -13
-10 -29 0 -23 10 -35 53 -65 53 -36 78 -46 59 -23 -5 6 -13 40 -17 75 -4 34
-11 62 -17 62 -5 0 -6 5 -2 11 7 11 -12 29 -31 28 -5 0 -16 -7 -23 -15z m35
-40 c-3 -3 -12 -4 -19 -1 -8 3 -5 6 6 6 11 1 17 -2 13 -5z"/>
<path d="M3750 4101 c0 -18 18 -21 30 -6 10 13 9 15 -9 15 -11 0 -21 -4 -21
-9z"/>
<path d="M2982 4088 c-7 -7 -12 -16 -12 -22 0 -5 6 -1 14 10 14 18 15 18 21 1
5 -11 1 -25 -11 -38 -11 -12 -17 -30 -16 -41 2 -12 -2 -25 -10 -29 -9 -6 -6
-9 10 -9 22 0 22 -1 7 -16 -11 -12 -13 -20 -5 -29 6 -7 8 -19 4 -28 -3 -8 2
-39 10 -68 20 -65 20 -80 1 -73 -8 3 -14 18 -13 32 0 15 -9 52 -21 82 -13 30
-26 66 -30 80 -5 15 -15 24 -24 24 -18 -2 -23 11 -7 21 10 6 6 24 -13 64 l-12
23 -5 -23 c-7 -28 -47 -39 -56 -15 -3 9 -13 16 -21 16 -8 0 -12 -4 -8 -9 7
-12 -22 -41 -40 -41 -8 0 -17 5 -20 11 -4 6 -14 8 -23 4 -8 -3 -19 0 -23 6 -5
8 -15 4 -32 -14 -25 -27 -47 -35 -47 -17 0 6 -4 10 -10 10 -14 0 -12 -27 3
-34 6 -4 2 -4 -10 -2 -13 2 -23 0 -23 -5 0 -14 -17 -11 -34 6 -20 20 -43 21
-27 1 14 -17 -3 -29 -57 -41 -29 -6 -31 -9 -20 -23 11 -13 10 -14 -14 -8 -21
5 -28 3 -28 -9 0 -8 9 -15 20 -15 23 0 26 -10 8 -28 -16 -16 1 -15 35 2 32 17
36 5 7 -24 -22 -22 -36 -25 -45 -10 -3 6 -15 10 -26 10 -10 0 -19 7 -19 15 0
8 -9 15 -20 15 -31 0 -22 30 13 43 9 3 17 11 17 17 0 15 -16 12 -30 -5 -11
-13 -15 -13 -23 -3 -6 9 -7 8 -3 -4 3 -11 0 -18 -7 -18 -7 0 -23 -12 -36 -25
-25 -27 -22 -32 9 -13 26 16 40 0 16 -18 -23 -16 -56 -19 -56 -4 0 6 -8 5 -20
-2 -23 -15 -28 -43 -5 -34 8 3 22 9 30 12 20 8 19 -13 -1 -33 -14 -15 -18 -15
-46 2 -25 14 -32 15 -39 4 -12 -20 -11 -37 1 -19 9 13 12 13 23 0 17 -22 49
-18 75 8 22 22 52 30 52 14 0 -14 -33 -39 -60 -47 -14 -4 -35 -16 -47 -28
l-23 -20 -9 24 c-5 13 -10 19 -10 13 -1 -6 -11 -10 -22 -10 -12 1 -24 -4 -26
-11 -3 -7 3 -9 16 -6 24 6 27 -5 7 -32 -17 -23 -49 -14 -39 12 6 16 5 16 -9 5
-14 -11 -20 -10 -35 5 -17 17 -16 19 37 62 30 25 61 53 68 63 7 10 17 18 23
18 5 0 34 25 64 55 29 30 48 55 41 55 -7 0 -21 -8 -32 -17 -68 -62 -134 -110
-225 -164 -57 -34 -105 -65 -107 -70 -2 -5 -9 -9 -16 -9 -38 0 -76 -95 -76
-189 0 -31 4 -40 22 -44 12 -4 27 -2 34 3 6 6 35 12 65 15 30 3 81 10 114 15
33 6 84 10 113 10 28 0 52 5 52 10 0 6 8 10 18 10 14 0 15 2 2 10 -24 15 -3
23 45 16 29 -5 45 -12 45 -22 0 -8 5 -14 11 -14 6 0 9 7 5 15 -3 8 3 19 13 25
22 11 37 -10 19 -28 -14 -14 9 -19 122 -31 72 -7 77 -9 32 -10 -29 0 -51 -5
-48 -10 3 -5 -1 -12 -10 -15 -23 -9 -27 -8 -21 8 4 11 -9 15 -56 19 -79 7
-185 3 -216 -7 -15 -5 -26 -4 -31 3 -5 9 -19 9 -51 2 -24 -6 -61 -11 -81 -11
-38 0 -83 -30 -58 -38 7 -3 19 3 25 12 14 19 26 21 22 4 -1 -9 10 -12 38 -10
78 5 282 3 390 -4 61 -4 135 -8 165 -8 30 -1 60 -4 65 -8 22 -14 85 -20 85 -8
0 9 11 10 35 6 22 -5 45 -2 63 7 81 40 107 57 105 66 -2 6 3 8 10 6 14 -5 97
67 121 106 19 31 21 76 6 152 -9 41 -16 57 -28 57 -14 0 -14 2 -3 9 19 12 -4
137 -28 151 -9 6 -11 10 -3 10 16 0 15 31 -2 56 -8 11 -16 33 -18 49 -3 32
-18 41 -36 23z m-168 -99 c-17 -18 -44 -26 -44 -12 0 15 33 41 46 36 13 -5 12
-8 -2 -24z m-134 1 c0 -15 30 -12 30 3 0 6 5 4 11 -7 9 -14 8 -20 -2 -27 -21
-13 -51 -11 -43 3 5 8 0 9 -14 6 -21 -6 -31 10 -15 25 10 11 33 8 33 -3z m174
-35 c-23 -17 -31 -18 -39 -6 -8 14 37 43 49 31 7 -7 3 -15 -10 -25z m-74 -5
c0 -12 -40 -34 -47 -26 -9 8 17 36 33 36 8 0 14 -4 14 -10z m-150 -10 c0 -5
-7 -10 -15 -10 -8 0 -15 5 -15 10 0 6 7 10 15 10 8 0 15 -4 15 -10z m-85 -21
c-8 -12 -35 -12 -35 0 0 11 22 20 33 14 4 -2 5 -9 2 -14z m-65 -9 c0 -5 -7 -7
-15 -4 -8 4 -15 8 -15 10 0 2 7 4 15 4 8 0 15 -4 15 -10z m205 0 c-3 -5 -10
-10 -16 -10 -5 0 -9 5 -9 10 0 6 7 10 16 10 8 0 12 -4 9 -10z m-86 -26 c-12
-14 -39 -19 -39 -8 0 11 34 33 43 27 4 -3 3 -11 -4 -19z m161 16 c0 -14 -38
-32 -58 -28 -13 3 -10 8 13 21 35 19 45 21 45 7z m105 -9 c3 -5 -4 -13 -16
-16 -23 -8 -34 -1 -24 14 8 13 32 14 40 2z m-395 -11 c-8 -5 -22 -9 -30 -9
-10 0 -8 3 5 9 27 12 43 12 25 0z m188 -12 c-3 -7 -15 -15 -28 -16 -21 -3 -22
-2 -11 12 16 19 44 21 39 4z m122 -8 c0 -5 -7 -10 -16 -10 -8 0 -12 5 -9 10 3
6 10 10 16 10 5 0 9 -4 9 -10z m130 -9 c0 -12 -28 -22 -34 -12 -3 5 -3 11 1
15 9 9 33 7 33 -3z m-345 -21 c-3 -5 -12 -10 -18 -10 -7 0 -6 4 3 10 19 12 23
12 15 0z m-236 -26 c-6 -7 -15 -11 -21 -8 -5 3 -4 12 3 20 6 7 15 11 21 8 5
-3 4 -12 -3 -20z m491 22 c0 -2 -7 -7 -16 -10 -8 -3 -12 -2 -9 4 6 10 25 14
25 6z m130 -26 c-9 -6 -19 -5 -25 1 -6 6 -5 13 5 19 9 6 19 5 25 -1 6 -6 5
-13 -5 -19z m-456 -7 c-19 -14 -44 -18 -44 -7 0 13 35 32 48 26 12 -4 11 -8
-4 -19z m124 15 c-3 -7 -15 -15 -28 -16 -21 -3 -22 -2 -11 12 16 19 44 21 39
4z m127 3 c6 -11 -33 -26 -43 -16 -4 3 0 10 8 15 19 12 27 12 35 1z m-375 -15
c0 -2 -7 -9 -15 -16 -12 -10 -15 -10 -15 4 0 9 7 16 15 16 8 0 15 -2 15 -4z
m34 -30 c-6 -15 -24 -23 -24 -11 0 8 24 34 28 30 1 -1 0 -10 -4 -19z m256 15
c0 -13 -26 -32 -33 -24 -8 7 11 33 24 33 5 0 9 -4 9 -9z m140 -6 c0 -2 -9 -9
-20 -15 -16 -9 -20 -8 -20 5 0 8 9 15 20 15 11 0 20 -2 20 -5z m-224 -44 c-10
-16 -36 -13 -36 3 0 17 21 27 34 16 4 -5 5 -13 2 -19z m127 4 c-22 -16 -38 -8
-23 10 6 8 18 11 26 8 12 -4 12 -8 -3 -18z m-363 1 c0 -16 -21 -26 -53 -26
-20 0 -19 2 8 19 37 24 45 25 45 7z m500 -6 c0 -5 -9 -10 -21 -10 -11 0 -17 5
-14 10 3 6 13 10 21 10 8 0 14 -4 14 -10z m-340 -9 c0 -5 -6 -14 -14 -20 -11
-9 -16 -9 -21 0 -4 6 -1 15 6 20 18 11 29 11 29 0z m-117 -21 c-20 -23 -43
-26 -43 -6 0 15 15 24 42 25 17 1 17 0 1 -19z m237 5 c0 -8 -7 -15 -15 -15
-16 0 -20 12 -8 23 11 12 23 8 23 -8z m128 3 c-6 -18 -28 -21 -28 -4 0 9 7 16
16 16 9 0 14 -5 12 -12z m-488 -11 c0 -8 -11 -19 -25 -25 -36 -17 -38 -15 -19
13 17 27 44 34 44 12z m833 -20 c-3 -5 -10 -4 -15 1 -6 6 -7 16 -3 22 6 9 9 9
16 -1 4 -7 5 -17 2 -22z m-203 8 c-7 -8 -16 -15 -21 -15 -5 0 -9 7 -9 15 0 9
9 15 21 15 18 0 19 -2 9 -15z m-860 -15 c19 -19 19 -20 -1 -31 -12 -6 -18 -17
-15 -25 3 -8 1 -14 -4 -14 -6 0 -10 -7 -10 -15 0 -9 -12 -18 -29 -21 -27 -6
-53 -34 -31 -34 6 0 10 5 10 10 0 6 8 10 19 10 10 0 24 7 31 15 7 8 19 15 26
15 8 0 14 -7 14 -15 0 -8 -6 -15 -12 -15 -10 0 -10 -2 0 -9 9 -5 -3 -11 -35
-17 -73 -15 -86 -9 -80 32 4 20 2 32 -4 29 -13 -9 -11 17 4 36 10 13 87 69 94
69 2 0 12 -9 23 -20z m255 -16 c-10 -7 -22 -11 -26 -8 -13 7 1 32 19 36 24 5
28 -13 7 -28z m735 20 c0 -17 -22 -14 -28 4 -2 7 3 12 12 12 9 0 16 -7 16 -16z
m-220 -4 c0 -5 -8 -10 -17 -10 -15 0 -16 2 -3 10 19 12 20 12 20 0z m-636 -24
c-3 -9 -10 -16 -15 -16 -5 0 -4 9 3 20 14 22 21 20 12 -4z m176 3 c0 -6 -6
-17 -14 -25 -19 -18 -33 1 -16 21 15 18 30 20 30 4z m120 3 c0 -13 -12 -22
-22 -16 -10 6 -1 24 13 24 5 0 9 -4 9 -8z m-399 -25 c-1 -12 -15 -9 -19 4 -3
6 1 10 8 8 6 -3 11 -8 11 -12z m329 -6 c0 -15 -28 -33 -40 -26 -8 5 -8 11 1
21 13 15 39 19 39 5z m-190 -5 c0 -3 -4 -8 -10 -11 -5 -3 -10 -1 -10 4 0 6 5
11 10 11 6 0 10 -2 10 -4z m56 -7 c7 -12 -12 -29 -34 -29 -10 0 -10 5 -2 20
12 22 25 26 36 9z m249 1 c-3 -5 -10 -10 -16 -10 -5 0 -9 5 -9 10 0 6 7 10 16
10 8 0 12 -4 9 -10z m485 0 c0 -5 -9 -10 -21 -10 -11 0 -17 5 -14 10 3 6 13
10 21 10 8 0 14 -4 14 -10z m-890 -14 c0 -15 -24 -29 -33 -19 -7 6 14 32 26
33 4 0 7 -6 7 -14z m655 4 c-3 -5 -13 -10 -21 -10 -8 0 -14 5 -14 10 0 6 9 10
21 10 11 0 17 -4 14 -10z m155 -10 c0 -12 -28 -25 -36 -17 -9 9 6 27 22 27 8
0 14 -5 14 -10z m-600 -10 c0 -12 -40 -34 -47 -26 -9 8 17 36 33 36 8 0 14 -4
14 -10z m500 -20 c0 -5 -4 -10 -10 -10 -5 0 -10 5 -10 10 0 6 5 10 10 10 6 0
10 -4 10 -10z m-660 -15 c0 -8 -4 -15 -10 -15 -5 0 -10 7 -10 15 0 8 5 15 10
15 6 0 10 -7 10 -15z m-60 -15 c-8 -5 -18 -6 -24 -3 -5 4 -1 10 10 13 24 9 34
2 14 -10z m140 0 c0 -12 -28 -25 -36 -17 -9 9 6 27 22 27 8 0 14 -5 14 -10z
m407 -27 c-9 -9 -19 -14 -23 -11 -10 10 6 28 24 28 15 0 15 -1 -1 -17z m148
-14 c-4 -5 -13 -9 -22 -9 -13 0 -13 3 -3 15 13 15 35 11 25 -6z m129 2 c7 -10
-22 -37 -30 -28 -9 8 3 37 15 37 5 0 12 -4 15 -9z m-211 -18 c-7 -2 -21 -2
-30 0 -10 3 -4 5 12 5 17 0 24 -2 18 -5z m-76 -19 c-3 -3 -12 -4 -19 -1 -8 3
-5 6 6 6 11 1 17 -2 13 -5z"/>
<path d="M1960 3615 c0 -9 6 -12 15 -9 8 4 15 10 15 15 0 5 -7 9 -15 9 -8 0
-15 -7 -15 -15z"/>
<path d="M2930 4080 c0 -5 7 -10 15 -10 8 0 15 5 15 10 0 6 -7 10 -15 10 -8 0
-15 -4 -15 -10z"/>
<path d="M4041 4074 c0 -11 3 -14 6 -6 3 7 2 16 -1 19 -3 4 -6 -2 -5 -13z"/>
<path d="M2830 4064 c0 -8 5 -12 10 -9 6 3 10 10 10 16 0 5 -4 9 -10 9 -5 0
-10 -7 -10 -16z"/>
<path d="M2476 4054 c-5 -14 -4 -15 9 -4 17 14 19 20 6 20 -5 0 -12 -7 -15
-16z"/>
<path d="M2745 4050 c3 -5 -2 -10 -11 -10 -10 0 -15 -3 -11 -6 8 -8 47 5 47
17 0 5 -7 9 -16 9 -8 0 -12 -4 -9 -10z"/>
<path d="M2545 4021 c-3 -5 -1 -12 5 -16 5 -3 10 1 10 9 0 18 -6 21 -15 7z"/>
<path d="M4046 4001 c-4 -7 -5 -15 -2 -18 9 -9 19 4 14 18 -4 11 -6 11 -12 0z"/>
<path d="M2344 3975 c-17 -13 -17 -14 -2 -15 9 0 20 5 23 11 11 17 0 20 -21 4z"/>
<path d="M3710 3986 c0 -2 13 -6 29 -8 17 -2 28 -1 25 4 -5 8 -54 12 -54 4z"/>
<path d="M4110 3975 c0 -8 -7 -15 -15 -15 -8 0 -15 -4 -15 -8 0 -5 13 -7 29
-4 22 3 28 8 24 23 -6 23 -23 26 -23 4z"/>
<path d="M4226 3961 c-3 -5 1 -11 9 -14 9 -4 12 -1 8 9 -6 16 -10 17 -17 5z"/>
<path d="M4650 3952 c0 -5 6 -17 14 -27 13 -18 14 -18 9 8 -5 24 -23 39 -23
19z"/>
<path d="M4053 3908 c2 -28 7 -33 27 -33 19 0 26 -6 28 -24 3 -21 1 -23 -22
-17 -26 6 -26 6 -26 -54 0 -33 3 -60 8 -60 4 0 6 -31 4 -70 -2 -46 0 -70 7
-70 6 0 11 5 11 10 0 6 5 10 10 10 19 0 10 -32 -10 -37 -17 -5 -20 -14 -20
-62 0 -32 5 -62 12 -69 10 -10 10 -17 0 -32 -15 -25 -16 -50 -1 -50 6 0 20
-11 31 -25 10 -13 22 -24 26 -24 25 4 33 -3 27 -21 -4 -14 -2 -20 9 -21 9 -1
22 -2 29 -3 6 -1 18 6 24 15 16 22 76 32 68 12 -3 -8 -5 -17 -5 -19 0 -2 -10
-4 -22 -4 -21 0 -21 -2 7 -18 29 -18 30 -18 45 0 18 21 60 14 60 -10 0 -13 3
-12 14 4 13 17 18 18 45 7 26 -9 31 -9 31 3 0 19 12 18 36 -3 13 -13 34 -18
69 -17 28 1 60 -5 72 -12 27 -17 49 -18 59 -3 4 7 0 9 -14 5 -14 -5 -25 0 -39
17 -22 29 -79 47 -70 23 10 -26 -37 -20 -71 9 -34 28 -86 41 -200 51 -66 6
-81 10 -80 23 4 48 -2 60 -28 58 -15 -1 -29 4 -31 11 -4 10 7 12 43 10 47 -3
49 -4 52 -35 2 -17 10 -34 19 -37 12 -5 14 0 11 22 -4 27 -2 29 32 27 20 -1
41 -5 47 -8 6 -4 13 -2 15 5 4 10 10 10 31 1 16 -8 27 -9 27 -3 0 19 31 10 39
-12 5 -14 10 -17 15 -10 5 9 13 9 27 2 11 -6 19 -7 19 -1 0 11 -29 23 -39 16
-5 -2 -14 7 -21 20 -11 21 -21 25 -57 25 -24 0 -43 -4 -43 -10 0 -5 -5 -10
-11 -10 -6 0 -9 6 -6 14 4 10 -5 16 -31 21 -44 8 -68 25 -52 35 7 5 4 9 -9 13
-12 3 -19 1 -15 -4 3 -5 -4 -9 -14 -9 -11 0 -23 7 -26 16 -9 23 -8 27 8 21 10
-4 13 -1 9 9 -3 7 -10 14 -17 14 -17 0 -42 43 -27 48 9 3 8 10 -2 25 -22 35
-30 96 -15 115 11 13 11 15 -3 10 -9 -4 -20 2 -27 13 -13 21 -10 24 36 34 18
3 30 10 27 15 -7 11 98 20 110 9 5 -5 17 -9 27 -9 11 0 37 -9 59 -21 23 -11
43 -18 46 -15 3 3 -3 9 -13 13 -29 12 -30 36 -2 27 13 -3 26 -11 30 -17 3 -6
21 -15 40 -21 28 -9 33 -16 33 -41 0 -32 50 -99 69 -92 7 3 12 -12 13 -36 1
-26 8 -46 19 -54 14 -10 15 -15 4 -28 -10 -12 -15 -13 -21 -3 -13 20 -22 1
-23 -47 -1 -34 -5 -47 -19 -51 -10 -3 -21 -3 -24 0 -4 3 1 6 10 6 9 0 17 3 17
8 0 4 -24 8 -53 8 -46 2 -48 1 -21 -7 20 -6 34 -17 38 -31 4 -17 8 -20 17 -11
12 12 39 6 51 -11 4 -6 10 -8 13 -4 3 3 -1 12 -9 20 -11 12 -12 18 -3 27 9 9
8 16 -1 31 -17 28 9 38 43 16 27 -18 30 -15 15 15 -9 15 -7 21 6 26 15 6 15 7
-2 20 -10 7 -19 24 -19 36 -1 13 -4 28 -8 33 -3 6 -9 26 -12 45 -9 52 -16 72
-33 92 -9 11 -11 17 -4 17 7 0 12 4 12 10 0 14 -49 44 -58 36 -4 -4 1 -12 11
-17 21 -12 22 -29 3 -29 -8 0 -18 9 -21 20 -4 14 -15 20 -34 20 -15 0 -37 9
-49 20 -24 23 -42 25 -61 8 -10 -9 -12 -9 -7 -1 3 6 2 14 -3 18 -5 3 -14 -2
-19 -11 -5 -9 -14 -14 -21 -10 -16 10 -14 26 4 26 8 0 15 7 15 15 0 12 -5 13
-17 7 -10 -5 -23 -7 -30 -5 -6 2 -14 -1 -18 -6 -10 -17 -39 -13 -58 9 -21 25
-21 30 1 30 13 0 11 6 -12 25 -16 13 -33 22 -39 18 -6 -4 -2 -11 11 -16 27
-12 24 -31 -6 -35 -12 -2 -22 -8 -22 -13 0 -6 -17 -9 -37 -7 -46 4 -53 31 -10
36 43 5 32 20 -18 24 -43 3 -59 -5 -32 -15 9 -4 8 -8 -3 -16 -12 -8 -16 -5
-18 19 -4 41 -22 38 -19 -2z m184 -64 c-3 -3 -12 -4 -19 -1 -8 3 -5 6 6 6 11
1 17 -2 13 -5z m-42 -24 c0 -17 -34 -24 -54 -11 -7 5 -10 14 -6 20 10 17 60 9
60 -9z m-81 -25 c7 -20 -23 -33 -34 -14 -5 7 -6 17 -4 21 9 13 32 9 38 -7z
m-4 -65 c0 -5 -4 -10 -9 -10 -6 0 -13 5 -16 10 -3 6 1 10 9 10 9 0 16 -4 16
-10z m482 -30 c10 0 18 -4 18 -10 0 -15 -27 -12 -44 6 -9 8 -16 18 -16 22 0 3
5 1 12 -6 7 -7 20 -12 30 -12z m-452 -29 c0 -6 -4 -13 -10 -16 -5 -3 -10 1
-10 9 0 9 5 16 10 16 6 0 10 -4 10 -9z m25 -71 c-11 -10 -18 -11 -26 -3 -13
13 -3 36 12 28 5 -4 9 0 9 7 0 9 3 9 10 -2 6 -10 5 -20 -5 -30z m30 -59 c3 -6
-4 -15 -15 -21 -11 -6 -20 -8 -20 -4 0 4 -11 -3 -24 -16 -26 -23 -56 -22 -56
4 0 16 24 28 44 20 7 -3 16 2 19 10 7 17 42 22 52 7z m-55 -99 c0 -13 -12 -22
-22 -16 -10 6 -1 24 13 24 5 0 9 -4 9 -8z m20 -72 c0 -5 -8 -10 -17 -10 -15 0
-16 2 -3 10 19 12 20 12 20 0z m50 -40 c0 -5 -7 -10 -15 -10 -8 0 -15 5 -15
10 0 6 7 10 15 10 8 0 15 -4 15 -10z"/>
<path d="M4390 3930 c19 -13 30 -13 30 0 0 6 -10 10 -22 10 -19 0 -20 -2 -8
-10z"/>
<path d="M4340 3920 c0 -5 7 -10 16 -10 8 0 12 5 9 10 -3 6 -10 10 -16 10 -5
0 -9 -4 -9 -10z"/>
<path d="M3848 3913 c-16 -4 -16 -6 -4 -19 19 -19 22 -18 22 6 0 11 0 19 -1
19 0 -1 -8 -3 -17 -6z"/>
<path d="M3491 3895 c-1 -5 10 -75 24 -154 14 -79 25 -157 25 -172 0 -38 -41
-127 -74 -162 -15 -15 -24 -32 -21 -38 8 -13 44 34 75 99 13 26 27 55 32 64
12 27 10 51 -18 198 -24 122 -42 191 -43 165z"/>
<path d="M4280 3891 c0 -8 41 -23 47 -17 2 1 -8 8 -22 14 -14 6 -25 8 -25 3z"/>
<path d="M4398 3878 c5 -5 16 -8 23 -6 8 3 3 7 -10 11 -17 4 -21 3 -13 -5z"/>
<path d="M4468 3883 c6 -2 18 -2 25 0 6 3 1 5 -13 5 -14 0 -19 -2 -12 -5z"/>
<path d="M4724 3793 c24 -54 53 -132 66 -173 23 -75 44 -115 37 -73 -2 13 -6
26 -10 29 -13 14 -7 43 11 47 13 4 11 5 -5 6 -15 1 -23 7 -23 19 0 10 -6 24
-12 31 -10 11 -10 14 0 18 17 7 15 23 -4 23 -16 0 -48 63 -46 93 0 9 -3 17 -8
17 -4 0 -13 14 -19 30 -5 17 -14 30 -20 30 -5 0 10 -44 33 -97z"/>
<path d="M3975 3852 c14 -67 26 -148 25 -179 0 -24 4 -33 15 -33 13 0 15 10
14 46 -2 27 -8 48 -16 51 -10 4 -11 9 -2 19 9 11 9 21 1 39 -6 14 -9 31 -6 38
2 7 -5 22 -17 33 l-21 19 7 -33z"/>
<path d="M4465 3840 c3 -5 17 -10 31 -10 14 0 22 4 19 10 -3 6 -17 10 -31 10
-14 0 -22 -4 -19 -10z"/>
<path d="M3208 3772 c-23 -25 -25 -32 -20 -92 l5 -65 23 90 c13 49 22 91 20
92 -1 2 -14 -10 -28 -25z"/>
<path d="M4199 3767 c6 -8 8 -17 4 -20 -3 -4 -1 -7 5 -7 14 0 14 2 6 24 -3 9
-11 16 -16 16 -7 0 -6 -5 1 -13z"/>
<path d="M3805 3720 c3 -5 8 -10 11 -10 2 0 4 5 4 10 0 6 -5 10 -11 10 -5 0
-7 -4 -4 -10z"/>
<path d="M4810 3715 c0 -8 6 -15 14 -15 7 0 19 7 26 15 11 13 8 15 -14 15 -16
0 -26 -5 -26 -15z"/>
<path d="M5080 3714 c0 -9 6 -28 14 -42 18 -34 53 -139 71 -213 17 -67 35
-111 51 -121 7 -5 10 -17 7 -27 -6 -24 54 -134 68 -125 6 4 6 11 -2 20 -9 11
-9 14 1 14 9 0 11 15 8 55 -3 37 -1 52 5 46 6 -6 11 -27 13 -48 1 -21 2 -42 3
-47 1 -4 8 -6 16 -2 10 4 15 -1 15 -14 0 -13 7 -20 20 -20 26 0 26 3 -15 84
-19 37 -35 75 -35 82 0 19 -31 96 -37 90 -2 -2 3 -21 11 -41 23 -54 21 -60
-24 -61 -22 -1 -37 2 -34 7 3 5 12 9 20 9 11 0 14 8 9 35 -3 19 -7 51 -10 70
-3 19 -10 35 -15 35 -6 0 -10 7 -10 15 0 18 -64 141 -93 177 -12 14 -25 24
-29 22 -4 -3 -8 0 -8 5 0 6 -4 11 -10 11 -5 0 -10 -7 -10 -16z m100 -154 c0
-5 -2 -10 -4 -10 -3 0 -8 5 -11 10 -3 6 -1 10 4 10 6 0 11 -4 11 -10z"/>
<path d="M2070 3710 c-8 -5 -11 -12 -8 -16 4 -3 14 1 23 10 18 17 9 21 -15 6z"/>
<path d="M4356 3703 c-10 -10 23 -33 48 -33 14 0 31 -7 38 -16 7 -9 22 -26 33
-38 l20 -22 -28 -23 c-17 -14 -36 -22 -50 -19 -23 4 -51 -14 -40 -26 4 -3 22
-3 40 0 20 4 39 2 47 -5 18 -15 30 1 21 29 -5 16 -2 20 14 20 12 0 21 3 21 7
0 18 -53 81 -78 92 -15 7 -39 19 -54 26 -14 7 -29 11 -32 8z"/>
<path d="M3840 3675 c7 -9 15 -13 17 -11 7 7 -7 26 -19 26 -6 0 -6 -6 2 -15z"/>
<path d="M4300 3669 c0 -5 5 -7 10 -4 14 9 13 -8 -2 -23 -7 -7 -8 -12 -4 -12
5 0 2 -8 -5 -17 -12 -15 -12 -16 3 -11 11 5 18 0 22 -18 4 -13 11 -24 17 -24
7 0 8 7 3 18 -4 9 -8 33 -8 52 -1 33 -11 49 -28 50 -5 0 -8 -5 -8 -11z"/>
<path d="M3870 3644 c0 -10 49 -73 50 -63 0 3 -11 20 -25 39 -14 19 -25 30
-25 24z"/>
<path d="M4390 3610 c0 -5 7 -7 15 -4 8 4 15 8 15 10 0 2 -7 4 -15 4 -8 0 -15
-4 -15 -10z"/>
<path d="M4858 3613 c7 -3 16 -2 19 1 4 3 -2 6 -13 5 -11 0 -14 -3 -6 -6z"/>
<path d="M4690 3598 c0 -9 5 -20 10 -23 13 -8 13 5 0 25 -8 13 -10 13 -10 -2z"/>
<path d="M4908 3603 c6 -2 18 -2 25 0 6 3 1 5 -13 5 -14 0 -19 -2 -12 -5z"/>
<path d="M4005 3583 c-8 -22 0 -26 25 -13 22 12 20 22 -5 26 -7 1 -16 -5 -20
-13z"/>
<path d="M3808 3563 c7 -3 16 -2 19 1 4 3 -2 6 -13 5 -11 0 -14 -3 -6 -6z"/>
<path d="M4716 3525 c-4 -12 -1 -24 9 -34 13 -13 15 -13 14 -1 0 8 -4 24 -8
34 -7 19 -8 19 -15 1z"/>
<path d="M1706 3501 c-4 -7 -5 -15 -2 -18 9 -9 19 4 14 18 -4 11 -6 11 -12 0z"/>
<path d="M4830 3498 c0 -20 13 -35 38 -42 31 -10 27 6 -8 32 -19 15 -30 18
-30 10z"/>
<path d="M1802 3455 c0 -16 2 -22 5 -12 2 9 2 23 0 30 -3 6 -5 -1 -5 -18z"/>
<path d="M4730 3459 c0 -5 5 -7 10 -4 6 3 10 8 10 11 0 2 -4 4 -10 4 -5 0 -10
-5 -10 -11z"/>
<path d="M1705 3452 c-6 -4 -12 -17 -12 -30 -2 -29 -22 -54 -37 -49 -7 3 -21
-13 -33 -34 -17 -30 -18 -39 -7 -39 23 0 16 -24 -13 -42 -16 -10 -23 -18 -16
-18 11 0 9 -25 -4 -60 -3 -8 -8 -24 -9 -35 -2 -11 -6 -31 -9 -43 -4 -17 -2
-23 7 -20 7 3 14 14 16 26 2 12 7 22 12 22 4 0 6 -10 3 -21 -5 -19 -3 -20 18
-14 13 4 26 12 27 16 2 5 10 9 17 9 7 0 16 6 19 13 3 6 3 2 0 -10 -4 -16 -1
-23 10 -23 9 0 15 10 14 28 0 27 17 82 26 82 3 0 1 -13 -4 -30 -9 -32 4 -50
23 -31 17 17 31 13 17 -4 -7 -8 -18 -15 -26 -15 -7 0 -16 -4 -19 -10 -4 -6 7
-9 26 -6 18 2 35 8 37 14 2 8 9 8 22 0 23 -15 33 -7 24 16 -4 9 -13 15 -20 12
-8 -3 -14 1 -14 9 0 16 -49 69 -65 70 -5 1 -17 -8 -27 -19 -16 -20 -16 -20
-15 7 1 18 8 27 18 27 9 0 19 7 23 15 3 8 10 15 15 15 6 0 8 -6 5 -14 -8 -20
54 -75 86 -77 17 -1 20 -3 8 -6 -10 -2 -18 -8 -18 -13 0 -5 8 -13 18 -19 9 -5
17 -13 17 -18 0 -4 11 -7 25 -6 48 3 415 2 445 -1 17 -2 38 0 47 5 10 5 18 5
20 -1 2 -5 37 -12 78 -16 41 -3 77 -8 79 -10 3 -3 21 10 40 28 27 25 30 26 12
6 -14 -16 -23 -30 -20 -32 12 -10 99 -12 104 -2 3 8 7 7 11 -1 7 -16 35 -17
68 -2 l25 12 -23 36 c-13 20 -26 46 -30 58 -15 46 -32 46 -71 1 -21 -24 -33
-34 -27 -22 6 11 18 26 26 34 21 17 20 37 -1 43 -10 3 -2 5 18 6 27 1 38 7 47
25 10 23 9 24 -31 30 -123 17 -328 31 -404 27 -26 -1 -32 -31 -10 -49 7 -6 60
-13 118 -15 l104 -3 -117 -2 c-107 -2 -118 -4 -118 -20 0 -10 -6 -19 -13 -19
-9 0 -12 9 -9 22 3 19 -6 26 -78 55 -77 31 -86 33 -168 26 -160 -12 -256 -28
-270 -45 -11 -13 -13 -13 -11 -1 2 8 -4 29 -14 46 -9 17 -14 34 -10 37 6 6 16
77 11 77 -2 0 -8 -4 -13 -8z m675 -117 c0 -2 -10 -9 -22 -15 -22 -11 -22 -10
-4 4 21 17 26 19 26 11z m-583 -51 c-3 -3 -12 -4 -19 -1 -8 3 -5 6 6 6 11 1
17 -2 13 -5z m428 -14 c-16 -4 -46 -8 -65 -8 l-35 1 35 7 c19 4 49 7 65 8 l30
0 -30 -8z m418 3 c3 -5 -16 -7 -41 -5 -73 5 -82 10 -20 11 31 0 59 -2 61 -6z
m-1023 -74 l-20 -54 3 42 c3 36 23 80 33 70 2 -2 -5 -28 -16 -58z m489 44 c-7
-10 -15 -20 -16 -22 -2 -2 -3 5 -3 17 0 14 6 22 16 22 14 0 15 -3 3 -17z m-36
0 c-7 -2 -19 -2 -25 0 -7 3 -2 5 12 5 14 0 19 -2 13 -5z m-396 -9 c-3 -3 -12
-4 -19 -1 -8 3 -5 6 6 6 11 1 17 -2 13 -5z m278 -19 c-44 -13 -82 -22 -84 -19
-4 4 3 7 74 28 28 8 59 15 70 15 11 0 -16 -11 -60 -24z m119 3 c-3 -7 -22 -26
-42 -42 l-37 -30 40 42 c42 45 48 49 39 30z m116 8 c0 -2 -8 -10 -17 -17 -16
-13 -17 -12 -4 4 13 16 21 21 21 13z m51 -19 c-10 -9 -11 -8 -5 6 3 10 9 15
12 12 3 -3 0 -11 -7 -18z m369 13 c-8 -5 -19 -10 -25 -10 -5 0 -3 5 5 10 8 5
20 10 25 10 6 0 3 -5 -5 -10z m-343 -42 c-3 -7 -5 -2 -5 12 0 14 2 19 5 13 2
-7 2 -19 0 -25z m-584 -3 c-3 -9 -8 -14 -10 -11 -3 3 -2 9 2 15 9 16 15 13 8
-4z m457 10 c0 -2 -10 -9 -22 -15 -22 -11 -22 -10 -4 4 21 17 26 19 26 11z
m81 -18 c-10 -9 -11 -8 -5 6 3 10 9 15 12 12 3 -3 0 -11 -7 -18z m279 8 c-14
-8 -29 -14 -35 -14 -5 0 1 6 15 14 14 8 30 14 35 14 6 0 -1 -6 -15 -14z m-60
-25 c-8 -5 -19 -10 -25 -10 -5 0 -3 5 5 10 8 5 20 10 25 10 6 0 3 -5 -5 -10z"/>
<path d="M3746 3447 c3 -10 9 -15 12 -12 3 3 0 11 -7 18 -10 9 -11 8 -5 -6z"/>
<path d="M1903 3433 c-12 -2 -24 -10 -26 -17 -8 -21 39 -14 52 7 6 9 8 16 4
16 -5 -1 -18 -4 -30 -6z"/>
<path d="M1657 3423 c-10 -9 -9 -23 2 -23 5 0 11 7 15 15 5 15 -5 20 -17 8z"/>
<path d="M4850 3423 c0 -4 5 -15 10 -23 8 -13 10 -13 10 2 0 9 -4 20 -10 23
-5 3 -10 3 -10 -2z"/>
<path d="M1826 3404 c-5 -14 -4 -15 9 -4 17 14 19 20 6 20 -5 0 -12 -7 -15
-16z"/>
<path d="M4650 3406 c0 -2 7 -7 16 -10 8 -3 12 -2 9 4 -6 10 -25 14 -25 6z"/>
<path d="M2937 3369 c-31 -17 -85 -36 -118 -43 -49 -10 -64 -18 -75 -37 -13
-25 -12 -26 39 -39 29 -8 54 -13 57 -13 3 1 14 5 24 9 14 5 17 4 11 -5 -4 -8
-2 -17 6 -22 23 -15 -5 -10 -66 11 -85 29 -88 27 -53 -34 23 -39 36 -53 47
-48 13 5 14 3 4 -10 -7 -8 -10 -18 -6 -22 4 -3 -2 -13 -13 -21 -17 -13 -17
-14 -1 -15 9 0 17 5 17 11 0 6 9 8 21 4 14 -5 19 -4 15 4 -5 7 -1 9 9 5 9 -4
26 -2 38 4 12 6 35 15 51 19 33 10 40 21 26 43 -8 13 -13 12 -40 -4 -17 -10
-34 -15 -37 -12 -4 3 -2 6 4 6 12 0 24 37 14 43 -3 2 0 2 7 0 8 -1 22 -3 33
-3 11 0 23 -8 26 -17 10 -27 25 -33 47 -20 20 11 20 12 -9 18 -25 6 -22 7 20
8 45 1 85 18 85 35 0 10 -112 176 -119 175 -3 0 -32 -14 -64 -30z m21 -134 l0
-30 -8 30 c-4 17 -8 48 -8 70 l0 40 9 -40 c4 -22 8 -53 7 -70z m-83 -95 c-3
-5 -11 -10 -16 -10 -6 0 -7 5 -4 10 3 6 11 10 16 10 6 0 7 -4 4 -10z"/>
<path d="M5030 3380 c0 -9 39 -25 45 -18 2 2 -7 8 -21 15 -13 6 -24 7 -24 3z"/>
<path d="M4430 3350 c0 -11 7 -20 15 -20 17 0 18 2 9 24 -9 23 -24 20 -24 -4z"/>
<path d="M2144 3351 c-2 -2 22 -15 54 -28 31 -13 59 -25 62 -26 7 -3 10 9 10
36 0 20 -4 22 -61 22 -33 0 -62 -2 -65 -4z"/>
<path d="M4330 3350 c0 -5 5 -10 10 -10 6 0 10 5 10 10 0 6 -4 10 -10 10 -5 0
-10 -4 -10 -10z"/>
<path d="M4870 3351 c0 -5 5 -13 10 -16 6 -3 10 -2 10 4 0 5 -4 13 -10 16 -5
3 -10 2 -10 -4z"/>
<path d="M3407 3321 c-4 -17 -3 -21 5 -13 5 5 8 16 6 23 -3 8 -7 3 -11 -10z"/>
<path d="M4670 3331 c0 -5 7 -12 16 -15 13 -5 14 -9 4 -21 -11 -13 -10 -14 4
-9 22 8 20 27 -4 42 -11 7 -20 8 -20 3z"/>
<path d="M4740 3320 c-9 -6 -10 -10 -3 -10 6 0 15 5 18 10 8 12 4 12 -15 0z"/>
<path d="M3100 3278 c18 -27 37 -48 41 -48 20 0 16 19 -9 41 -59 52 -65 53
-32 7z"/>
<path d="M4615 3310 c3 -5 8 -10 11 -10 2 0 4 5 4 10 0 6 -5 10 -11 10 -5 0
-7 -4 -4 -10z"/>
<path d="M3905 3300 c3 -5 8 -10 11 -10 2 0 4 5 4 10 0 6 -5 10 -11 10 -5 0
-7 -4 -4 -10z"/>
<path d="M4730 3290 c0 -5 5 -10 11 -10 5 0 7 5 4 10 -3 6 -8 10 -11 10 -2 0
-4 -4 -4 -10z"/>
<path d="M3884 3265 c-8 -21 6 -41 17 -24 12 19 11 39 -1 39 -6 0 -13 -7 -16
-15z"/>
<path d="M4690 3245 c7 -8 16 -15 21 -15 5 0 6 7 3 15 -4 8 -13 15 -21 15 -13
0 -13 -3 -3 -15z"/>
<path d="M4915 3239 c13 -42 34 -89 39 -89 3 0 -1 17 -10 39 -8 21 -14 44 -12
51 2 7 -3 15 -11 17 -10 4 -11 -1 -6 -18z"/>
<path d="M3559 3213 c18 -24 38 -46 44 -50 17 -10 -28 49 -54 72 -16 14 -13 6
10 -22z"/>
<path d="M4341 3226 c-9 -10 -8 -16 4 -26 13 -11 15 -8 15 14 0 30 -3 32 -19
12z"/>
<path d="M4800 3225 c0 -2 10 -10 23 -16 20 -11 21 -11 8 4 -13 16 -31 23 -31
12z"/>
<path d="M3870 3210 c0 -5 5 -10 10 -10 6 0 10 5 10 10 0 6 -4 10 -10 10 -5 0
-10 -4 -10 -10z"/>
<path d="M4752 3204 c10 -10 20 -15 24 -12 3 4 -5 12 -18 18 -22 12 -22 12 -6
-6z"/>
<path d="M3767 3199 c7 -7 15 -10 18 -7 3 3 -2 9 -12 12 -14 6 -15 5 -6 -5z"/>
<path d="M4380 3203 c0 -4 5 -15 10 -23 8 -13 10 -13 10 2 0 9 -4 20 -10 23
-5 3 -10 3 -10 -2z"/>
<path d="M4550 3196 c0 -9 5 -16 10 -16 6 0 10 4 10 9 0 6 -4 13 -10 16 -5 3
-10 -1 -10 -9z"/>
<path d="M4590 3183 c0 -13 5 -23 10 -23 13 0 13 11 0 30 -8 12 -10 11 -10 -7z"/>
<path d="M3651 3152 c6 -18 15 -35 20 -38 5 -3 4 7 -3 23 -17 41 -30 53 -17
15z"/>
<path d="M3821 3134 c-12 -19 -21 -40 -21 -46 0 -16 32 15 53 51 15 26 16 31
4 31 -8 0 -24 -16 -36 -36z"/>
<path d="M4708 3163 c7 -3 16 -2 19 1 4 3 -2 6 -13 5 -11 0 -14 -3 -6 -6z"/>
<path d="M5326 3154 c-8 -22 -9 -21 17 -29 13 -4 17 -8 10 -12 -7 -2 -13 -9
-13 -13 0 -10 71 -32 79 -25 2 3 -1 5 -8 5 -6 0 -16 11 -21 25 -5 14 -16 25
-25 25 -8 0 -15 7 -15 15 0 19 6 19 38 -3 52 -36 55 -36 38 -3 -14 27 -22 31
-55 31 -26 0 -41 -5 -45 -16z"/>
<path d="M4886 3146 c21 -15 30 -14 19 3 -3 6 -14 11 -23 11 -13 0 -13 -2 4
-14z"/>
<path d="M5052 3149 c2 -7 10 -15 17 -17 8 -3 12 1 9 9 -2 7 -10 15 -17 17 -8
3 -12 -1 -9 -9z"/>
<path d="M4752 3120 c0 -14 2 -19 5 -12 2 6 2 18 0 25 -3 6 -5 1 -5 -13z"/>
<path d="M4960 3132 c-1 -30 148 -302 165 -302 7 0 -7 34 -22 51 -12 15 -38
60 -90 161 -8 15 -12 32 -8 38 3 5 2 10 -4 10 -6 0 -17 12 -25 28 -8 15 -15
21 -16 14z"/>
<path d="M5246 3125 c4 -8 10 -15 15 -15 4 0 6 7 3 15 -4 8 -10 15 -15 15 -4
0 -6 -7 -3 -15z"/>
<path d="M3671 3078 c34 -51 56 -64 37 -23 -6 13 -14 23 -18 22 -4 -1 -17 9
-30 23 -12 14 -7 4 11 -22z"/>
<path d="M5477 3020 c3 -19 1 -30 -6 -30 -6 0 -11 -5 -11 -11 0 -6 6 -9 12 -7
7 3 21 -5 31 -16 l18 -21 -7 24 c-9 35 -34 91 -39 91 -2 0 -2 -13 2 -30z"/>
<path d="M5390 3018 c0 -6 3 -8 7 -5 3 4 12 2 20 -4 10 -9 13 -8 13 5 0 9 -8
16 -20 16 -11 0 -20 -5 -20 -12z"/>
<path d="M1421 3001 c-7 -5 -11 -13 -7 -19 3 -6 2 -22 -4 -37 -6 -16 -6 -24 0
-20 9 5 32 76 27 81 -1 2 -9 -1 -16 -5z"/>
<path d="M3406 2960 c-4 -14 -9 -36 -11 -50 -4 -25 -3 -24 11 3 8 16 14 38 12
50 -3 21 -4 21 -12 -3z"/>
<path d="M3377 2959 c7 -7 15 -10 18 -7 3 3 -2 9 -12 12 -14 6 -15 5 -6 -5z"/>
<path d="M3570 2945 c13 -14 26 -22 29 -19 3 4 0 9 -6 11 -7 3 -13 11 -13 19
0 8 -8 14 -17 14 -14 0 -12 -4 7 -25z"/>
<path d="M2985 2946 c-16 -7 -55 -18 -85 -25 -82 -19 -89 -22 -65 -31 12 -4
30 -2 45 5 26 14 116 31 138 27 6 -2 12 6 12 18 0 23 -4 24 -45 6z"/>
<path d="M1430 2923 c0 -5 -15 -27 -34 -49 -22 -26 -32 -45 -26 -53 10 -17 33
-4 26 15 -3 8 -2 14 3 14 12 0 46 68 38 76 -4 4 -7 3 -7 -3z"/>
<path d="M3166 2874 c-35 -76 -32 -83 5 -10 17 32 28 60 26 63 -3 2 -17 -21
-31 -53z"/>
<path d="M3061 2915 c0 -5 6 -21 14 -35 8 -14 14 -20 14 -15 0 6 -6 21 -14 35
-8 14 -14 21 -14 15z"/>
<path d="M5490 2900 c0 -5 5 -10 10 -10 6 0 10 5 10 10 0 6 -4 10 -10 10 -5 0
-10 -4 -10 -10z"/>
<path d="M2938 2893 c7 -3 16 -2 19 1 4 3 -2 6 -13 5 -11 0 -14 -3 -6 -6z"/>
<path d="M2976 2885 c-11 -8 -15 -15 -9 -15 6 0 16 7 23 15 16 19 11 19 -14 0z"/>
<path d="M2900 2875 c-11 -13 -10 -14 4 -9 9 3 16 10 16 15 0 13 -6 11 -20 -6z"/>
<path d="M5210 2860 c0 -5 5 -10 10 -10 6 0 10 5 10 10 0 6 -4 10 -10 10 -5 0
-10 -4 -10 -10z"/>
<path d="M1510 2847 c0 -19 16 -31 24 -18 3 5 -1 14 -9 21 -12 10 -15 10 -15
-3z"/>
<path d="M1573 2843 c-15 -5 -17 -23 -4 -23 5 0 11 7 15 15 3 8 4 15 3 14 -1
0 -8 -3 -14 -6z"/>
<path d="M3201 2831 c-13 -10 -17 -18 -10 -18 8 0 23 9 33 19 25 23 8 23 -23
-1z"/>
<path d="M5283 2833 c9 -9 20 -13 24 -9 4 4 1 11 -7 16 -25 16 -35 11 -17 -7z"/>
<path d="M5505 2840 c3 -5 8 -10 11 -10 2 0 4 5 4 10 0 6 -5 10 -11 10 -5 0
-7 -4 -4 -10z"/>
<path d="M5165 2830 c-3 -6 1 -7 9 -4 18 7 21 14 7 14 -6 0 -13 -4 -16 -10z"/>
<path d="M5231 2824 c0 -11 3 -14 6 -6 3 7 2 16 -1 19 -3 4 -6 -2 -5 -13z"/>
<path d="M2750 2815 c-10 -12 -10 -15 4 -15 9 0 16 7 16 15 0 8 -2 15 -4 15
-2 0 -9 -7 -16 -15z"/>
<path d="M2665 2810 c-3 -5 -1 -10 4 -10 6 0 11 5 11 10 0 6 -2 10 -4 10 -3 0
-8 -4 -11 -10z"/>
<path d="M1576 2791 c-3 -5 1 -11 9 -15 8 -3 15 -1 15 4 0 13 -18 22 -24 11z"/>
<path d="M5706 2791 c-4 -7 -5 -15 -2 -18 9 -9 19 4 14 18 -4 11 -6 11 -12 0z"/>
<path d="M1631 2760 c-12 -36 -9 -38 13 -6 9 14 12 27 7 30 -5 3 -14 -8 -20
-24z"/>
<path d="M2697 2773 c-11 -10 -8 -20 7 -26 10 -4 12 0 9 14 -6 21 -7 22 -16
12z"/>
<path d="M5635 2746 c-18 -43 -19 -59 -2 -53 6 2 12 16 12 30 -1 16 5 27 12
27 15 0 17 16 3 25 -6 4 -17 -9 -25 -29z"/>
<path d="M1561 2754 c0 -11 3 -14 6 -6 3 7 2 16 -1 19 -3 4 -6 -2 -5 -13z"/>
<path d="M5225 2760 c-3 -5 -1 -10 4 -10 6 0 11 5 11 10 0 6 -2 10 -4 10 -3 0
-8 -4 -11 -10z"/>
<path d="M1473 2733 c-7 -2 -13 -9 -13 -15 0 -6 6 -8 14 -5 8 3 17 1 20 -6 2
-7 5 -2 5 11 1 22 -3 25 -26 15z"/>
<path d="M1519 2708 c-11 -20 -10 -21 3 -11 8 7 18 10 21 6 4 -3 7 1 7 10 0
24 -17 21 -31 -5z"/>
<path d="M2953 2655 c-10 -11 -9 -13 6 -12 11 1 17 7 14 14 -6 16 -5 16 -20
-2z"/>
<path d="M5270 2646 c0 -5 45 -77 66 -104 5 -7 54 30 54 41 0 5 -8 3 -18 -6
-23 -21 -32 -21 -32 -3 0 7 10 17 23 21 14 4 17 8 9 12 -7 3 -20 -1 -29 -8
-13 -12 -20 -9 -44 21 -16 19 -29 31 -29 26z"/>
<path d="M5560 2460 c0 -5 -10 -11 -22 -13 -13 -2 -5 -3 16 0 53 5 78 20 37
21 -17 0 -31 -3 -31 -8z"/>
<path d="M1132 2430 c0 -14 2 -19 5 -12 2 6 2 18 0 25 -3 6 -5 1 -5 -13z"/>
<path d="M1122 2350 c0 -14 2 -19 5 -12 2 6 2 18 0 25 -3 6 -5 1 -5 -13z"/>
<path d="M5271 2334 c0 -11 3 -14 6 -6 3 7 2 16 -1 19 -3 4 -6 -2 -5 -13z"/>
<path d="M1112 2265 c0 -16 2 -22 5 -12 2 9 2 23 0 30 -3 6 -5 -1 -5 -18z"/>
<path d="M1101 2214 c0 -11 3 -14 6 -6 3 7 2 16 -1 19 -3 4 -6 -2 -5 -13z"/>
<path d="M4985 1900 c-3 -5 -1 -10 4 -10 6 0 11 5 11 10 0 6 -2 10 -4 10 -3 0
-8 -4 -11 -10z"/>
<path d="M4945 1830 c3 -5 11 -10 16 -10 6 0 7 5 4 10 -3 6 -11 10 -16 10 -6
0 -7 -4 -4 -10z"/>
<path d="M4690 1774 c0 -8 5 -12 10 -9 6 3 10 10 10 16 0 5 -4 9 -10 9 -5 0
-10 -7 -10 -16z"/>
<path d="M4820 1770 c0 -5 7 -10 16 -10 8 0 12 5 9 10 -3 6 -10 10 -16 10 -5
0 -9 -4 -9 -10z"/>
<path d="M4406 1741 c-3 -5 1 -11 9 -15 9 -3 15 0 15 9 0 16 -16 20 -24 6z"/>
<path d="M4481 1726 c-8 -10 -9 -16 -1 -21 5 -3 10 -1 10 4 0 6 7 11 16 11 8
0 12 5 9 10 -9 14 -20 12 -34 -4z"/>
<path d="M4560 1715 c-7 -8 -10 -18 -6 -22 3 -3 6 -1 6 6 0 6 6 11 13 9 14 -3
23 15 9 20 -5 1 -15 -4 -22 -13z"/>
<path d="M4704 1708 c-4 -5 -1 -14 7 -18 14 -9 29 -4 29 10 0 13 -29 20 -36 8z"/>
<path d="M4790 1705 c-11 -13 -11 -19 2 -32 14 -14 17 -13 23 7 9 29 -8 46
-25 25z"/>
<path d="M4640 1679 c0 -5 5 -7 10 -4 6 3 10 8 10 11 0 2 -4 4 -10 4 -5 0 -10
-5 -10 -11z"/>
<path d="M4653 1642 c-15 -10 -21 -44 -8 -49 19 -6 49 23 42 41 -7 17 -16 20
-34 8z"/>
<path d="M2303 2913 c-17 -6 -16 -20 1 -26 10 -4 14 0 13 14 -1 10 -1 19 -2
18 0 0 -6 -3 -12 -6z"/>
<path d="M2550 2800 c-9 -6 -10 -10 -3 -10 6 0 15 5 18 10 8 12 4 12 -15 0z"/>
<path d="M2607 2693 c-4 -3 -7 -18 -6 -32 1 -26 1 -25 10 3 9 31 7 41 -4 29z"/>
<path d="M2146 2525 c-4 -10 1 -15 15 -15 11 0 27 7 35 15 14 13 12 15 -14 15
-17 0 -32 -6 -36 -15z"/>
<path d="M2250 2525 c-10 -12 -10 -15 4 -15 9 0 16 7 16 15 0 8 -2 15 -4 15
-2 0 -9 -7 -16 -15z"/>
<path d="M2357 2517 c20 -6 45 -6 70 1 36 9 33 10 -32 9 -60 0 -66 -2 -38 -10z"/>
<path d="M1550 2390 c0 -5 5 -10 10 -10 6 0 10 5 10 10 0 6 -4 10 -10 10 -5 0
-10 -4 -10 -10z"/>
<path d="M1544 2334 c10 -7 23 -11 27 -8 17 10 9 19 -18 21 -26 1 -26 0 -9
-13z"/>
<path d="M1545 2300 c4 -11 2 -20 -3 -20 -5 0 -12 -9 -15 -20 -4 -15 0 -20 14
-20 12 0 19 7 19 19 0 11 3 26 6 34 3 8 -2 17 -11 21 -13 5 -15 1 -10 -14z"/>
<path d="M1290 851 c0 -5 7 -14 15 -21 16 -14 18 -10 9 14 -6 17 -24 22 -24 7z"/>
</g>
</svg>
